<svg xmlns="http://www.w3.org/2000/svg" width="1600" height="1040" aria-hidden="true" viewBox="0 0 1600 1040"><defs><clipPath id="mapClip"><rect width="1258.1" height="932" x="170.9" y="54" rx="18"/></clipPath><style><![CDATA[
    .land { fill: rgba(196, 204, 217, .18); stroke: #c4ccd9; stroke-width: 1.35; stroke-opacity: .9; vector-effect: non-scaling-stroke; }
    .cable { fill: none; stroke-linecap: round; stroke-linejoin: round; stroke-width: 3.6; opacity: .92; vector-effect: non-scaling-stroke; }
    .cable.back { stroke: rgba(0, 0, 0, .44); stroke-width: 8; opacity: .5; }
    .cable.retired { stroke: #77736b; stroke-dasharray: 6 7; opacity: .38; }
    .cable.building { stroke-dasharray: 12 9; opacity: .74; }
  ]]></style></defs><g id="cables" clip-path="url(#mapClip)"><path d="m2166.4-425 1.3.5h.9l1.4.8.4.3 1.7 1.8.3.5.2 1.9v.3l.2.8.2.5.2 1.3 1.7 4.5.7.6 11.7 24.8 2.8 2.9 5.5 8.2 7.7 8.4 1.5 3.2 1 6 .2 5.8-1.4 12 1.5 9.5.1 1.4-.6 8.7-2.2 4.4-.4 8.6 3.8 14 1 13.3-.9 42 .8 6.1 3 7-1.3 23.8-.3 1.2-1.3 31.3-4.5 36.3-4 21.7-14.3 20.2-6.4 9.4-4.8 9.7-28.5 27.6-6.7 4.6-4.6 7.3-15.2 14.2-5.5 11-6.4 6.9-4 14-9 17.9-2.7 4.7-36.6 22.8-13.7 8.5-47.7 33.8-11.6 15.5-46.8 21.1-17 4.6-5 4.9-18 11.2-1.5.4-8.4 7.6-4.8 3.9-18 10.7-34 16.8-26.6 6.6-8 8.2-24.3 11.7-39.7 9.5-7.9 1.9-21.2 5.4-6.2 3.5-24.6 6.4-30.9 15.3-9 3.2-21.8 3.9-62.1 11.9-11.7-3.3-5.2-2.2-4.6.7-9.2 5-7.7 7.7-7.5 3.1-6.4 8.3-9 15.1-23.2 29.6-14.3 15.7-48.2 30-9.3 2.5-9.8 5.6-12.3 2.4-17.2-4h-7.1l-5.7 1.2-4 3.4-7.4 1.6-4 3.6-2.5.4-4.6-1.2-14 .2-6.5.3-7.3.5-10.2-5.1-8.2-6-7.3-8-1-3.1-1.4-2-10.6-5-15.2-2.5-20.2-16.5-5-2.5h-4.8l-11.7-6-15.3-4.8-8.1-2.8h-.4l-1.7.6-2.2 2.2-7 1.9-28.7 15.7-10.1 6.8-12.8 10.6-22.7 8-24.1 9.8-1.6-.2-3-2-1.9-.1-51.7 15.5h-4l-5-2.2-.4-.1-21.3-8.6-5.7.3-50 15.7-13.6-2.2-5-.7-3.5-.7-1-1-.7-1.4-2-9.6-1-2.7-1.1-2.3-3.6-2.4-3.2-2.8-1.6-2.9-.8-1-1.6-1.7-1.8-1.7-1.2-.9-4.8-5.2-1.3-2-2.4-2.5-2-2.5-.3-1.6-.9-2-2.4-3.5-.8-.8-2.7-2.7-5.8-1.5-6 1.5-12.2 3.2-7.7 2.5-1.2.5-8.7 3-1 .4-9.4 6.4-2.3 1.1-2.8 1.6-3.3 5 .4 10.7v1l-2.1 8.6v1.1l1 2.5.2.2v.3" class="cable back"/><path stroke="#ff7a1a" d="m2166.4-425 1.3.5h.9l1.4.8.4.3 1.7 1.8.3.5.2 1.9v.3l.2.8.2.5.2 1.3 1.7 4.5.7.6 11.7 24.8 2.8 2.9 5.5 8.2 7.7 8.4 1.5 3.2 1 6 .2 5.8-1.4 12 1.5 9.5.1 1.4-.6 8.7-2.2 4.4-.4 8.6 3.8 14 1 13.3-.9 42 .8 6.1 3 7-1.3 23.8-.3 1.2-1.3 31.3-4.5 36.3-4 21.7-14.3 20.2-6.4 9.4-4.8 9.7-28.5 27.6-6.7 4.6-4.6 7.3-15.2 14.2-5.5 11-6.4 6.9-4 14-9 17.9-2.7 4.7-36.6 22.8-13.7 8.5-47.7 33.8-11.6 15.5-46.8 21.1-17 4.6-5 4.9-18 11.2-1.5.4-8.4 7.6-4.8 3.9-18 10.7-34 16.8-26.6 6.6-8 8.2-24.3 11.7-39.7 9.5-7.9 1.9-21.2 5.4-6.2 3.5-24.6 6.4-30.9 15.3-9 3.2-21.8 3.9-62.1 11.9-11.7-3.3-5.2-2.2-4.6.7-9.2 5-7.7 7.7-7.5 3.1-6.4 8.3-9 15.1-23.2 29.6-14.3 15.7-48.2 30-9.3 2.5-9.8 5.6-12.3 2.4-17.2-4h-7.1l-5.7 1.2-4 3.4-7.4 1.6-4 3.6-2.5.4-4.6-1.2-14 .2-6.5.3-7.3.5-10.2-5.1-8.2-6-7.3-8-1-3.1-1.4-2-10.6-5-15.2-2.5-20.2-16.5-5-2.5h-4.8l-11.7-6-15.3-4.8-8.1-2.8h-.4l-1.7.6-2.2 2.2-7 1.9-28.7 15.7-10.1 6.8-12.8 10.6-22.7 8-24.1 9.8-1.6-.2-3-2-1.9-.1-51.7 15.5h-4l-5-2.2-.4-.1-21.3-8.6-5.7.3-50 15.7-13.6-2.2-5-.7-3.5-.7-1-1-.7-1.4-2-9.6-1-2.7-1.1-2.3-3.6-2.4-3.2-2.8-1.6-2.9-.8-1-1.6-1.7-1.8-1.7-1.2-.9-4.8-5.2-1.3-2-2.4-2.5-2-2.5-.3-1.6-.9-2-2.4-3.5-.8-.8-2.7-2.7-5.8-1.5-6 1.5-12.2 3.2-7.7 2.5-1.2.5-8.7 3-1 .4-9.4 6.4-2.3 1.1-2.8 1.6-3.3 5 .4 10.7v1l-2.1 8.6v1.1l1 2.5.2.2v.3" class="cable"/><path d="m443.1 572.8.6 1.7 3 12.9.6 4v1.4l.6 1.3 10.8 44.4h.2l-.2.4 4.6 18.7.4 2.5.3.6.3.2 2 .6 4.2 1.6 2.1.6 3.7 1.6 6.7 2.5.7-.1 10.4 3.9h.4l5.2 1.9.8.3 3 1.7 3.7 1.4 3.2.9 2.2 1.1 25.6 9.7 7.7 3.6 7.4 3.7L567 702l13.3-.7 11.6 3.9 3.8 6.3 4.1 2 5.2 5.8 6.5 1.4 10.5 4.4 39.6 13.2 14.4-3 14.7 3.6 2.3.3 6.6 4.7h4.1l4-.3 9.1 4 25.4 5.4 14.7-3.8 4-2.2 3.4-3 8.4-3.9 3.2-1.6 5.7-5.6 4.9-11.9 12.7-16.7 6.1-3.9 5-1 9.1-7 30-13.2 8.8-6.8 15.1-30.9 8.6-18.8.5-2.4 1-1.8 4.3-3.7 1.9-7 12.3-13.5 10.8-7 6-9.7 3-14.2-2.3-13.5-6.8-13.3-8-7.5-9-15-3.6-26.6-7.9-13.9v-17.1l-2.6-11.7.6-4.4-.3-.7.4-2.4.9-1.1-.9-.6-.3-1.4-.5-5.4 2.2-6.7-10.8-28.9-1.2-1.7-.5-1.5-6.9-6.9-.7-.5-2-2.3-2.2-6.7-7.7-7-26.9 7.2h-1l-1.4.6-1.6.5-11.4 6.1-.7.2-.1.3-.3.2-.2-.1v.2l-10.4 5.6-1.6 1.8-.2.6-.2 1-.3 2.3-.2.2.3.2v2l-.3 2.7v3.3l-1.5 6.4-.7 2.5.8 3" class="cable back"/><path stroke="#ff7a1a" d="m443.1 572.8.6 1.7 3 12.9.6 4v1.4l.6 1.3 10.8 44.4h.2l-.2.4 4.6 18.7.4 2.5.3.6.3.2 2 .6 4.2 1.6 2.1.6 3.7 1.6 6.7 2.5.7-.1 10.4 3.9h.4l5.2 1.9.8.3 3 1.7 3.7 1.4 3.2.9 2.2 1.1 25.6 9.7 7.7 3.6 7.4 3.7L567 702l13.3-.7 11.6 3.9 3.8 6.3 4.1 2 5.2 5.8 6.5 1.4 10.5 4.4 39.6 13.2 14.4-3 14.7 3.6 2.3.3 6.6 4.7h4.1l4-.3 9.1 4 25.4 5.4 14.7-3.8 4-2.2 3.4-3 8.4-3.9 3.2-1.6 5.7-5.6 4.9-11.9 12.7-16.7 6.1-3.9 5-1 9.1-7 30-13.2 8.8-6.8 15.1-30.9 8.6-18.8.5-2.4 1-1.8 4.3-3.7 1.9-7 12.3-13.5 10.8-7 6-9.7 3-14.2-2.3-13.5-6.8-13.3-8-7.5-9-15-3.6-26.6-7.9-13.9v-17.1l-2.6-11.7.6-4.4-.3-.7.4-2.4.9-1.1-.9-.6-.3-1.4-.5-5.4 2.2-6.7-10.8-28.9-1.2-1.7-.5-1.5-6.9-6.9-.7-.5-2-2.3-2.2-6.7-7.7-7-26.9 7.2h-1l-1.4.6-1.6.5-11.4 6.1-.7.2-.1.3-.3.2-.2-.1v.2l-10.4 5.6-1.6 1.8-.2.6-.2 1-.3 2.3-.2.2.3.2v2l-.3 2.7v3.3l-1.5 6.4-.7 2.5.8 3" class="cable"/><path d="m1097.3 373 .5.5 1.3 6.4.2 1.8v1.6l.3 1 .2.5.4.5.5.6.7.6 1.6 1.2.3.3.3.4.3.7v2.4l-.2.6-.8 2-1 2.1-.2.5-1.9 2.2-.3.8-.1.6v2.6l.3 1 .5 1.6 4.4 9 3.4 8 9.5 21.5.4 2 .3 6.7.8 4.7v1.7l-.2.5-.3.8-2.6 4-6.1 10.7-.4.8-.2.7-.2 1-.2 2.5-.1 2.8-.4 4-.3 1.2-.2.7-.4.8-.7 1-3.3 4-1.4 1.9-.6 1-.4.8-.3.8-.2.8-.1 1-.2 7.5-.2 1.1-1.2 4.2-.2 1v1.4l.8 6.4 1.6 13.4-.3 6.9.2 9.4v.8l-.1 1.2-.3 1.1-.3 1.1-.5 1.2-.6 1.2-.8 1.4-1.1 1.5-2 2.5-5.5 6.4-.7 1-.7 1-.5 1-.4 1.1-.3 1.1-.3 1.5-.5 5.3-.1 1.2-.3 1-.3.8-.6 1-1 1.5-4.2 5.8-13.6 18.6-5.5 8-6.4 9.4-6 8-1.5 1.7-1.3 1.4-2 1.9-1.7 1.2-1 .8-5.8 3-8.6 5-7.8 4.4-1.2.8-3.4 2.3-6.2 4.5-2 1.4-1.5 1.5-.7.8-.7 1-.5 1-.4 1.1-.3 1.4-.2 1.5-.4 5.3-.9 8.8-.4 8.3-.3 2.7-.3 1.6-2.3 7.4-.6 2.2-1.5 8.6-.4 1.3-.4 1-1.7 3-.7 1.4-2.6 6.1-1.2 3-1 2.9-1.1 3.5L979 765l-.9 2.6-1.4 3.9-1.1 2.6-1 1.9-1.5 2.5-.9 1.3-1 1.2-1.4 1.5-5.8 5.6-4.5 4.5-39 39.2-1.8 1.6-1.2 1-1.6 1.2-1.6 1-1.5.8-1.8.8-2 .8-2.9 1-2.7.8-2.4.6-6.1 1-1.5.4-1.1.3-1.7.7-8 3.7-2.2 1-1 .4-1.2.9-.8.8-1 1.1-11.8 15-1.5 1.7-1.8 1.9-3 2.9-5.8 5.3-1 .8-1.5.9-1.4.6-2 .7-5.9 1.9-20 6.7-3.4.9-3 .5-1 .2-.7.3-1.5.7-2.7 1.2-5.9 2.6-.6.1-2.2.1h-1.5l-.6-.3-2.8-1.4-8.5-4-6-2.2-6.8-1-8.4-2.2-9.9-1.8-6.3-1.3-1.5-.4-1.1-.4-.7-.4-.4-.3-3.8-3.6-.8-1-.9-1.1-2.7-4.8-.6-1-.7-.8-.8-.8-1.4-1.2-7.9-6-1-.7-1.2-.6-1-.3-1.6-.3-4.2-.1-1.2-.2-1.8-.2-4.6-1-4.3-.6-4.6-.4-2.6-.3h-2.2l-1.5.4-1.5.5-13 5.3-63.2 29.8-8.7 7.8-21.4 21.6-16.2 10.3-15.8 5.7-51 3.6-29.5-4.5-21.6 6.6-4.8 3-4 2-4.5.7-7-1L415 944l-8.3 1" class="cable back"/><path stroke="#ff7a1a" d="m1097.3 373 .5.5 1.3 6.4.2 1.8v1.6l.3 1 .2.5.4.5.5.6.7.6 1.6 1.2.3.3.3.4.3.7v2.4l-.2.6-.8 2-1 2.1-.2.5-1.9 2.2-.3.8-.1.6v2.6l.3 1 .5 1.6 4.4 9 3.4 8 9.5 21.5.4 2 .3 6.7.8 4.7v1.7l-.2.5-.3.8-2.6 4-6.1 10.7-.4.8-.2.7-.2 1-.2 2.5-.1 2.8-.4 4-.3 1.2-.2.7-.4.8-.7 1-3.3 4-1.4 1.9-.6 1-.4.8-.3.8-.2.8-.1 1-.2 7.5-.2 1.1-1.2 4.2-.2 1v1.4l.8 6.4 1.6 13.4-.3 6.9.2 9.4v.8l-.1 1.2-.3 1.1-.3 1.1-.5 1.2-.6 1.2-.8 1.4-1.1 1.5-2 2.5-5.5 6.4-.7 1-.7 1-.5 1-.4 1.1-.3 1.1-.3 1.5-.5 5.3-.1 1.2-.3 1-.3.8-.6 1-1 1.5-4.2 5.8-13.6 18.6-5.5 8-6.4 9.4-6 8-1.5 1.7-1.3 1.4-2 1.9-1.7 1.2-1 .8-5.8 3-8.6 5-7.8 4.4-1.2.8-3.4 2.3-6.2 4.5-2 1.4-1.5 1.5-.7.8-.7 1-.5 1-.4 1.1-.3 1.4-.2 1.5-.4 5.3-.9 8.8-.4 8.3-.3 2.7-.3 1.6-2.3 7.4-.6 2.2-1.5 8.6-.4 1.3-.4 1-1.7 3-.7 1.4-2.6 6.1-1.2 3-1 2.9-1.1 3.5L979 765l-.9 2.6-1.4 3.9-1.1 2.6-1 1.9-1.5 2.5-.9 1.3-1 1.2-1.4 1.5-5.8 5.6-4.5 4.5-39 39.2-1.8 1.6-1.2 1-1.6 1.2-1.6 1-1.5.8-1.8.8-2 .8-2.9 1-2.7.8-2.4.6-6.1 1-1.5.4-1.1.3-1.7.7-8 3.7-2.2 1-1 .4-1.2.9-.8.8-1 1.1-11.8 15-1.5 1.7-1.8 1.9-3 2.9-5.8 5.3-1 .8-1.5.9-1.4.6-2 .7-5.9 1.9-20 6.7-3.4.9-3 .5-1 .2-.7.3-1.5.7-2.7 1.2-5.9 2.6-.6.1-2.2.1h-1.5l-.6-.3-2.8-1.4-8.5-4-6-2.2-6.8-1-8.4-2.2-9.9-1.8-6.3-1.3-1.5-.4-1.1-.4-.7-.4-.4-.3-3.8-3.6-.8-1-.9-1.1-2.7-4.8-.6-1-.7-.8-.8-.8-1.4-1.2-7.9-6-1-.7-1.2-.6-1-.3-1.6-.3-4.2-.1-1.2-.2-1.8-.2-4.6-1-4.3-.6-4.6-.4-2.6-.3h-2.2l-1.5.4-1.5.5-13 5.3-63.2 29.8-8.7 7.8-21.4 21.6-16.2 10.3-15.8 5.7-51 3.6-29.5-4.5-21.6 6.6-4.8 3-4 2-4.5.7-7-1L415 944l-8.3 1" class="cable"/><path d="m824.5 440.7.6-.1.8-.4.5-.5.6-.4 5.1-2 1.4-.7.6-.1.6-.2.5-.3 1.8-.5h1.2l.3-.1.3-.5.7-1.8.4-.8.3-.7.2-.2.3-.2 1.4-.4 7.1-4.5 2-1.1.7-.2.5-.4 1-.1 1 .1.4.3 1.3.9 2 1.6.3.2 4 1.2 1.5.2h1.6l.9-.1.7-.3 1.8-1.3 2.8-1.8.4-.1 4.3-.5h1.1l8.6 2.5 1.5.7.7.3.4.4 1.4 1.7 2.5 2.4.4.5.4.6 1.4 3.3.4.3 3.5 2.9 1.4 1.3.6.4.6.2 1.7.4 17.3 3 1 .2 1.5.4 1.5.6 3.8 1.9 1.6.7 1.7.5 3 .7 2.5.4 8.2 1 14 1.7h2l1.9-.2 2-.3 1.3-.3 2-.8 12.4-6.5 8.5-4.8 1.5-.6 1-.3 2-.5.9-.3.9-.4.5-.5.3-.4.3-.6.3-.7.3-1.1.1-1.3.2-5 .1-.4.3-.4.4-.6.6-.4.8-.5 8.7-4.2 23.4-11.8 1-.6 1-.8.3-.5.3-.6.3-.9.5-2 .3-.9.4-.8.4-.6.5-.5.5-.4.9-.6 1-.6 2.6-1 27.1-10.3 1.2-.6.8-.4.7-.5.6-.6.3-.7.5-1.4.3-1.5.4-.9.7-1.1.6-.7 1-.7.8-.4 1-.3.8-.2 1.3-.1 2.7-.1.9-.2.6-.2.5-.3.6-.5 1.5-1.6.8-.6 2.3-1.8 3.4-2.6 1-.4h.5l2.6 1.4" class="cable back"/><path stroke="#ff7a1a" d="m824.5 440.7.6-.1.8-.4.5-.5.6-.4 5.1-2 1.4-.7.6-.1.6-.2.5-.3 1.8-.5h1.2l.3-.1.3-.5.7-1.8.4-.8.3-.7.2-.2.3-.2 1.4-.4 7.1-4.5 2-1.1.7-.2.5-.4 1-.1 1 .1.4.3 1.3.9 2 1.6.3.2 4 1.2 1.5.2h1.6l.9-.1.7-.3 1.8-1.3 2.8-1.8.4-.1 4.3-.5h1.1l8.6 2.5 1.5.7.7.3.4.4 1.4 1.7 2.5 2.4.4.5.4.6 1.4 3.3.4.3 3.5 2.9 1.4 1.3.6.4.6.2 1.7.4 17.3 3 1 .2 1.5.4 1.5.6 3.8 1.9 1.6.7 1.7.5 3 .7 2.5.4 8.2 1 14 1.7h2l1.9-.2 2-.3 1.3-.3 2-.8 12.4-6.5 8.5-4.8 1.5-.6 1-.3 2-.5.9-.3.9-.4.5-.5.3-.4.3-.6.3-.7.3-1.1.1-1.3.2-5 .1-.4.3-.4.4-.6.6-.4.8-.5 8.7-4.2 23.4-11.8 1-.6 1-.8.3-.5.3-.6.3-.9.5-2 .3-.9.4-.8.4-.6.5-.5.5-.4.9-.6 1-.6 2.6-1 27.1-10.3 1.2-.6.8-.4.7-.5.6-.6.3-.7.5-1.4.3-1.5.4-.9.7-1.1.6-.7 1-.7.8-.4 1-.3.8-.2 1.3-.1 2.7-.1.9-.2.6-.2.5-.3.6-.5 1.5-1.6.8-.6 2.3-1.8 3.4-2.6 1-.4h.5l2.6 1.4" class="cable"/><path d="M265 647.8v.5h-.6l-.2.2-.4.6v.4l.1.2.2.5v1.7l.1.4.4.4.8.9.5.9.2.2h6.9l.8-.3 1.3-1.5 1.1-.4 3.5-.5.7.3 1.9-.1 1.8-.6 1-2 .3-.2 50.9 2.8.5.2.3.3 2 4.4 1 2 .6 1.3 3.6 7.5v1l2 3.6 12.5 15 16.2 8.2 8 7.3.4 2.8-.4 2.8V723l.7 1.7-.8 2.4-.7 1.7-.5.6v5.5l3.8 9 1.3 1.4.9 1.7.9.8 2 1 1.5.4 5.2 3.2.4.7.4 2.6.2.6.1 1.3v.6l.6 4.4.4 1.9.8 5.6 1.5 5.1 3 10.8-.6 3.7-4.5 8.2v3.5l4.7 9.3 12 52-.2 6.3-.7 1.8-2 2.7-1.5 5.1-2.7 48-1.6 7.8 1 4.3-1.8 6.4" class="cable back"/><path stroke="#ff7a1a" d="M265 647.8v.5h-.6l-.2.2-.4.6v.4l.1.2.2.5v1.7l.1.4.4.4.8.9.5.9.2.2h6.9l.8-.3 1.3-1.5 1.1-.4 3.5-.5.7.3 1.9-.1 1.8-.6 1-2 .3-.2 50.9 2.8.5.2.3.3 2 4.4 1 2 .6 1.3 3.6 7.5v1l2 3.6 12.5 15 16.2 8.2 8 7.3.4 2.8-.4 2.8V723l.7 1.7-.8 2.4-.7 1.7-.5.6v5.5l3.8 9 1.3 1.4.9 1.7.9.8 2 1 1.5.4 5.2 3.2.4.7.4 2.6.2.6.1 1.3v.6l.6 4.4.4 1.9.8 5.6 1.5 5.1 3 10.8-.6 3.7-4.5 8.2v3.5l4.7 9.3 12 52-.2 6.3-.7 1.8-2 2.7-1.5 5.1-2.7 48-1.6 7.8 1 4.3-1.8 6.4" class="cable"/><path d="m1991.6-240-1.9-1h-.2l-1 .4h-3.5l-1 .4-2.3 1.5-3.8 2.3-5.5 3.2-25.9 15.2-1 .8-1 .8-.8.8-3 3.5-2.6 3-2 2-1.9 1.8-1.8 1.5-2 1.5-1.5 1-1.3.7-.8.4-1 .3-1.8.4-6.6 1.2-11 2.3-19.3 3.7-21.6 4.6-1.7.4-.9.4-1.3.8-.7.7-.7.7-.5.9-.5.9-.4 1-.5 1.4-1.2 4.8-.6 2-.5 1.5-.6 1.2-.7 1.2-.5.6-.9 1-8.7 8.3-1.6 1.4-1.2 1-1 .6-1.2.5-1.4.4-1.7.3-7.7 1-1.7.2-1.1.3-.9.4-1.8 1-11.1 6-1.3.6-1 .3-1 .3h-2.9l-1-.3-1-.3-1-.6-1.2-.8-12-9-1.4-1-1.3-.6-1.3-.5-.9-.2h-2.2l-1.2.2-1.5.4-1.6.7-2.4 1-5.3 2.6-5.4 2.3-3.6 1.4-14.8 5.3-2.2.9-1.4.6-1 .6-.7.6-.5.6-.4.6-.3.7-.2.8-.1 1v1.5l.5 8.2v2.2l-.1 1.5-.2 1.3-.4 1.3-.4.8-.5.8-.7.8-.8.7-1 .6-2 1-4.7.8-9 5.5-7.3 4-25.6 15-5.5 3.6-2.7 1.4-3.5-.1-10-5.5h-3.3l-5 3-2.9.8-10.7-1.2-10.4 4.5-2.5 3.2-5 8.1-1.7 1.3-32 11.4-15.4.9-15.8-4.6-23.4-1.9-5.4-.2h-1.3l-.8.2h-.4l-.5-.3-1-1-.9-1.5-1.2-1.6-1.3-.7-5.3-1-6 .6-1.6.2-.4.2-3.3 2-.5.8-1 3.5-.5.5-1 .8-2.4 1-.5.4-.5.1-.4.1-5.6 2.4-1.1.3-5 2.3-.5.5-1.7 1.1-8.7 6.5-13.1 7-6.5 1.9-1.2.5-1.3.3-.7.1-1.1.4h-.6l-.6.3-.8.3-2.4.8-4.6 1-2.7.3-4.3 1.6-1.3.6-1.5.7-3.8 3.3-11.4 7.1-4.2 5.4-.3.4-.2.1-3 .8h-.2l-5.2-1.1h-7.9l-16.7-2.6-21.3-8.8-.6-.2h-.3l-13.1 1.6h-1l-4.8-1-1-.4-5-4.3-.6-.4-7-2.7-4.6-.6-.9-.1-3.3-1.8-12.3-7.9-.7-.3" class="cable back"/><path stroke="#ff7a1a" d="m1991.6-240-1.9-1h-.2l-1 .4h-3.5l-1 .4-2.3 1.5-3.8 2.3-5.5 3.2-25.9 15.2-1 .8-1 .8-.8.8-3 3.5-2.6 3-2 2-1.9 1.8-1.8 1.5-2 1.5-1.5 1-1.3.7-.8.4-1 .3-1.8.4-6.6 1.2-11 2.3-19.3 3.7-21.6 4.6-1.7.4-.9.4-1.3.8-.7.7-.7.7-.5.9-.5.9-.4 1-.5 1.4-1.2 4.8-.6 2-.5 1.5-.6 1.2-.7 1.2-.5.6-.9 1-8.7 8.3-1.6 1.4-1.2 1-1 .6-1.2.5-1.4.4-1.7.3-7.7 1-1.7.2-1.1.3-.9.4-1.8 1-11.1 6-1.3.6-1 .3-1 .3h-2.9l-1-.3-1-.3-1-.6-1.2-.8-12-9-1.4-1-1.3-.6-1.3-.5-.9-.2h-2.2l-1.2.2-1.5.4-1.6.7-2.4 1-5.3 2.6-5.4 2.3-3.6 1.4-14.8 5.3-2.2.9-1.4.6-1 .6-.7.6-.5.6-.4.6-.3.7-.2.8-.1 1v1.5l.5 8.2v2.2l-.1 1.5-.2 1.3-.4 1.3-.4.8-.5.8-.7.8-.8.7-1 .6-2 1-4.7.8-9 5.5-7.3 4-25.6 15-5.5 3.6-2.7 1.4-3.5-.1-10-5.5h-3.3l-5 3-2.9.8-10.7-1.2-10.4 4.5-2.5 3.2-5 8.1-1.7 1.3-32 11.4-15.4.9-15.8-4.6-23.4-1.9-5.4-.2h-1.3l-.8.2h-.4l-.5-.3-1-1-.9-1.5-1.2-1.6-1.3-.7-5.3-1-6 .6-1.6.2-.4.2-3.3 2-.5.8-1 3.5-.5.5-1 .8-2.4 1-.5.4-.5.1-.4.1-5.6 2.4-1.1.3-5 2.3-.5.5-1.7 1.1-8.7 6.5-13.1 7-6.5 1.9-1.2.5-1.3.3-.7.1-1.1.4h-.6l-.6.3-.8.3-2.4.8-4.6 1-2.7.3-4.3 1.6-1.3.6-1.5.7-3.8 3.3-11.4 7.1-4.2 5.4-.3.4-.2.1-3 .8h-.2l-5.2-1.1h-7.9l-16.7-2.6-21.3-8.8-.6-.2h-.3l-13.1 1.6h-1l-4.8-1-1-.4-5-4.3-.6-.4-7-2.7-4.6-.6-.9-.1-3.3-1.8-12.3-7.9-.7-.3" class="cable"/><path d="m1307.2-48.2-.7-.1h-.4l-3.6 5-.6 2.3-.9 6.2-1 3.8-.1.7v1.1l.2.3.8 1.5.2.2 6.5 3.7.7.6.5.4.3.4 2.7 5 .2.5v.7l-.4 6.8 1.6 13.4v.3l1.2 3 .3.4 2.6 2 1.9 2.2v.4" class="cable back"/><path stroke="#ff7a1a" d="m1307.2-48.2-.7-.1h-.4l-3.6 5-.6 2.3-.9 6.2-1 3.8-.1.7v1.1l.2.3.8 1.5.2.2 6.5 3.7.7.6.5.4.3.4 2.7 5 .2.5v.7l-.4 6.8 1.6 13.4v.3l1.2 3 .3.4 2.6 2 1.9 2.2v.4" class="cable"/><path d="m1319.3 12.6.5 3.5v.6l-.3.8-.5 1-1.6 2.6-1.8 1.6-.9 1-.4.6-.3.8-.1 1-.6 7.4-.3 2.6-1 2.8-.8 1.2-.7.7-1.8 1.5-1.7 1.8-.8.9-2.3 3.3-.4.6-.2.8-.7 3.7-.1 2.1v.9l.5 2.4.6 1.7.1.6v.8l-.2 1.9-.2.7-.3.7-13.3 19.7-6.2 7.8-.3.5-.1.4v2.1l-.4.8-.5.8-5.8 7.2-2.7 4L1256 137l-5.9 5.1-12 13.2-.9 1-.2.7-.5 1.5-1 2.3-.5 1.7-2.3 5.7-.4 1.8v.8" class="cable back"/><path stroke="#ff7a1a" d="m1319.3 12.6.5 3.5v.6l-.3.8-.5 1-1.6 2.6-1.8 1.6-.9 1-.4.6-.3.8-.1 1-.6 7.4-.3 2.6-1 2.8-.8 1.2-.7.7-1.8 1.5-1.7 1.8-.8.9-2.3 3.3-.4.6-.2.8-.7 3.7-.1 2.1v.9l.5 2.4.6 1.7.1.6v.8l-.2 1.9-.2.7-.3.7-13.3 19.7-6.2 7.8-.3.5-.1.4v2.1l-.4.8-.5.8-5.8 7.2-2.7 4L1256 137l-5.9 5.1-12 13.2-.9 1-.2.7-.5 1.5-1 2.3-.5 1.7-2.3 5.7-.4 1.8v.8" class="cable"/><path d="m1232.3 170.7-1.2 3.8-1.1 3.2-3.7 9-.8 1.4-6.2 11.1-1 2-.5.7-.6.7-1 .7-.6.4-.7.2-.7.2h-2.9l-.7.2-.6.2-1.1.7-5 1.8-1.2.7-.7.6-1 .8-1.1 1.5-4 5.3-.7 1.2-.7 1.4-.7 1.4-.6 1.3-.4 1-.5 1.8-.7 3.3-.2 1.5v1.6l.4 5.5.7 3.7 2.5 10.5.3 1.3v2.3l-.2 1.3-.3 1.3-.3.7-.3.6-1 1.2-4.5 4.3-5.3 6.2-1.4 1.7-1.6 1.7-1 1.4-1.2 1.6-.7 1.4-1.9 5-.6 1.2-.6.6-.7.7-1.3.7-1.1.5-1 .3-1 .2h-1.5l-1.5.3-1.6.3-1.2.3-.7.3-1 .6-4.3 2.7-.9.7-.6.7-.5.7-.3.6v.6l-.2 1.4-.2.9-.5 1-2.7 5-1 1.2-1 1.1-3.4 3.2-1 1.1-1.4 2-.5.5-.6.5-1 .6-3.8 2.1-.7.6-.7.5-.7.6-.6.7-1 1.4-2.7 4.3-2.4 3.6-9 13.7-1.3 2.3-1 1.2-3 2.3-16.8 12-.7.6-.5.6-.4.5-.3.7-.2.5-.2 1v1l.3 3.9.1 2.9.1.2.3.5.8 2.7" class="cable back"/><path stroke="#ff7a1a" d="m1232.3 170.7-1.2 3.8-1.1 3.2-3.7 9-.8 1.4-6.2 11.1-1 2-.5.7-.6.7-1 .7-.6.4-.7.2-.7.2h-2.9l-.7.2-.6.2-1.1.7-5 1.8-1.2.7-.7.6-1 .8-1.1 1.5-4 5.3-.7 1.2-.7 1.4-.7 1.4-.6 1.3-.4 1-.5 1.8-.7 3.3-.2 1.5v1.6l.4 5.5.7 3.7 2.5 10.5.3 1.3v2.3l-.2 1.3-.3 1.3-.3.7-.3.6-1 1.2-4.5 4.3-5.3 6.2-1.4 1.7-1.6 1.7-1 1.4-1.2 1.6-.7 1.4-1.9 5-.6 1.2-.6.6-.7.7-1.3.7-1.1.5-1 .3-1 .2h-1.5l-1.5.3-1.6.3-1.2.3-.7.3-1 .6-4.3 2.7-.9.7-.6.7-.5.7-.3.6v.6l-.2 1.4-.2.9-.5 1-2.7 5-1 1.2-1 1.1-3.4 3.2-1 1.1-1.4 2-.5.5-.6.5-1 .6-3.8 2.1-.7.6-.7.5-.7.6-.6.7-1 1.4-2.7 4.3-2.4 3.6-9 13.7-1.3 2.3-1 1.2-3 2.3-16.8 12-.7.6-.5.6-.4.5-.3.7-.2.5-.2 1v1l.3 3.9.1 2.9.1.2.3.5.8 2.7" class="cable"/><path d="m408.2 943.8-28.5 38.7-85 84.8-28.2 16-15.2 3.2-50.4 28.2-16.5 17-5.6 19.1-11.8 7.5-18.2 11.4-35 18.4-46.1 33.3-8 10.4" class="cable back"/><path stroke="#ff7a1a" d="m408.2 943.8-28.5 38.7-85 84.8-28.2 16-15.2 3.2-50.4 28.2-16.5 17-5.6 19.1-11.8 7.5-18.2 11.4-35 18.4-46.1 33.3-8 10.4" class="cable"/><path d="m824.5 440.9.7.2.8.2.5-.2h.4l.3.2.4.2 1.5 2 .6 1.1 1.5 2 2 2.8.6.5 2.4 1.2 5.6 2.7.9.3 2.7.2.6.2 1.3.6 1.8 1.1 4.3 2.9 1.1.6 1.2.2 4 1.5 10.1 2 5.2 4.6 1 2.6 1.1 2.2 1.8 1.4 1.8.6 2 .3h1.7l1.7.2.6.5.9 1.3.3 1.5 2.4 4.5.8 1.9 5.2 4.9 3 2.7 4.6 3.5 5.7 4.8 2.6 2 5 3.7 12.2 8.2 2.6 1.2.9.2 1.6.1 2.9.4 15.1 2.5 1.2.5 1.6 1.3 17.7 15 10.9 9.3 1.4.9 1.8 1.2 9.4 6 1.6.8 37.6 13.5 1.4.6 32.7 26.3 3.3 3.5 26.8 31.2 5.7 10.6 14.5 25.8.5.9 3.6 3.1 12.4 11.2 2.1 1.2 2.2.9 17 7.4 6.7 3.6 1.8 1.2 1.3 1.7 1 1.6" class="cable back"/><path stroke="#ff7a1a" d="m824.5 440.9.7.2.8.2.5-.2h.4l.3.2.4.2 1.5 2 .6 1.1 1.5 2 2 2.8.6.5 2.4 1.2 5.6 2.7.9.3 2.7.2.6.2 1.3.6 1.8 1.1 4.3 2.9 1.1.6 1.2.2 4 1.5 10.1 2 5.2 4.6 1 2.6 1.1 2.2 1.8 1.4 1.8.6 2 .3h1.7l1.7.2.6.5.9 1.3.3 1.5 2.4 4.5.8 1.9 5.2 4.9 3 2.7 4.6 3.5 5.7 4.8 2.6 2 5 3.7 12.2 8.2 2.6 1.2.9.2 1.6.1 2.9.4 15.1 2.5 1.2.5 1.6 1.3 17.7 15 10.9 9.3 1.4.9 1.8 1.2 9.4 6 1.6.8 37.6 13.5 1.4.6 32.7 26.3 3.3 3.5 26.8 31.2 5.7 10.6 14.5 25.8.5.9 3.6 3.1 12.4 11.2 2.1 1.2 2.2.9 17 7.4 6.7 3.6 1.8 1.2 1.3 1.7 1 1.6" class="cable"/><path d="m2168.5-426-3.9 38.4-4.6 18.2 2 10.8.7 10.4.4 7.8 1.9 4.6 2.7 5.4 9.3 4.3 8.9 15 3.5 7 3.5 8.6 3.4 12.3v8.6l-.1 10.3v4l.8 4 1.6 3 .8 2.2 1.7 2 1.9 4 1.3 4.3.6 6 4.6 4.6L2220-214v4.9l-1.6 6-1.6 4.5v4.4l-.8 3.5-.6 5.7-.3 4-3.5 10.3-.5 7.8-.3 7.4v7.8l.5 8.7-1 5.4-2 3.5-2 3.8-.6 7.3v14.3l.2 2v3l.8 2.4v4.7l-5.7 20.3-1 3.2-4.2 4.2-8.4 7.2-3 4-4.7 4.9-5.2 4-4.2 4.4-5.2 5.2-4.2 3.5-5.4 4.7-9 12.6-1.2 4.7-3.5 8.9-1.2 7.9.5 9.4 1.8 3.8 1.6 2.4.7 4.2v4.5l-.2 4.3-1.2 2.8-1.2 4-6.8 9.2-2.1 4.5-2.4 2.4-4.5 7.5-1.9 5.2-.2 5.9v5.4l-2.1 12.5-1.2 3.4-3.6 4.7-6.3 8.2-4.3 6.9-1.9 5.4-6.8 8.3-7.3 6.3-7.8 4.8-5.3 1-3.2 3-3.6 1.3-3.3 1.4-3 2.1-2.7 3.1-2.7 2.7-3.8 3.7-4.9 5.7-4 5.4-4.7 5.8-3 2.7-4.4 5.2-3.6 3.7-3.2 6.4-2.7 6.6-2.5 5.8-.8 5.8-6.4 9.5-4.2 5.3-4.9 5.2-8.5 8.7-8.1 7.6-12.8 13.1-9.7 11.7-5 2.5-10.1 11.2-5.7 4.7-10.7 8.5-9.9 6.1-6.5 4-6.7 4.8-8.3 8.5-15.4 11.8-6.9 6.3-7 6.3-12.5 8.9-9.7 5.7-9.2 6.5-4.5 4.8-17 4.5-12.2 1.4-12 2.5-16.7 6.9-9.2 6-13 4.4-10.1 1-14.7.6-10.6 5.2-10.4 5.2-10.5 6-10.7 5.9-7.2 4.6-10.8 10.3-10.7 7.5-7.6 4.7-11.8 4.6-18 7.7-16.3 9-10.8 6.7-13.1 3.1-11.1 2.3-14.7 4.1-13.1 6-12.2 10.3-10.5 6.3-16.2 9.1-12 6-11.4 5.3-15.5 6-15.4 5.3-20.4 6.4-11.3 4.2-23 7.5-9.8 3.6-11.6 5-8.3 4.6-5.9 3-6.8 3-7.5 5.4-3.7 4.4-7.1 8.4-5.2 5.6-6.8 4.1-6.8 5.3-11 8-13.4 7.9-4.6 5.2-11.3 11.2-4.8 4.5-5.4 4.3-12.3 2.3-15.9 13.8-10.3 10.6-6 6-4 3.8-3.5 4.1-3 1.9-3.5.7h-5.8l-6.5-.7-6.3-1.7-7.3-3-5.4-.6-5.1.4-5.5 4.6" class="cable back"/><path stroke="#ff7a1a" d="m2168.5-426-3.9 38.4-4.6 18.2 2 10.8.7 10.4.4 7.8 1.9 4.6 2.7 5.4 9.3 4.3 8.9 15 3.5 7 3.5 8.6 3.4 12.3v8.6l-.1 10.3v4l.8 4 1.6 3 .8 2.2 1.7 2 1.9 4 1.3 4.3.6 6 4.6 4.6L2220-214v4.9l-1.6 6-1.6 4.5v4.4l-.8 3.5-.6 5.7-.3 4-3.5 10.3-.5 7.8-.3 7.4v7.8l.5 8.7-1 5.4-2 3.5-2 3.8-.6 7.3v14.3l.2 2v3l.8 2.4v4.7l-5.7 20.3-1 3.2-4.2 4.2-8.4 7.2-3 4-4.7 4.9-5.2 4-4.2 4.4-5.2 5.2-4.2 3.5-5.4 4.7-9 12.6-1.2 4.7-3.5 8.9-1.2 7.9.5 9.4 1.8 3.8 1.6 2.4.7 4.2v4.5l-.2 4.3-1.2 2.8-1.2 4-6.8 9.2-2.1 4.5-2.4 2.4-4.5 7.5-1.9 5.2-.2 5.9v5.4l-2.1 12.5-1.2 3.4-3.6 4.7-6.3 8.2-4.3 6.9-1.9 5.4-6.8 8.3-7.3 6.3-7.8 4.8-5.3 1-3.2 3-3.6 1.3-3.3 1.4-3 2.1-2.7 3.1-2.7 2.7-3.8 3.7-4.9 5.7-4 5.4-4.7 5.8-3 2.7-4.4 5.2-3.6 3.7-3.2 6.4-2.7 6.6-2.5 5.8-.8 5.8-6.4 9.5-4.2 5.3-4.9 5.2-8.5 8.7-8.1 7.6-12.8 13.1-9.7 11.7-5 2.5-10.1 11.2-5.7 4.7-10.7 8.5-9.9 6.1-6.5 4-6.7 4.8-8.3 8.5-15.4 11.8-6.9 6.3-7 6.3-12.5 8.9-9.7 5.7-9.2 6.5-4.5 4.8-17 4.5-12.2 1.4-12 2.5-16.7 6.9-9.2 6-13 4.4-10.1 1-14.7.6-10.6 5.2-10.4 5.2-10.5 6-10.7 5.9-7.2 4.6-10.8 10.3-10.7 7.5-7.6 4.7-11.8 4.6-18 7.7-16.3 9-10.8 6.7-13.1 3.1-11.1 2.3-14.7 4.1-13.1 6-12.2 10.3-10.5 6.3-16.2 9.1-12 6-11.4 5.3-15.5 6-15.4 5.3-20.4 6.4-11.3 4.2-23 7.5-9.8 3.6-11.6 5-8.3 4.6-5.9 3-6.8 3-7.5 5.4-3.7 4.4-7.1 8.4-5.2 5.6-6.8 4.1-6.8 5.3-11 8-13.4 7.9-4.6 5.2-11.3 11.2-4.8 4.5-5.4 4.3-12.3 2.3-15.9 13.8-10.3 10.6-6 6-4 3.8-3.5 4.1-3 1.9-3.5.7h-5.8l-6.5-.7-6.3-1.7-7.3-3-5.4-.6-5.1.4-5.5 4.6" class="cable"/><path d="m1168.7 698.5-2.4 4.3-1.7 8.6-1.9 11-1.5 6.9-.6 8.6-1.5 8-2.9 5.8-1.5 7.3.4 9.9-1 8.8-.4 10.1v15.5l-1.2 8-2 19.2-.4 8.7-.3 11.6-3.8 15-.8 14.2.3 10.3-3.5 19-1.2 10.4-1.6 21.2v18.5l-.4 16.8-1.2 23.6-1.6 17.3-.5 13.2-1.5 14-2.8 17.3-3.3 19.3" class="cable back"/><path stroke="#ff7a1a" d="m1168.7 698.5-2.4 4.3-1.7 8.6-1.9 11-1.5 6.9-.6 8.6-1.5 8-2.9 5.8-1.5 7.3.4 9.9-1 8.8-.4 10.1v15.5l-1.2 8-2 19.2-.4 8.7-.3 11.6-3.8 15-.8 14.2.3 10.3-3.5 19-1.2 10.4-1.6 21.2v18.5l-.4 16.8-1.2 23.6-1.6 17.3-.5 13.2-1.5 14-2.8 17.3-3.3 19.3" class="cable"/><path d="m1128 1080.9 8.7-3 12-5.2 6.2-2.5 11.4-2.9 4.3-.7 9.2-.3 6 .9 6 2.3 7 3.3 7.3 2.7 19.1 7 12.2 5 10.8 4.8 11 5.1 11 5.4 24.6 12.8 14.9 6.6 50 24.8 19.5 9.9 28 13.5 20.5 10.1 33 15.5 15.9 4.9 14.6 5 17.3 6.5 12.7 3 21.7 7 14.3 4 22 5.7 16 4.8 22.5 5.8 26.5 5.3 26.7 5 25.7 5.3 27 4.5 28.8 5 37.4 1.8 38.5 3 28.6 2.9 35.6 3 31.6 3.4 38 4 48.7 4 43.4 4.2 17.4 1.9 23.9 2.2 16.8 1 14.3 3 10.3 4.4 5 5 8.4 9.3 6.9 8 6.9 3.4 11.8-.5 10-2.5 9.8-1.5 7.4-.5 10 .5 10.5 5 14.8 6 9.9 6.6 5.7 5.7 5.4 4 8 5.3 6.8 3.5 16 .1 16.3 1 15.1 1.2 16 1.7 13.8 1.2 9.2 2.6 8.3 1.4 16 .4 11.7-.9 9.3-1 7.3-.6 5-1.3 8.4-.8 10.2.1h35.5l9.9.1 12.3-7.7 1.3-2.9 1-3.7 1-4.5.9-1.8 2.8-2.9 4.6-3 3.4-.1h3.8" class="cable back"/><path stroke="#ff7a1a" d="m1128 1080.9 8.7-3 12-5.2 6.2-2.5 11.4-2.9 4.3-.7 9.2-.3 6 .9 6 2.3 7 3.3 7.3 2.7 19.1 7 12.2 5 10.8 4.8 11 5.1 11 5.4 24.6 12.8 14.9 6.6 50 24.8 19.5 9.9 28 13.5 20.5 10.1 33 15.5 15.9 4.9 14.6 5 17.3 6.5 12.7 3 21.7 7 14.3 4 22 5.7 16 4.8 22.5 5.8 26.5 5.3 26.7 5 25.7 5.3 27 4.5 28.8 5 37.4 1.8 38.5 3 28.6 2.9 35.6 3 31.6 3.4 38 4 48.7 4 43.4 4.2 17.4 1.9 23.9 2.2 16.8 1 14.3 3 10.3 4.4 5 5 8.4 9.3 6.9 8 6.9 3.4 11.8-.5 10-2.5 9.8-1.5 7.4-.5 10 .5 10.5 5 14.8 6 9.9 6.6 5.7 5.7 5.4 4 8 5.3 6.8 3.5 16 .1 16.3 1 15.1 1.2 16 1.7 13.8 1.2 9.2 2.6 8.3 1.4 16 .4 11.7-.9 9.3-1 7.3-.6 5-1.3 8.4-.8 10.2.1h35.5l9.9.1 12.3-7.7 1.3-2.9 1-3.7 1-4.5.9-1.8 2.8-2.9 4.6-3 3.4-.1h3.8" class="cable"/><path d="m260.5 654 2.8 1.1 2-.4.3-.2 1.6-.2 3-.1.7.1 2.6-.4.3-.2 1.4-1.5.6-.4.2-.3.2-.2.3-.1 1.7-.3 3.2-.7h2.2l9.9.3h.2l14.2.4 7.4.5.7-.1 7.9.5 3.7.3 16 1 1.2.2 43.2 2.3h1.3l3.7.1 21 1.2 1 .2 2.3-.1 14 .7 1.1.3 26 1.5.6.2 4.5.1.3.1h.2l11.6.7 1.2-.2 22.5 1.2 18.1 1.2 3.2-.7 19.1-8.4 3-.2 2.1.4 4.8 2.1 1.2.7 2.5 1 3.2 1.4 3.4 2.9 4.8 6.2 7.4 5.2 11.6 5.7 68.3 26.3 12.3-1.7 12.9-9 4.1-1.5" class="cable back"/><path stroke="#ff7a1a" d="m260.5 654 2.8 1.1 2-.4.3-.2 1.6-.2 3-.1.7.1 2.6-.4.3-.2 1.4-1.5.6-.4.2-.3.2-.2.3-.1 1.7-.3 3.2-.7h2.2l9.9.3h.2l14.2.4 7.4.5.7-.1 7.9.5 3.7.3 16 1 1.2.2 43.2 2.3h1.3l3.7.1 21 1.2 1 .2 2.3-.1 14 .7 1.1.3 26 1.5.6.2 4.5.1.3.1h.2l11.6.7 1.2-.2 22.5 1.2 18.1 1.2 3.2-.7 19.1-8.4 3-.2 2.1.4 4.8 2.1 1.2.7 2.5 1 3.2 1.4 3.4 2.9 4.8 6.2 7.4 5.2 11.6 5.7 68.3 26.3 12.3-1.7 12.9-9 4.1-1.5" class="cable"/><path d="m738 651.4-1.9 1-.8.4-1.3-.2-1.4.1-.5.3-1.7.7-1 .3-.8.5-2.7 2.4-3.7 4-2.4 2.2-2.3.9-2 1.3-7.5 3.9-3 1.7-2 2-9.7 7.3-5.5 5.4-5 6.1-1.4 1.5" class="cable back"/><path stroke="#ff7a1a" d="m738 651.4-1.9 1-.8.4-1.3-.2-1.4.1-.5.3-1.7.7-1 .3-.8.5-2.7 2.4-3.7 4-2.4 2.2-2.3.9-2 1.3-7.5 3.9-3 1.7-2 2-9.7 7.3-5.5 5.4-5 6.1-1.4 1.5" class="cable"/><path d="m794 413.2-.7-2.4 1.4-5.6 2.3-7.5 2.3-5.3.7-1 1.3-1.3 3.1-2.7.7-.8 6.7-5.6 1.8-.9 16-6.2 10.3-2.5h2l3.8.8 1.5.6 1.9 1.2 3.3 3.9.9 1.2 8.4 17.4 1.3 2.3 1.5 1.5 2 1.4 1.1 2.5 2.7 12.8 4.8 15 .1 6.1-4.9 11-1.8 10.5-3.5 7.7-6.7 6.6-10.5 33.4-.4 32.4 1.2 27 5.7 13.9v10.2l-.9 14.1 2.3 10.5L860 631l-2.5 10.6 2.3 8-2.3 8.5-1.3 9.6 2.6 4.6-1.5 9.9-1.4 4.4-.8 28.2-.6 5.4-2.7 3.8-4.2 1.9-9.5.9-7.2 1.8-5.7 3.5-4.4 5-8.5 26.3-4.7 4.7-4.2 1.2-4.4 3.4-3 6.2-5.7 6.5-7 2.5-16-1.6-8.1 1.8-8.5 4.6h-10.4l-6.5-3.7-4.3-4.4-3.5-10.4-.7-17.2-13-23.3-10.4-7.2-8.2-9.3-2-5.7-4.8-4-2.7-7.2.5-3.6-.7-2-2.7-1.5" class="cable back"/><path stroke="#ff7a1a" d="m794 413.2-.7-2.4 1.4-5.6 2.3-7.5 2.3-5.3.7-1 1.3-1.3 3.1-2.7.7-.8 6.7-5.6 1.8-.9 16-6.2 10.3-2.5h2l3.8.8 1.5.6 1.9 1.2 3.3 3.9.9 1.2 8.4 17.4 1.3 2.3 1.5 1.5 2 1.4 1.1 2.5 2.7 12.8 4.8 15 .1 6.1-4.9 11-1.8 10.5-3.5 7.7-6.7 6.6-10.5 33.4-.4 32.4 1.2 27 5.7 13.9v10.2l-.9 14.1 2.3 10.5L860 631l-2.5 10.6 2.3 8-2.3 8.5-1.3 9.6 2.6 4.6-1.5 9.9-1.4 4.4-.8 28.2-.6 5.4-2.7 3.8-4.2 1.9-9.5.9-7.2 1.8-5.7 3.5-4.4 5-8.5 26.3-4.7 4.7-4.2 1.2-4.4 3.4-3 6.2-5.7 6.5-7 2.5-16-1.6-8.1 1.8-8.5 4.6h-10.4l-6.5-3.7-4.3-4.4-3.5-10.4-.7-17.2-13-23.3-10.4-7.2-8.2-9.3-2-5.7-4.8-4-2.7-7.2.5-3.6-.7-2-2.7-1.5" class="cable retired"/><path d="m828.4-61.4 1.2.7 7.4.8 7 .2.7-.1 1.4.2.8-.1 25.8.4.7-.1.8.3.2.3 8.3 14.1.6 1.3.6.5h46.9l1.2-.1 1 .2 8 7 1.2 1 2 2.1 2.8 2.2 2.4 2.4 2.6 2.2 5.5 5 1 .8 1.2 1.2 9.8 8.9 1.3 1.3 8.4 7.6 1.4 1 11.8 10.8.7.8 21.9 19.7.7.1 12.7.1h29.4l1.7-.2 1.2.3h.5l1-.3h3l1.2.1h12.3l.6.3.5.7v3.3l.2.7.3.7.7.7 35.2 17.4.5.5.3.4.3.8-.4 2.9-.5 14.1.3 3.2-.7 2.3v.8l.2 2.2-1.7 54-.2.6-.5.8-27.2 25-27.8 25.6-52.1 48.5-39 60.7-1.6 2.3-.3.8v4l-.3 1.5-1.6 2.4-.4 1.5-.4.5-2.8 5.3-.9 1.4-.8 1.9-10.6 12.7-6 4.5h-.6l-13.4 3.4-.5.2-4.8 3.4-17.1 3.4H874l-26 2.4-11 1.6-8.6 3-22.2 12.7-6.2 4.6-1.6 1.7-.7 1.3-.8 5.8.5 4.6.3 1.4.2 2.2-.9 3.6-1.5 8.5v1.2l-1.2 5.1-1.2 3.9v.3l.6 2.2.2.4" class="cable back"/><path stroke="#ff7a1a" d="m828.4-61.4 1.2.7 7.4.8 7 .2.7-.1 1.4.2.8-.1 25.8.4.7-.1.8.3.2.3 8.3 14.1.6 1.3.6.5h46.9l1.2-.1 1 .2 8 7 1.2 1 2 2.1 2.8 2.2 2.4 2.4 2.6 2.2 5.5 5 1 .8 1.2 1.2 9.8 8.9 1.3 1.3 8.4 7.6 1.4 1 11.8 10.8.7.8 21.9 19.7.7.1 12.7.1h29.4l1.7-.2 1.2.3h.5l1-.3h3l1.2.1h12.3l.6.3.5.7v3.3l.2.7.3.7.7.7 35.2 17.4.5.5.3.4.3.8-.4 2.9-.5 14.1.3 3.2-.7 2.3v.8l.2 2.2-1.7 54-.2.6-.5.8-27.2 25-27.8 25.6-52.1 48.5-39 60.7-1.6 2.3-.3.8v4l-.3 1.5-1.6 2.4-.4 1.5-.4.5-2.8 5.3-.9 1.4-.8 1.9-10.6 12.7-6 4.5h-.6l-13.4 3.4-.5.2-4.8 3.4-17.1 3.4H874l-26 2.4-11 1.6-8.6 3-22.2 12.7-6.2 4.6-1.6 1.7-.7 1.3-.8 5.8.5 4.6.3 1.4.2 2.2-.9 3.6-1.5 8.5v1.2l-1.2 5.1-1.2 3.9v.3l.6 2.2.2.4" class="cable"/><path d="m790.2 411 3.3 4.6" class="cable back"/><path stroke="#ff7a1a" d="m790.2 411 3.3 4.6" class="cable"/><path d="m958.4 446.8-26.4-12-26.8-11.4-25.6-33.4-89.4 21" class="cable back"/><path stroke="#ff7a1a" d="m958.4 446.8-26.4-12-26.8-11.4-25.6-33.4-89.4 21" class="cable"/><path d="m1938.5-367.2 14.8 60-.6 10.2-6.3 20.3-9.4 11.4-30.2 13.6-25.4 6.6-7 3.1-6 5.6-31.2 5.7-19 6.1-24 25.5-12.8 12.3-51.7 48.2-58.3 35.2-8.1 1.6-8 4.8-8.5 11.1-20.5 16.1-9.9 4.6-6.4 7.6-17.5 7.3-43 53.6-97.5 146.9-31.5 51.8-44.6 65.1-24.8 59.4-157.7 25.7-40-10.2-35.4 7.7-31.2 22.4-10 15.8-34.6 21.5-43.8 21.8-27 12.8-13 2.9" class="cable back"/><path stroke="#ff7a1a" d="m1938.5-367.2 14.8 60-.6 10.2-6.3 20.3-9.4 11.4-30.2 13.6-25.4 6.6-7 3.1-6 5.6-31.2 5.7-19 6.1-24 25.5-12.8 12.3-51.7 48.2-58.3 35.2-8.1 1.6-8 4.8-8.5 11.1-20.5 16.1-9.9 4.6-6.4 7.6-17.5 7.3-43 53.6-97.5 146.9-31.5 51.8-44.6 65.1-24.8 59.4-157.7 25.7-40-10.2-35.4 7.7-31.2 22.4-10 15.8-34.6 21.5-43.8 21.8-27 12.8-13 2.9" class="cable"/><path d="M912.6 418.4 888 451.1l-1.3 3.2-2.3 20.4-3.9 11.8-1 16.6-.8 1.8-13.9 11.2-.5 3.2-1 27.5-22 39.2-25.1 55.6.7 15.8 2 8.3-1.4 6.5-2.7 3.4-5.5 3.4H803l-8.7 4-9.2 12-2.4 7.4-8 11.8-9.8 11.2-.6 2-2 10.5-4.2 5.8-3 2-11.4 4-34.1-8-39.1-15.1-29-3.7-29.7-12.6-8.8-3.1-31.3-1-31.1-7.4-68.4-28-53.8-11.4-43.3-2.7-91-5.9-7 1-2.5.9-.8 1-3.3.7-3.2.1-1.8-1.4-.1-.4-.7-4.3" class="cable back"/><path stroke="#ff7a1a" d="M912.6 418.4 888 451.1l-1.3 3.2-2.3 20.4-3.9 11.8-1 16.6-.8 1.8-13.9 11.2-.5 3.2-1 27.5-22 39.2-25.1 55.6.7 15.8 2 8.3-1.4 6.5-2.7 3.4-5.5 3.4H803l-8.7 4-9.2 12-2.4 7.4-8 11.8-9.8 11.2-.6 2-2 10.5-4.2 5.8-3 2-11.4 4-34.1-8-39.1-15.1-29-3.7-29.7-12.6-8.8-3.1-31.3-1-31.1-7.4-68.4-28-53.8-11.4-43.3-2.7-91-5.9-7 1-2.5.9-.8 1-3.3.7-3.2.1-1.8-1.4-.1-.4-.7-4.3" class="cable"/><path d="m789.5 410.5-4.5-18 .3-3.3 2.4-4 5.6-5.7 3.8-3.3 38.6-22 9.4-.3 10.4 2.2 7.7 7.1.8 3.3.4 3.2 1 3.3 3.5 4.6 7.8 6.4 7 9.2 8.7 12.2 2 6.6 3.2 3.3h.1l7.4 1.4 7.4 1.8" class="cable back"/><path stroke="#ff7a1a" d="m789.5 410.5-4.5-18 .3-3.3 2.4-4 5.6-5.7 3.8-3.3 38.6-22 9.4-.3 10.4 2.2 7.7 7.1.8 3.3.4 3.2 1 3.3 3.5 4.6 7.8 6.4 7 9.2 8.7 12.2 2 6.6 3.2 3.3h.1l7.4 1.4 7.4 1.8" class="cable"/><path d="m789.5 410.5.7.6 3.3 4.5" class="cable back"/><path stroke="#ff7a1a" d="m789.5 410.5.7.6 3.3 4.5" class="cable"/><path d="m748 1270.1-3.8-4.4-12.1 2.8-14.4 2.3-5.2 2.2-7.7.6-34-17.4-14.7-38-11-67 6.8-22.7 1-99.7-12.7-36.6 63.2-113.9 88.4-42.5 34-103.4 41.9-31.4 4.7-100-12.6-24.3 1-14.8-5.7-60 12.8-53.8 4.9-57.6-19.6-24.6-52.2 15.4-8.7 13.8-.1 18.4" class="cable back"/><path stroke="#ff7a1a" d="m748 1270.1-3.8-4.4-12.1 2.8-14.4 2.3-5.2 2.2-7.7.6-34-17.4-14.7-38-11-67 6.8-22.7 1-99.7-12.7-36.6 63.2-113.9 88.4-42.5 34-103.4 41.9-31.4 4.7-100-12.6-24.3 1-14.8-5.7-60 12.8-53.8 4.9-57.6-19.6-24.6-52.2 15.4-8.7 13.8-.1 18.4" class="cable"/><path d="M792.2 413.6v.5l1.8 1.5h.2" class="cable back"/><path stroke="#ff7a1a" d="M792.2 413.6v.5l1.8 1.5h.2" class="cable"/><path d="m2045-227-51.3 29.3-173 27.8L1604-55.8l-69.5 72.2-10.2 76-17.1 76.7-49 69.2-291 108.6-70 43.6-97.4 39.5-91.2-1L804 391l-2-.7-1.6.5-.7.6-.8 2-2.9 7-3.1 8.6-.2.7.2 1.6" class="cable back"/><path stroke="#ff7a1a" d="m2045-227-51.3 29.3-173 27.8L1604-55.8l-69.5 72.2-10.2 76-17.1 76.7-49 69.2-291 108.6-70 43.6-97.4 39.5-91.2-1L804 391l-2-.7-1.6.5-.7.6-.8 2-2.9 7-3.1 8.6-.2.7.2 1.6" class="cable"/><path d="M824.5 440.6h.2l1.3-1 .8-.7.5-.2h.5l1.4-.8h0l.2-.5 2.8-2 2.4-1.5 3.3-1.6.2-.1.4-.6.6-.5 2.9-1.6.4-.2 4.2-2.4 1.1-.9 2.1-1.2.8-.6 1-.6.6-.2 2-.2.8-.1h.7l.8.4 1.6 1.3 1.1.6 11.1 3.3 4.2.7h.4l.9.5.6.5 1.2 1.2.6 1.5.1.8v5.6l-.5 2.6-1 4.3-.2 3.5.3.8 1.6 2.4.3 1.1.6 1 .8 2.1.2 2.1-.2 3 .3 3v5.7l1.2 4.9.2.6 2.3 3 1.3 3.3.2.7-.1 2.3v.8l.4 3 1.1 2.4.7 2.8-.2 1.3v3l.3 2.7v4.2l.1 1 .2 1 .3 1 .4 1 .5 1.1 1.4 2 1.5 1.6 1.6 1 1.6.8 3.6 1.3 7.4 3 3.2.6h6.4l3.5.1 1 .2 1.4.5 4.5 2 1 .3 4.3 1 .5.3 1.1.8.6.3 1.6.6 1 .3 5 1.1 3.1.8 1.1.2h1.7l1.1-.2 1.8-.5 1.7-1 3.5-2 1.4-.6 2-.7 1.3-.2 1.8-.4 1.5-.2 17.5-1.2 2.2-.2 1.6-.3 4.1-1.3 5.5-2.2 2.7-1.1 3-1.5 6.3-3.4 9.4-4.3 2.7-1.1 1.2-.5 1.8-.5 4.6-1 2-.5 13.8-4.4 4.7-1.5 1.6-.4 14.5-3.6 2.4-.3h2.5l3.2.4 1 .2 1.4.5 3.4 1.6.8.5.7.5 6.6 5.3 5 4.7 3 2.8 2.2-.2" class="cable back"/><path stroke="#ff7a1a" d="M824.5 440.6h.2l1.3-1 .8-.7.5-.2h.5l1.4-.8h0l.2-.5 2.8-2 2.4-1.5 3.3-1.6.2-.1.4-.6.6-.5 2.9-1.6.4-.2 4.2-2.4 1.1-.9 2.1-1.2.8-.6 1-.6.6-.2 2-.2.8-.1h.7l.8.4 1.6 1.3 1.1.6 11.1 3.3 4.2.7h.4l.9.5.6.5 1.2 1.2.6 1.5.1.8v5.6l-.5 2.6-1 4.3-.2 3.5.3.8 1.6 2.4.3 1.1.6 1 .8 2.1.2 2.1-.2 3 .3 3v5.7l1.2 4.9.2.6 2.3 3 1.3 3.3.2.7-.1 2.3v.8l.4 3 1.1 2.4.7 2.8-.2 1.3v3l.3 2.7v4.2l.1 1 .2 1 .3 1 .4 1 .5 1.1 1.4 2 1.5 1.6 1.6 1 1.6.8 3.6 1.3 7.4 3 3.2.6h6.4l3.5.1 1 .2 1.4.5 4.5 2 1 .3 4.3 1 .5.3 1.1.8.6.3 1.6.6 1 .3 5 1.1 3.1.8 1.1.2h1.7l1.1-.2 1.8-.5 1.7-1 3.5-2 1.4-.6 2-.7 1.3-.2 1.8-.4 1.5-.2 17.5-1.2 2.2-.2 1.6-.3 4.1-1.3 5.5-2.2 2.7-1.1 3-1.5 6.3-3.4 9.4-4.3 2.7-1.1 1.2-.5 1.8-.5 4.6-1 2-.5 13.8-4.4 4.7-1.5 1.6-.4 14.5-3.6 2.4-.3h2.5l3.2.4 1 .2 1.4.5 3.4 1.6.8.5.7.5 6.6 5.3 5 4.7 3 2.8 2.2-.2" class="cable"/><path d="M824.5 440.6h.2l1.4-1 .6-.6h.8l1.4-.7 3.6-1.7 2.7-1.1 1.7-.4h.8l.9-.2.7.2.4.2.4.4.9 1.6.7 2 .4 1.4 1.2 4v.7l-.1 1.4-.2.6v.3l.2.3.1.4.2 3v.7l.1.6 1 2 1.9 4.6.3.8.6 2.4.8 1.8.8 1.2.3 1 1.7 2.2v.2l1.7 2.3.4.4 2.4 2.2 1.4 1.7 1 1.4 1.2 1.2 1 1.4 2.3 2.2 1 1.4.7 1.7 1 1.8.1 2.4-.4 3-.4 1.4-.8 1.7-.3 1.2v.5l1.9 6.6 1.5 2.1 2.8 2.5 2.3 2.1 7.7 8 3 2.7 1.7 1.1 10.6 6.1 6.5 3.8 1 .5 6.6 1.3 4.1.8 4.7.7 8.2 3 1.9.4 2 .2 13.2-.2h.9l2.6-.6 5.6-1 20.6-3.7 5.8-.4 13.3-1.7 16-2.7 30-11.6 9-5.5 3.2-1.3h3.8l2.3 1.2 1 .6 5.8 4.2 8.4 6.4 4.5.9 2.4-.4 1-.2 2.3-1.8 2.7-1.4 7.2-3.2" class="cable back"/><path stroke="#ff7a1a" d="M824.5 440.6h.2l1.4-1 .6-.6h.8l1.4-.7 3.6-1.7 2.7-1.1 1.7-.4h.8l.9-.2.7.2.4.2.4.4.9 1.6.7 2 .4 1.4 1.2 4v.7l-.1 1.4-.2.6v.3l.2.3.1.4.2 3v.7l.1.6 1 2 1.9 4.6.3.8.6 2.4.8 1.8.8 1.2.3 1 1.7 2.2v.2l1.7 2.3.4.4 2.4 2.2 1.4 1.7 1 1.4 1.2 1.2 1 1.4 2.3 2.2 1 1.4.7 1.7 1 1.8.1 2.4-.4 3-.4 1.4-.8 1.7-.3 1.2v.5l1.9 6.6 1.5 2.1 2.8 2.5 2.3 2.1 7.7 8 3 2.7 1.7 1.1 10.6 6.1 6.5 3.8 1 .5 6.6 1.3 4.1.8 4.7.7 8.2 3 1.9.4 2 .2 13.2-.2h.9l2.6-.6 5.6-1 20.6-3.7 5.8-.4 13.3-1.7 16-2.7 30-11.6 9-5.5 3.2-1.3h3.8l2.3 1.2 1 .6 5.8 4.2 8.4 6.4 4.5.9 2.4-.4 1-.2 2.3-1.8 2.7-1.4 7.2-3.2" class="cable"/><path d="m239.7 653 .4.6.1.4 9 14 4 6.8.4 1.6 26.4 21.1h48.8l2.5-.2h3.7l6.2.3 1.1.4 17.9 12.2.8.9 2.4 4.3.8.9 26.7 19.2 1.2.6 7.5 1.5 1.2.5 7 4.9 3.7 2.7 2 1.4 1.5.6 1 .7 1 1 12.3 8.5 1.6.5.7.1 13.7 1.2 3.2.2 6.7.9 12.2 1 3.6 1 2.4 1.3 1.7.6 3 1 2.3.6 5.8 2 2.4 2 2.4 1.4 5.3.5 3.5 1.1 3 .5 13.2 1.4.6.1 18.8 4.8 9 3.2 6.7 1.2 1.4.1h10.7l7.1 1.5 11.3 5.8 4.3 1.1 3 .6 10.2.9 12.5 2.4 25.3 4.9 2.7.6 17.5 7.3 10.8 2.9h1.8l6.3-.3.9-.5 5-3.8 14.1-10.2 5.4-3.7 9-4.4 4-1.7 6-1.5 11.8-2.7 13.6-4 3.2-.2 19.2-1 5.6-4.7 4-3 3-.7 2.2-.7 2.2-1.1.6-.4 4.5-3.3 9.6-7.3 1.9-3 10.5-18 11.5-9.8 7.5-1 4.9-3.1 20-6.7 15.2-5.2 3.5-1.9 8.1-4.6 5.3-2.6 9.8-4.8 15.3-4.6 6.1-.8 5.8-.5 7.8-.9 11.1-3.3 3.8-1.2 7.2-3.2 4.8-3 5.5-1.6 8-2.6 7.6-5 9.6-10.6 2.3-2 15.7-13.3 12.7-17.4 9-13.2 14.2-14.6 3-3.6 25-31.4v-.2l4.3-20.8 2.8-5.8 2.2-4.3 3.8-6.8 4.2-7.7 1-1.4.5-.6" class="cable back"/><path stroke="#ff7a1a" d="m239.7 653 .4.6.1.4 9 14 4 6.8.4 1.6 26.4 21.1h48.8l2.5-.2h3.7l6.2.3 1.1.4 17.9 12.2.8.9 2.4 4.3.8.9 26.7 19.2 1.2.6 7.5 1.5 1.2.5 7 4.9 3.7 2.7 2 1.4 1.5.6 1 .7 1 1 12.3 8.5 1.6.5.7.1 13.7 1.2 3.2.2 6.7.9 12.2 1 3.6 1 2.4 1.3 1.7.6 3 1 2.3.6 5.8 2 2.4 2 2.4 1.4 5.3.5 3.5 1.1 3 .5 13.2 1.4.6.1 18.8 4.8 9 3.2 6.7 1.2 1.4.1h10.7l7.1 1.5 11.3 5.8 4.3 1.1 3 .6 10.2.9 12.5 2.4 25.3 4.9 2.7.6 17.5 7.3 10.8 2.9h1.8l6.3-.3.9-.5 5-3.8 14.1-10.2 5.4-3.7 9-4.4 4-1.7 6-1.5 11.8-2.7 13.6-4 3.2-.2 19.2-1 5.6-4.7 4-3 3-.7 2.2-.7 2.2-1.1.6-.4 4.5-3.3 9.6-7.3 1.9-3 10.5-18 11.5-9.8 7.5-1 4.9-3.1 20-6.7 15.2-5.2 3.5-1.9 8.1-4.6 5.3-2.6 9.8-4.8 15.3-4.6 6.1-.8 5.8-.5 7.8-.9 11.1-3.3 3.8-1.2 7.2-3.2 4.8-3 5.5-1.6 8-2.6 7.6-5 9.6-10.6 2.3-2 15.7-13.3 12.7-17.4 9-13.2 14.2-14.6 3-3.6 25-31.4v-.2l4.3-20.8 2.8-5.8 2.2-4.3 3.8-6.8 4.2-7.7 1-1.4.5-.6" class="cable"/><path d="m1095 511.2 3.8-5 7.1-4 8.8-4.7 1.8-.7 28.4-10.6.4-.2 48.5-30 11.6-6.3 1.7-1 26.5-10.6 5.7-4.9 17-18.7 6.3-2.8 4.3-2 11.3-2.8 7.8.7 2.6-.2 2-.9 5.5-1.9 5.3-1.1.9-.1 1.6-.1 10.4 1 3.4-.5 6.6-2 2-1 2.6-2 7.8-10.9 12.2-19 11.8-9.4 3.8-2.7 5.8-4.3 24.7-26.3 16.6-17.3 4-5.3 6.7-9.7 25.1-8.1 4.8-1.6 8-8.3 9.2-8 11.3-6 9.4-8 1.7-1.1 3.5-1.4 16.6.2 7.7-10.1 6.2-5 7.1-14 1.8-13 4.3-6.6 1.6-4.8.8-3 2.1-30v-1.5l-1.6-3.9-1.9-3.5-6-13.7-4.3-10.6 9.8-40.8 7.9-13.5 5-8.2 7.3-23.8 1.8-2.1 4.6-5.4 1.2-1 2.4-1.7 14.6-10.8.5-.4L1601 8l4-12.8 3-3.7 1.4-1.6 9-4.9 2.7-1 11.2.3 4 .3 7.5-4 4.2-2.2 5.8-.5 2.3-.4 14.5-3.9 2.4-1.4 3.2-2.2 34-22.1 29.2-19 5.5-3.6 2.5-1.8 28.4-21.2 8.1-1.2h1.1l4.5 2.2 6.9 3.1 30.2-2.4 34.3 2.5 15.3.7 3.2.2 11.6-1.3 3.4-.2 2.3-1 6.7-3.7 2-1.6 1.2-2.3 2-5.8 2-2 10.7-9.5.4-.4 5.3-4.7 35.7-21.2 6.3-8 27-12.9 3.2-1.6 9.7-10.8 2.4-5.4 2-1.7 4.2-2.5 29.3-16.1 5.5-3.2 7.7-2.2 2.2-1.5 6.2-3.4 16.1-17 9.4-8.5 8.4-7 2.5-2.3 2-3.9 8.7-8.2 4.6-7 1.9-8.3 1.8-5.1 2-6.1 3.4-3.3 1.3-1.1 7.5-4.3h7l15-6 4.7-6 10.7-16.6 2.8-4.6 1.3-2 .9-3.5 7.8-16.7.4-3.4.1-1.3-.4-1.4-1.4-8.3 2.6-10.4.5-4.4.8-3.5 1.6-5.9-.2-1.5-5.7-6.8-.3-.7-1.4-1.3-5-6.6-.4-1.9-.2-.7-1.6-1.8-.4-4.2-.5-1-.6-1.6v-.4l-.5-4.2-3.3-3.6-1.4-.5-2.8-.6h-.2" class="cable back"/><path stroke="#ff7a1a" d="m1095 511.2 3.8-5 7.1-4 8.8-4.7 1.8-.7 28.4-10.6.4-.2 48.5-30 11.6-6.3 1.7-1 26.5-10.6 5.7-4.9 17-18.7 6.3-2.8 4.3-2 11.3-2.8 7.8.7 2.6-.2 2-.9 5.5-1.9 5.3-1.1.9-.1 1.6-.1 10.4 1 3.4-.5 6.6-2 2-1 2.6-2 7.8-10.9 12.2-19 11.8-9.4 3.8-2.7 5.8-4.3 24.7-26.3 16.6-17.3 4-5.3 6.7-9.7 25.1-8.1 4.8-1.6 8-8.3 9.2-8 11.3-6 9.4-8 1.7-1.1 3.5-1.4 16.6.2 7.7-10.1 6.2-5 7.1-14 1.8-13 4.3-6.6 1.6-4.8.8-3 2.1-30v-1.5l-1.6-3.9-1.9-3.5-6-13.7-4.3-10.6 9.8-40.8 7.9-13.5 5-8.2 7.3-23.8 1.8-2.1 4.6-5.4 1.2-1 2.4-1.7 14.6-10.8.5-.4L1601 8l4-12.8 3-3.7 1.4-1.6 9-4.9 2.7-1 11.2.3 4 .3 7.5-4 4.2-2.2 5.8-.5 2.3-.4 14.5-3.9 2.4-1.4 3.2-2.2 34-22.1 29.2-19 5.5-3.6 2.5-1.8 28.4-21.2 8.1-1.2h1.1l4.5 2.2 6.9 3.1 30.2-2.4 34.3 2.5 15.3.7 3.2.2 11.6-1.3 3.4-.2 2.3-1 6.7-3.7 2-1.6 1.2-2.3 2-5.8 2-2 10.7-9.5.4-.4 5.3-4.7 35.7-21.2 6.3-8 27-12.9 3.2-1.6 9.7-10.8 2.4-5.4 2-1.7 4.2-2.5 29.3-16.1 5.5-3.2 7.7-2.2 2.2-1.5 6.2-3.4 16.1-17 9.4-8.5 8.4-7 2.5-2.3 2-3.9 8.7-8.2 4.6-7 1.9-8.3 1.8-5.1 2-6.1 3.4-3.3 1.3-1.1 7.5-4.3h7l15-6 4.7-6 10.7-16.6 2.8-4.6 1.3-2 .9-3.5 7.8-16.7.4-3.4.1-1.3-.4-1.4-1.4-8.3 2.6-10.4.5-4.4.8-3.5 1.6-5.9-.2-1.5-5.7-6.8-.3-.7-1.4-1.3-5-6.6-.4-1.9-.2-.7-1.6-1.8-.4-4.2-.5-1-.6-1.6v-.4l-.5-4.2-3.3-3.6-1.4-.5-2.8-.6h-.2" class="cable"/><path d="M1572.6 147.6h-1.5l-1 .1-.3.2-.2.1-.2.4-1 5.4-.3 1.4-1 5-.3 2.5-1.3 11.7-.1 3v.5l1 9 .6 5v1.5l-.2 2-.5 1.9-.6 1.8-.8 1.7-.8 1.3-.7 1-3.2 3.2-2.8 3.2-1.1 1.4-.5.8-.6 1.3-.5 1-2.4 8.2-.6 1.4-.5.9-.7.8-3 3-2.5 2.8-1 1.2-1.2 1.9-.6 1.2-.7 1.4-4.3 10-1.2 2.6-3.7 6.9-1 1.8-1 1.4-1.3 1.4-9.6 8-1.8 1.4-1.6 1-1 .6-1 .3-1 .4-1.9.3-7.3.2-4.5.2-2 .2-1 .3-2.3.7-4.3 1.7-1 .5-2.2 1.4-2.9 1.8-2.5 1.8-7.2 5.9-2.6 2.2-2.4 2.3-18.5 18.4-1.3 1.4-1.2 1.7-1.9 3.7-3.5 6.8-4.4 8.7-1.5 2.3-.7.9-1.2 1.1-4 3.2-6.5 5.6-3.6 2.8-2.2 1.6-3 2-5 3.3-1.8 1.4-2.1 1.8-5.2 5.1-1.6 1.8-.9 1.3-4 6.1-1 .9-.7.8-1 1-2.1 1.7-5 4.5-2 2.2-1.3 1.8-.5 1-.7 1.7-.4 1.4-.3 1.7v12.1l-.1 6.6-.5 5.3-.4 2-.2 1-.3 1.2-2 5-1 2.1-1.1 1.5-1.5 1.6-2.9 2.8-2.6 2.8-.9.8-1 .8-1.4.8-14.5 6.3-3.7 1.6-3 1.2-4 1.3-3.6 1-2.7.6-3.3.4-13.2 1.4-8.8.9-2.8.1h-4.9l-2.7-.2-3.7-.4-5-.6-13.7-2.3-11-1.7-3.9-.8-7-1.6-3.4-1-5.6-1.5-2-.7-1.9-.7-7-3.1-2.2-.8-1.9-.4-2.5-.4-4.3-.2h-1.8l-1.1.3-2.4.7-1.5.4-1 .4-14.5 7-1.6.6-3.4 1.2-1.1.5-5.7 3.6-2.1 1.3-14.3 7.8-1.7.9-9 4.1-1.3.6-1.2.2-3.6.2-1.3-.1-1.2-.3-2.3-.7-1-.5-.7-.5-4.4-3.6-1-1-4.5-4.5-1.4-1.3-4.4-2.5-2-1.6-.7-.5-6.4-2.6-.6-.2-2.4-.2-4-.7-.5-.1-1-.4-.8-.6-.4-.5-.7-1-5.3-10.7-2-3.4-.8-1.8-1.9-3-1.9-3.8-.4-1.5-.3-.7-.3-.6-1.4-1.2-3-2.4-1.8-2.3-.7-.7-2.1-1.2-3-1.6-1-.6-.2-.2-.3-.5-.2-.4-.7-2.2-.5-.7-.3-.2-.8-.1h-4.4l-3 .2-1.6.2-1 .2-.5.2-.6.4-.4.3-1.4 2.1-1.2.9-2.7 1.4-13.5 6.5-20.4 9.5-1.5.6-6.4 1.6-1.5.4-.9.4-11.5 5.8-.9.5-.6.5-.8.8-4.7 4.2-.7.5-.8.4-5.2 2.3-1.8.7-10.4 2.2-1.4.5-.6.4-2.9 1.9-.8.4-4.5 1.6-3 1.2-8.8 4.4-1.4.8-7.6 5-1 .6-1.1.5-1 .3h-.5l-.9.1h-.7l-10-2.4-2-.3-5-.6-8.4-1.7-.8-.3-1.2-.7-2.2-1.7-1.6-1-13.2-4.5-3-2-5.9-3.2-.7-.6-.8-.8-1.5-1.3-.3-.4-.4-.7-1.9-4.4-.8-2.1-1-2.5-.4-.4-2-1.4-.5-.3-5.3-1.7h-3l-2.2.4-3.1.8-1.4.2-15 .7-.5.1-4.8 1.6-2.4 1.2-1.7.6h-.3l-1.2.2h-.8l-.5.1-1.8.3-1.2.4-1 .5-3 .6-.5.1-.6.5-3.1 1-1.8.6-5.8 2" class="cable back"/><path stroke="#ff7a1a" d="M1572.6 147.6h-1.5l-1 .1-.3.2-.2.1-.2.4-1 5.4-.3 1.4-1 5-.3 2.5-1.3 11.7-.1 3v.5l1 9 .6 5v1.5l-.2 2-.5 1.9-.6 1.8-.8 1.7-.8 1.3-.7 1-3.2 3.2-2.8 3.2-1.1 1.4-.5.8-.6 1.3-.5 1-2.4 8.2-.6 1.4-.5.9-.7.8-3 3-2.5 2.8-1 1.2-1.2 1.9-.6 1.2-.7 1.4-4.3 10-1.2 2.6-3.7 6.9-1 1.8-1 1.4-1.3 1.4-9.6 8-1.8 1.4-1.6 1-1 .6-1 .3-1 .4-1.9.3-7.3.2-4.5.2-2 .2-1 .3-2.3.7-4.3 1.7-1 .5-2.2 1.4-2.9 1.8-2.5 1.8-7.2 5.9-2.6 2.2-2.4 2.3-18.5 18.4-1.3 1.4-1.2 1.7-1.9 3.7-3.5 6.8-4.4 8.7-1.5 2.3-.7.9-1.2 1.1-4 3.2-6.5 5.6-3.6 2.8-2.2 1.6-3 2-5 3.3-1.8 1.4-2.1 1.8-5.2 5.1-1.6 1.8-.9 1.3-4 6.1-1 .9-.7.8-1 1-2.1 1.7-5 4.5-2 2.2-1.3 1.8-.5 1-.7 1.7-.4 1.4-.3 1.7v12.1l-.1 6.6-.5 5.3-.4 2-.2 1-.3 1.2-2 5-1 2.1-1.1 1.5-1.5 1.6-2.9 2.8-2.6 2.8-.9.8-1 .8-1.4.8-14.5 6.3-3.7 1.6-3 1.2-4 1.3-3.6 1-2.7.6-3.3.4-13.2 1.4-8.8.9-2.8.1h-4.9l-2.7-.2-3.7-.4-5-.6-13.7-2.3-11-1.7-3.9-.8-7-1.6-3.4-1-5.6-1.5-2-.7-1.9-.7-7-3.1-2.2-.8-1.9-.4-2.5-.4-4.3-.2h-1.8l-1.1.3-2.4.7-1.5.4-1 .4-14.5 7-1.6.6-3.4 1.2-1.1.5-5.7 3.6-2.1 1.3-14.3 7.8-1.7.9-9 4.1-1.3.6-1.2.2-3.6.2-1.3-.1-1.2-.3-2.3-.7-1-.5-.7-.5-4.4-3.6-1-1-4.5-4.5-1.4-1.3-4.4-2.5-2-1.6-.7-.5-6.4-2.6-.6-.2-2.4-.2-4-.7-.5-.1-1-.4-.8-.6-.4-.5-.7-1-5.3-10.7-2-3.4-.8-1.8-1.9-3-1.9-3.8-.4-1.5-.3-.7-.3-.6-1.4-1.2-3-2.4-1.8-2.3-.7-.7-2.1-1.2-3-1.6-1-.6-.2-.2-.3-.5-.2-.4-.7-2.2-.5-.7-.3-.2-.8-.1h-4.4l-3 .2-1.6.2-1 .2-.5.2-.6.4-.4.3-1.4 2.1-1.2.9-2.7 1.4-13.5 6.5-20.4 9.5-1.5.6-6.4 1.6-1.5.4-.9.4-11.5 5.8-.9.5-.6.5-.8.8-4.7 4.2-.7.5-.8.4-5.2 2.3-1.8.7-10.4 2.2-1.4.5-.6.4-2.9 1.9-.8.4-4.5 1.6-3 1.2-8.8 4.4-1.4.8-7.6 5-1 .6-1.1.5-1 .3h-.5l-.9.1h-.7l-10-2.4-2-.3-5-.6-8.4-1.7-.8-.3-1.2-.7-2.2-1.7-1.6-1-13.2-4.5-3-2-5.9-3.2-.7-.6-.8-.8-1.5-1.3-.3-.4-.4-.7-1.9-4.4-.8-2.1-1-2.5-.4-.4-2-1.4-.5-.3-5.3-1.7h-3l-2.2.4-3.1.8-1.4.2-15 .7-.5.1-4.8 1.6-2.4 1.2-1.7.6h-.3l-1.2.2h-.8l-.5.1-1.8.3-1.2.4-1 .5-3 .6-.5.1-.6.5-3.1 1-1.8.6-5.8 2" class="cable"/><path d="M822.3 439.9 850 446l50 20.8 96 79.5L1133 750" class="cable back"/><path stroke="#ff7a1a" d="M822.3 439.9 850 446l50 20.8 96 79.5L1133 750" class="cable"/><path d="m1133 750 366.4-116.6 133.2-66.6 433-199.9L3664-898.6l932.5-333h532.8" class="cable back"/><path stroke="#ff7a1a" d="m1133 750 366.4-116.6 133.2-66.6 433-199.9L3664-898.6l932.5-333h532.8" class="cable"/><path d="m785 780.7-6.3-4.5-3-6.3-1-9.7.3-7.2.4-12.7-1.7-4.5-2.2-2.6-14.3-8.8-1.2-1.5-.8-1-.6-1.3-.3-.4-2.8-3.2-1.9-2.5-.2-.7-2-2.6-.5-.7-.4-.3-1-1.2-1.2-2.3-1-2.2-1.9-3.4-1.2-1.7-1.7-3-.6-.7-1-1.7-1.4-2.5-.5-.7-.4-.5-.3-1.4-.7-1.1-.5-.8-.6-1-.6-1.5-.7-3.5-.4-1-.3-.5-.5-1.7-.1-1v-.8l.8-6.6 1.3-5 .6-1.2.3-1 .6-2.8 1.5-6 1.2-3.1 1-.9" class="cable back"/><path stroke="#ff7a1a" d="m785 780.7-6.3-4.5-3-6.3-1-9.7.3-7.2.4-12.7-1.7-4.5-2.2-2.6-14.3-8.8-1.2-1.5-.8-1-.6-1.3-.3-.4-2.8-3.2-1.9-2.5-.2-.7-2-2.6-.5-.7-.4-.3-1-1.2-1.2-2.3-1-2.2-1.9-3.4-1.2-1.7-1.7-3-.6-.7-1-1.7-1.4-2.5-.5-.7-.4-.5-.3-1.4-.7-1.1-.5-.8-.6-1-.6-1.5-.7-3.5-.4-1-.3-.5-.5-1.7-.1-1v-.8l.8-6.6 1.3-5 .6-1.2.3-1 .6-2.8 1.5-6 1.2-3.1 1-.9" class="cable"/><path d="m938.8 442.9-2.4-3.3-.3-.9V435l.7-2.4 2.3-3 2.6-2.4 3.4-1.4 20-8 11.6-5.8 5-5.5 8-4.5 26.4-2 26.2-4.6 22.8-7.2 3.6-2.2 1.8-3.2.4-2.6.2-3-1.4-3.2-1.3-2.6-.2-2.4.4-3.4 1.7-3 2.3-2.3 21.9-13 6.3-4.2 3.2-6.8.3-7.9.8-2.6 5.8-9.4 2.6-4 2.4-4.3 3.4-3 3-2 1.6-2.5 3.5-7.5 1.6-2.7 5.7-7.3 2.6-1.8 4.5-2.2 1.9-2 3.5-4.6 4.2-3.8 2.2-.9 3.5-.1 2.4-.7 1.8-1.6 10.4-18.8 2.6-6.3 2.4-3.5 2.2-2.7 2.5-3 2.2-1.5 3.3-1 6.2-1 4.6-1.7 4.9-2 5.2-2.5 4-1.7 2-1.3 5.2-2.8 2.4-2.3 2.4-2 3.7-1.5 6.5-2 2-1.5 1.3-2 .9-1 2.1-1.6.5-.9.8-2.6.9-1.1 2.6-2 2.1-2.2 1-1.4.7-2 2.5-3.8 1-2.2 5.2-2.7 2.7-1.5 2.7-1.8 2.5-1.3 6.8-5.2 2.2-1.5 4.7-2.8 1.1-1.2 1-1.3 1.5-1.6 1.3-2 1-1.3 2.5-1.7 1.1-.7 1.8-1.3 1-1.2.3-1 .4-3.3.7-2 .5-2.5 1-1.5 1-2.4 1.6-1.6 5.1-6.8 1-2.4 1.4-1.6 1.7-1.1 4.9-1.5 3.8-1.9 2.4-1.9 1.4-1.9.7-1.1 2.5-3.8 2-1.8 1.6-2.7 1.1-2.5 3-4.4 2-5.5.3-2.7.3-1.2.4-.6.2-.9.3-2.5 2.6-5 1.7-3.3 1-1 1.2-.9 2.9-1 5-.6 2.8-1.1 4-2 1.3-1.2 2.2-1.3 1.4-.6 1.2-.8 2.2-2.5.8-.6.9-.2 1-.1 1 .2 2.1 1 1.5.4 3.8.2 2.7-.4 2.2-.9 2.3-1.2.8-.7 3.3-2 .8-.9.6-.3 3.3-1.2 2.6-.1 3.5.7 2.9.7 2.9 1.1 1.7.6 1.4.8 4.3 1.8 8 3.8 4.8 1 7.3.3 5.2-1.1 9.5-4.2 2.4-1 2.3-1.1 8.5-3.3 3.2-.4 2.6.1 5 1.1 2.6.4 6.3.4 15-.7 9.7-4.2 6.6-1.6 6-3.8 7-2.2 4.7-2.8 3.1-3.2 3-5.7 4.5-5.9 1.7-4.9 2.4-3.5 9.4-7 4.8-2.9 7.3-5.1 13.5-7.5 6.5-2.2L1593 1l2.4.3 4.2-.5 9.9-.2 2.9-1.9 2.1-2.4 4.9-2.3 18.9-2.2 4.6-.9 6.2-3.2 5.4-4 5-2.8 4.5-1.9 16-4.1 12-5.5 15.3-9.7 56.2-42.2 9.5-4 9.2-3 8.5-4 3.3-2.3 4.2-4.2 7.1-2.9 10.8-1.2 27.3 3.7h14.5l5.7-1 4-2.2 3.9-3.5 1.8-2.8 1.2-3.2.3-2.5.5-2.9.9-2.4 1.4-2.2 2.2-1.9 2.6-1.2 3.5-.6 5.2.3 8.8 2.3 4 .2 2.5-.5 2.3-1.2 12.3-19.1 2.2-3.5 8.4-20 3.2-4.9 14.3-7.3 2.6-4.3.9-6 1.7-2.9 10.3-6.4 7.2-3.2" class="cable back"/><path stroke="#ff7a1a" d="m938.8 442.9-2.4-3.3-.3-.9V435l.7-2.4 2.3-3 2.6-2.4 3.4-1.4 20-8 11.6-5.8 5-5.5 8-4.5 26.4-2 26.2-4.6 22.8-7.2 3.6-2.2 1.8-3.2.4-2.6.2-3-1.4-3.2-1.3-2.6-.2-2.4.4-3.4 1.7-3 2.3-2.3 21.9-13 6.3-4.2 3.2-6.8.3-7.9.8-2.6 5.8-9.4 2.6-4 2.4-4.3 3.4-3 3-2 1.6-2.5 3.5-7.5 1.6-2.7 5.7-7.3 2.6-1.8 4.5-2.2 1.9-2 3.5-4.6 4.2-3.8 2.2-.9 3.5-.1 2.4-.7 1.8-1.6 10.4-18.8 2.6-6.3 2.4-3.5 2.2-2.7 2.5-3 2.2-1.5 3.3-1 6.2-1 4.6-1.7 4.9-2 5.2-2.5 4-1.7 2-1.3 5.2-2.8 2.4-2.3 2.4-2 3.7-1.5 6.5-2 2-1.5 1.3-2 .9-1 2.1-1.6.5-.9.8-2.6.9-1.1 2.6-2 2.1-2.2 1-1.4.7-2 2.5-3.8 1-2.2 5.2-2.7 2.7-1.5 2.7-1.8 2.5-1.3 6.8-5.2 2.2-1.5 4.7-2.8 1.1-1.2 1-1.3 1.5-1.6 1.3-2 1-1.3 2.5-1.7 1.1-.7 1.8-1.3 1-1.2.3-1 .4-3.3.7-2 .5-2.5 1-1.5 1-2.4 1.6-1.6 5.1-6.8 1-2.4 1.4-1.6 1.7-1.1 4.9-1.5 3.8-1.9 2.4-1.9 1.4-1.9.7-1.1 2.5-3.8 2-1.8 1.6-2.7 1.1-2.5 3-4.4 2-5.5.3-2.7.3-1.2.4-.6.2-.9.3-2.5 2.6-5 1.7-3.3 1-1 1.2-.9 2.9-1 5-.6 2.8-1.1 4-2 1.3-1.2 2.2-1.3 1.4-.6 1.2-.8 2.2-2.5.8-.6.9-.2 1-.1 1 .2 2.1 1 1.5.4 3.8.2 2.7-.4 2.2-.9 2.3-1.2.8-.7 3.3-2 .8-.9.6-.3 3.3-1.2 2.6-.1 3.5.7 2.9.7 2.9 1.1 1.7.6 1.4.8 4.3 1.8 8 3.8 4.8 1 7.3.3 5.2-1.1 9.5-4.2 2.4-1 2.3-1.1 8.5-3.3 3.2-.4 2.6.1 5 1.1 2.6.4 6.3.4 15-.7 9.7-4.2 6.6-1.6 6-3.8 7-2.2 4.7-2.8 3.1-3.2 3-5.7 4.5-5.9 1.7-4.9 2.4-3.5 9.4-7 4.8-2.9 7.3-5.1 13.5-7.5 6.5-2.2L1593 1l2.4.3 4.2-.5 9.9-.2 2.9-1.9 2.1-2.4 4.9-2.3 18.9-2.2 4.6-.9 6.2-3.2 5.4-4 5-2.8 4.5-1.9 16-4.1 12-5.5 15.3-9.7 56.2-42.2 9.5-4 9.2-3 8.5-4 3.3-2.3 4.2-4.2 7.1-2.9 10.8-1.2 27.3 3.7h14.5l5.7-1 4-2.2 3.9-3.5 1.8-2.8 1.2-3.2.3-2.5.5-2.9.9-2.4 1.4-2.2 2.2-1.9 2.6-1.2 3.5-.6 5.2.3 8.8 2.3 4 .2 2.5-.5 2.3-1.2 12.3-19.1 2.2-3.5 8.4-20 3.2-4.9 14.3-7.3 2.6-4.3.9-6 1.7-2.9 10.3-6.4 7.2-3.2" class="cable"/><path d="m793.6 413.3-1.4-2.8-.2-.8-.1-.9.1-.4.3-.1 1.8-.4.1-.1.2-.3v-.9l.3-.7.4-1 2.1-6.6 1-2 .7-1.1.5-.5.7-1 .3-.5.3-.4.6-.8.5-.4.8-.4h.3l.8.1 1.8.8 1.1.7 2 .4 1.3.8 1.3.5.7.1 1 .3.2.2 1.5.6 1.1.5.9.3 2.8 1.2 2.3.5 1 .4 1.7 1 1.7 1 1.6.8.3.3.5.3.4.3.9.6 1 .4 1.5.9.3.3.5.1.8.6.9.2 2.4 1.4.6.4.4.2 1.4.5.5.4 1.2.6 1.4.6 1.8 1.2.6.7.6.3.5.3h1l.5.3 1.5 1 .8.1 1.6 1.1.5.2h.9l.2-.1.6-.6 1.8-.5 1.1-.2h2.8l1 .2h1.6l.5.1 1.2.5.6.1h1l1.3.1 2 .7 1 .1h.6l1.7.3 3.9 2.3 1.5.8 2.6.3 3.8 1 3.2 1.8 2.1 2 1.2 2.5 2 2.1 3.8 1.8 1.2 1.5.7 1.7.8 1 .7.6.6.7.4 1v1.2l.7 1.2 1 .7 1.1.3 5.7.4 7.4 1.3 3.8 1.9 3.3.6 2.4 1 3.1 1h2.1l2.8-1 4.9-2.2" class="cable back"/><path stroke="#ff7a1a" d="m793.6 413.3-1.4-2.8-.2-.8-.1-.9.1-.4.3-.1 1.8-.4.1-.1.2-.3v-.9l.3-.7.4-1 2.1-6.6 1-2 .7-1.1.5-.5.7-1 .3-.5.3-.4.6-.8.5-.4.8-.4h.3l.8.1 1.8.8 1.1.7 2 .4 1.3.8 1.3.5.7.1 1 .3.2.2 1.5.6 1.1.5.9.3 2.8 1.2 2.3.5 1 .4 1.7 1 1.7 1 1.6.8.3.3.5.3.4.3.9.6 1 .4 1.5.9.3.3.5.1.8.6.9.2 2.4 1.4.6.4.4.2 1.4.5.5.4 1.2.6 1.4.6 1.8 1.2.6.7.6.3.5.3h1l.5.3 1.5 1 .8.1 1.6 1.1.5.2h.9l.2-.1.6-.6 1.8-.5 1.1-.2h2.8l1 .2h1.6l.5.1 1.2.5.6.1h1l1.3.1 2 .7 1 .1h.6l1.7.3 3.9 2.3 1.5.8 2.6.3 3.8 1 3.2 1.8 2.1 2 1.2 2.5 2 2.1 3.8 1.8 1.2 1.5.7 1.7.8 1 .7.6.6.7.4 1v1.2l.7 1.2 1 .7 1.1.3 5.7.4 7.4 1.3 3.8 1.9 3.3.6 2.4 1 3.1 1h2.1l2.8-1 4.9-2.2" class="cable"/><path d="M260.2 653.7v1.2l-.3.5.3.5v.2l.2.3.2.2.1.3 1.5 1.2.3.4.2.2.4.2v.3l.2.2h.6l1.3-.1.3-.2 3-.4h1l1.5-.3 2.2-.3 4.8-.3 1.5-.3.6-.6 1.5-.6.8-.2h2.4l2 1 9.8 11.7 1 2.6v3.3l-.4.8-1.5 5.6v4.6l-3.7 9.5-2 5.3-4.9 8.8-.8 1.1-8 5.7-1.3.7-6.6 16.7 2.3 23.5 2.6 6.8 2.4 8.3.1 3.1-.4 8 1.3 4.8 1.5 3.7 4.3 14.6-.5 13.4 1.2 12.6 1.5 16.7v12l1 3.5-.2 2.2 2 9.7 11 18 1.3 4 5.9 5.8 11.9 17.4 69.3 19.8 18.7 21 28.3 3.7" class="cable back"/><path stroke="#ff7a1a" d="M260.2 653.7v1.2l-.3.5.3.5v.2l.2.3.2.2.1.3 1.5 1.2.3.4.2.2.4.2v.3l.2.2h.6l1.3-.1.3-.2 3-.4h1l1.5-.3 2.2-.3 4.8-.3 1.5-.3.6-.6 1.5-.6.8-.2h2.4l2 1 9.8 11.7 1 2.6v3.3l-.4.8-1.5 5.6v4.6l-3.7 9.5-2 5.3-4.9 8.8-.8 1.1-8 5.7-1.3.7-6.6 16.7 2.3 23.5 2.6 6.8 2.4 8.3.1 3.1-.4 8 1.3 4.8 1.5 3.7 4.3 14.6-.5 13.4 1.2 12.6 1.5 16.7v12l1 3.5-.2 2.2 2 9.7 11 18 1.3 4 5.9 5.8 11.9 17.4 69.3 19.8 18.7 21 28.3 3.7" class="cable"/><path d="M-195.1 1919.5h.3l.6-.3 5.4-4 7.2-5 3.5-2.2 1.2-.9 1.1-.7 15.4-10.7 21.2-14.7.6-.5 6.3-4.4.9-.5 3.6-4.6 1-1 1.4-1 2-1.3 1.3-.5 2-1 9.4-4.5 4.8-2.6 2-1 1-.2.7-.8 1.6-.8 1.3-.4 1-.7 4-1.5.6-.1.5-.3h.4l1.1-.6 4.7-.7 10.4-1 26.7-6.1 18.2-10.2 18-16.7 17-31.5 18.5-44.2 2.4-12.6 2.8-21 2-9.6-1.4-10.8v-.5l3.8-13.5 4.9-5.9.7-4.2-1.5-10 3-8.5 2.7-6.5 3-35 3.6-6 4-4 15.5-16.9 14.1-27.1 25.4-33.7 42.7-53.5 5-9.5.4-.3 4.2-5 .1-9.9-.6-1.6.8-6.3 9-19.5 7.1-12.4 35-53.8.6-1 5.2-4.8 3.5-2.2 5.3-.6 7.8 2.4 2.4.5 2.1-.1 6.8-1.5 6.6-3.7 14-20.4 22.5-14 23-28.6 9.8-13 11.5-6 7.6-11 5.6-29.8 12.8-30 7.1-12.8 7.3-10.7 15.9-49.4 9-12.2 20.4-23.6 3.9-15.3 1.6-4 5.5-16.2 11-17.2 5.8-15.5-6.5-30.4-4.6-7.4" class="cable back"/><path stroke="#ff7a1a" d="M-195.1 1919.5h.3l.6-.3 5.4-4 7.2-5 3.5-2.2 1.2-.9 1.1-.7 15.4-10.7 21.2-14.7.6-.5 6.3-4.4.9-.5 3.6-4.6 1-1 1.4-1 2-1.3 1.3-.5 2-1 9.4-4.5 4.8-2.6 2-1 1-.2.7-.8 1.6-.8 1.3-.4 1-.7 4-1.5.6-.1.5-.3h.4l1.1-.6 4.7-.7 10.4-1 26.7-6.1 18.2-10.2 18-16.7 17-31.5 18.5-44.2 2.4-12.6 2.8-21 2-9.6-1.4-10.8v-.5l3.8-13.5 4.9-5.9.7-4.2-1.5-10 3-8.5 2.7-6.5 3-35 3.6-6 4-4 15.5-16.9 14.1-27.1 25.4-33.7 42.7-53.5 5-9.5.4-.3 4.2-5 .1-9.9-.6-1.6.8-6.3 9-19.5 7.1-12.4 35-53.8.6-1 5.2-4.8 3.5-2.2 5.3-.6 7.8 2.4 2.4.5 2.1-.1 6.8-1.5 6.6-3.7 14-20.4 22.5-14 23-28.6 9.8-13 11.5-6 7.6-11 5.6-29.8 12.8-30 7.1-12.8 7.3-10.7 15.9-49.4 9-12.2 20.4-23.6 3.9-15.3 1.6-4 5.5-16.2 11-17.2 5.8-15.5-6.5-30.4-4.6-7.4" class="cable"/><path d="m434 966.2 8.2-5.9 10.6-2.7 12.5 1.5 20.1-5.8 12.4-7.1 4-5.4 1.7-3 5.8-5 13.6-8.3 55.1-18.7 46.4-27 3.5-1 6.8-.4 5.2 1 4.2 3 5.5 1.6 6.9-.6 12.3-3.2 20.6-6.1 3.9-1 6.4-2.5 8.6-5.9 3.7-.2 10.1.9 6.5.8 3.3.1 10.2-.2 3-.8 2.2-1.2 2-2 1.6-2.9 1.2-4.3 2.2-5.5 1.1-4.7 1.4-2.5 1.5-7.4 1-2.7.6-2.3 2.2-3 3-2 11.9-5 1.1-1.4 2-5.8 5.8-27.4-.8-3.5" class="cable back"/><path stroke="#ff7a1a" d="m434 966.2 8.2-5.9 10.6-2.7 12.5 1.5 20.1-5.8 12.4-7.1 4-5.4 1.7-3 5.8-5 13.6-8.3 55.1-18.7 46.4-27 3.5-1 6.8-.4 5.2 1 4.2 3 5.5 1.6 6.9-.6 12.3-3.2 20.6-6.1 3.9-1 6.4-2.5 8.6-5.9 3.7-.2 10.1.9 6.5.8 3.3.1 10.2-.2 3-.8 2.2-1.2 2-2 1.6-2.9 1.2-4.3 2.2-5.5 1.1-4.7 1.4-2.5 1.5-7.4 1-2.7.6-2.3 2.2-3 3-2 11.9-5 1.1-1.4 2-5.8 5.8-27.4-.8-3.5" class="cable"/><path d="m652.9 542.3 4.7 2.3" class="cable back"/><path stroke="#ff7a1a" d="m652.9 542.3 4.7 2.3" class="cable"/><path d="m657.6 544.6 6 1" class="cable back"/><path stroke="#ff7a1a" d="m657.6 544.6 6 1" class="cable"/><path d="m756.3 641.5 1 .3 2.3 2 3 2 2 1.4 4.8 3.4 1.5 1.3 2.2 2.4 6 6.1 1.8 2.2 2 2 1.5 1.5 8.2 7.6 5.9 2 1.3.8.7 1.2.8 3.8 1.9 2 1.8 1 6-.3 2.4 1.2 1 .9 7.2 9.2 4.4 7.8 4.8 4v.7l4.3 13.3 2.7 3 3 1.4 2.6 2.4 2.3 1.6 2.7.9h2.2l2.2-.5 8.1-2.6 22.8-11.3 10.6-3.7 4-.8.7-.3 4.1.1 3.5 2.3 5 .5 13.5-2.8" class="cable back"/><path stroke="#ffb15f" d="m756.3 641.5 1 .3 2.3 2 3 2 2 1.4 4.8 3.4 1.5 1.3 2.2 2.4 6 6.1 1.8 2.2 2 2 1.5 1.5 8.2 7.6 5.9 2 1.3.8.7 1.2.8 3.8 1.9 2 1.8 1 6-.3 2.4 1.2 1 .9 7.2 9.2 4.4 7.8 4.8 4v.7l4.3 13.3 2.7 3 3 1.4 2.6 2.4 2.3 1.6 2.7.9h2.2l2.2-.5 8.1-2.6 22.8-11.3 10.6-3.7 4-.8.7-.3 4.1.1 3.5 2.3 5 .5 13.5-2.8" class="cable building"/><path d="m793.8 413.1-.3-.7-.8-.8-1.8.2h-.6l-.3-.2-1.6-2.4-1-1.3-.4-.6-.2-.3-1.4-1.5-1-.7-.3-.4-1.8-2.1-.2-.4-1.5-1.5-1-1.2-.6-.7-.8-1-.6-.6-1.2-1.5-1.6-1.8-10.6-11.9-.4-.3-.4-.1-.4-.3-10-5.8-.3-.2-12.6-4.5-2-.2h-1l-.8-.3-12-1.5-2-.2-1-.3-5-.7-14-4-.6-.1-5.2-.3-1.5.2-2-.2h-.4l-1.2-.3-4.7-.3-.7.1h-18.4l-4.9-.3-1.5-.2h-.9" class="cable back"/><path stroke="#ff7a1a" d="m793.8 413.1-.3-.7-.8-.8-1.8.2h-.6l-.3-.2-1.6-2.4-1-1.3-.4-.6-.2-.3-1.4-1.5-1-.7-.3-.4-1.8-2.1-.2-.4-1.5-1.5-1-1.2-.6-.7-.8-1-.6-.6-1.2-1.5-1.6-1.8-10.6-11.9-.4-.3-.4-.1-.4-.3-10-5.8-.3-.2-12.6-4.5-2-.2h-1l-.8-.3-12-1.5-2-.2-1-.3-5-.7-14-4-.6-.1-5.2-.3-1.5.2-2-.2h-.4l-1.2-.3-4.7-.3-.7.1h-18.4l-4.9-.3-1.5-.2h-.9" class="cable"/><path d="m566.6 476.2 10 6.9L635 526l17.2 14" class="cable back"/><path stroke="#ff7a1a" d="m566.6 476.2 10 6.9L635 526l17.2 14" class="cable"/><path d="m564.4 476.5 10.8 8.4 58.3 41.6 19.4 15.8" class="cable back"/><path stroke="#ff7a1a" d="m564.4 476.5 10.8 8.4 58.3 41.6 19.4 15.8" class="cable"/><path d="m736.8 475-28.4 5.7H600.2l-26.7-6.1" class="cable back"/><path stroke="#ff7a1a" d="m736.8 475-28.4 5.7H600.2l-26.7-6.1" class="cable"/><path d="M793.8 413.4h-.3l-.3-.6-.5-.4-.9-1-.2-.5v-3l.2-.8v-1.7l.1-.2-.1-.1-.2-6.6-.2-2.7.2-1.6h0l-.3-4.7-.3-8.8 1.3-3.2v-1l-.7-2.1v-.5l-.5-1.4-.4-.4-1.6-4.6-.2-.7v-.5l-6.3-17.5-39.9-31.6-2.4-1.6-.1-.5-2.4-1.8-1-.2-5.4.8-.3-.1h-.4 0l-4.6.7-.6.5-.2.4v.8" class="cable back"/><path stroke="#ff7a1a" d="M793.8 413.4h-.3l-.3-.6-.5-.4-.9-1-.2-.5v-3l.2-.8v-1.7l.1-.2-.1-.1-.2-6.6-.2-2.7.2-1.6h0l-.3-4.7-.3-8.8 1.3-3.2v-1l-.7-2.1v-.5l-.5-1.4-.4-.4-1.6-4.6-.2-.7v-.5l-6.3-17.5-39.9-31.6-2.4-1.6-.1-.5-2.4-1.8-1-.2-5.4.8-.3-.1h-.4 0l-4.6.7-.6.5-.2.4v.8" class="cable"/><path d="m772.2 422.8-1.3-.4-1.4-.8-2-1-.8-.3-3.6-1.6-5-2.5-.9-.6-1-1-10.6-7.5-4.7-4.1-8.4-8.7-5.7-7.2-1.5-1.5-3-4-8.7-10.8-1.2-1.1-1.9-2.4-1.6-1.8-.1-.5-6.7-8.1-10.6-10-.5-.7-.1-1v-1.8l-.3-.7-3.1-4.3-.5-.4-1-.4-1.8-2v-.6l.1-.3" class="cable back"/><path stroke="#ff7a1a" d="m772.2 422.8-1.3-.4-1.4-.8-2-1-.8-.3-3.6-1.6-5-2.5-.9-.6-1-1-10.6-7.5-4.7-4.1-8.4-8.7-5.7-7.2-1.5-1.5-3-4-8.7-10.8-1.2-1.1-1.9-2.4-1.6-1.8-.1-.5-6.7-8.1-10.6-10-.5-.7-.1-1v-1.8l-.3-.7-3.1-4.3-.5-.4-1-.4-1.8-2v-.6l.1-.3" class="cable"/><path d="m688.2 328.8-.2.3v.5l.2.2 1.2.6 1.9.7 2.8.3.8-.3 2.8-1.4 4.9-4.7 13.3-5.4 1.4-1.6 6.1-3.8.7-.1h.3l.3.1.2.3v.8l.1.4.2.3.2.2" class="cable back"/><path stroke="#ff7a1a" d="m688.2 328.8-.2.3v.5l.2.2 1.2.6 1.9.7 2.8.3.8-.3 2.8-1.4 4.9-4.7 13.3-5.4 1.4-1.6 6.1-3.8.7-.1h.3l.3.1.2.3v.8l.1.4.2.3.2.2" class="cable"/><path d="m684.4 334.7-.5.6-.9 2.2-1.7 9.9v.6l.2.5.4.4.6.3 1.2-.2" class="cable back"/><path stroke="#ff7a1a" d="m684.4 334.7-.5.6-.9 2.2-1.7 9.9v.6l.2.5.4.4.6.3 1.2-.2" class="cable"/><path d="M685.6 334.2v.4h.2l.3-.2 1.2-.5.5-.5.2-.3.3-1v-.3l-.2-.7-.2-.4-.4-.3v-.8l.7-.8" class="cable back"/><path stroke="#ff7a1a" d="M685.6 334.2v.4h.2l.3-.2 1.2-.5.5-.5.2-.3.3-1v-.3l-.2-.7-.2-.4-.4-.3v-.8l.7-.8" class="cable"/><path d="m663.8 545.5.4 2.8 2.8 2.5 3 2.1 4.5 3.6 2.2 2.5 3.9 2.5 3.5 1.6h4.9l6.8-1.8 3.4.3h.3" class="cable back"/><path stroke="#ff7a1a" d="m663.8 545.5.4 2.8 2.8 2.5 3 2.1 4.5 3.6 2.2 2.5 3.9 2.5 3.5 1.6h4.9l6.8-1.8 3.4.3h.3" class="cable"/><path d="m696.2 568-4-.3-1-.1-.5-.2-6.9-1.5-1-.2h-.4l-.9-.4-2.1-.9-1.4-.8-3-1.4-1-.3-.8-.4-.5-.7-1.5-1.3-3.9-4-.8-.6-.7-1-.5-.5-.7-1-.6-2.9v-1l-.9-1.8v-.5l-.2-.2-.5-.1h0" class="cable back"/><path stroke="#ff7a1a" d="m696.2 568-4-.3-1-.1-.5-.2-6.9-1.5-1-.2h-.4l-.9-.4-2.1-.9-1.4-.8-3-1.4-1-.3-.8-.4-.5-.7-1.5-1.3-3.9-4-.8-.6-.7-1-.5-.5-.7-1-.6-2.9v-1l-.9-1.8v-.5l-.2-.2-.5-.1h0" class="cable"/></g><g id="taiwan-boundary"><path d="M750 690.2Z" class="land"/><path d="M808 675.3h-.1v-.3l-.1-.1-.1-.1v-.1h.2l.1-.1h.3v-.1h.1v.3h.1v.4h-.3v.1z" class="land"/><path d="M753.9 670.6v.2h-.1v.1h-.1l-.1.1h-.1l-.1.1h-.2v.1h-.1v.1h-.1v.1h-.1l-.1.1h-.3v.1h-.1l-.1.1h-.6v.1l-.1.1v.1l-.1.2v.6l.1.1h-.1v.6h-.1v.2h-.1v.4l-.1.1v.7l.1.1v.2l.1.1v.3h.1v.1h.1v.2h.1v.4h.2v.1h.1v.1h.1v.1h.1v.2l.1.1v.1h.1v.1l.1.1v.1l.1.1v.1h.1v.9l.1.1v.1h.2v.1l.1.1v.1h-.1l-.1.1h-.2v.1h-.7v-.1h-.1v-.1h-.1v-.4h-.1v-.7h-.1l-.1-.1h-.5v-.1h-.1v-.1h-.1v-.2h-.1v-.2l-.1-.1v-.1h-.2v-.1l-.1-.1h-.1l-.1-.2-.1-.1v-.1l-.1-.1v-.1h-.6l-.1.1h-.2v-.1h-.2v-.1l-.1-.1v-.2h-.1v-.1h-.1l-.1.1v.1l-.1.1h-.2v-.4h-.1v-.1h-.8l-.1-.1h-.3v-.1l-.1-.1h-.1v-.2h-.3l-.1-.1h-.2v-.2l-.1-.1-.1-.2v-.1h-.6l-.1.1h-.1v.1h-.1v.1-.1h-.1v.1h.1v.1h-.2v.1h-.2v.1l-.1.1-.1.1v.2h-.1v1.1h.1-.1v-.1.1h-.1v.2h-.1v.1h-.1v.1h-.1v.4l-.1.1v.1h-1l-.2-.3-.3-.3v-.5l-.2-.1h-.4v-1.7l.1-.3v-.6l.2-.2v-.9l-.2-.3h-.1l-.1-.1-.1-.1v-.3h-.1v-.3h-.1l-.1-.1h-.1v-.1h-.2v-.1h-.1v-.1l-.1-.1h-.1v-.2h-.1v-.3h-.1v-.3l-.1-.1h-.1v-.3h-.1v-.2h-.1v-.2h-.1v-1h.1v-.1h.1v-.1l.2-.1.1-.1.1-.1v-.1.1h.1l.1-.1v-.2h-.1v-.2h-.1v-.4h.1v-.2h.1v-.1h.4l.1-.1h.1v-.3h.1v-.9l-.1-.2v-.1l-.1-.1v-.3h-.1v-.1h-.1v-.3h.2v-.1h.3l.1-.1h.1v-.1l.2-.1v-.1h.1l.1-.2v-1h-.1v-.1h-.1v-.4h-.1v-.3l-.1-.1v-.1h-.1v-.5l-.1-.1v-.1h-.1v-.1h-.2v-.1h-.1v-.6h-.2v-.1h-.1v-.6h.1v-.5h-.2v-.4h-.1v-.9h-.1v-.6l-.1-.1v-.1h-.1v-.4h-.1v-.2h-.1v-.2h-.1v-.1l-.1-.1v-.1h-.1v-.2l-.1-.2v-.3h.1v-.6l-.1-.2v-.1l-.1-.1v-.1l-.2-.1v-.1l-.1-.1v-.1h-.1v-.3l-.1-.1v-.3h-.1v-.2h-.1v-.1l-.1-.1-.1-.2h-.1v-.1h-.1v-.1l-.1-.1v-.1h-.1v-.1h-.1l-.1-.2h-.1v-.1h-.1v-.1h-.2v-.1h-.1v-.1h-.1l-.1-.1h-.1v-.1h-.1v-.9h.1v-.6h-.1v-.3h-.1v-.4l-.1-.1v-.2h-.1v-.1l-.1-.1v-.3h-.1v-1l-.1-.1v-.1h-.1v-.1l-.1-.1-.1-.1v-.2l-.1-.1-.1-.1-.2-.2v-.1h-.1v-.1h-.1v-.1h-.1v-.1l-.2-.1v-.1l-.1-.1-.2-.1-.1-.2h-.1l-.1-.2h-.1l-.2-.2h-.1l-.2-.3h-.1v-.1l-.1-.1-.1-.2v-.1h-.1v-.1l-.1-.1v-.3h-.1v-.2l-.1-.1-.2-.2v-.1h-.1v-.1h-.1l-.2-.2v-.1h-.1.1v-.3h-.2v-.2l-.2-.1-.2-.2h-.1v-.1l-.2-.1v-.1h-.1l-.2-.2h-.1l-.1-.1-.1-.1h-.1l-.1-.1-.1-.1-.2-.1-.1-.1-.2-.1-.1-.1h-.1v-.1h-.1v-.1h-.1l-.1-.1h-.1l-.1-.1h-.1v-.1h-.1v-.1h-.2v-.1l-.2-.1h-.1l-.1-.1h-.1l-.1-.1-.2-.1h-.1v-.1h-.2v-.1h-.2v-.1h-.1l-.1-.1h-.2l-.1-.1h-.1l-.1-.1h-.1v-.1l-.1-.1-.1-.1h-.1l-.1-.1h-.3v-.1h-.2v-.1l-.1-.1h-.1v-.1h-.1l-.1-.1h-.1l-.1-.1h-.1l-.2-.1-.1-.1h-.1l-.1-.1h-.2v-.1h-.1l-.1-.1h-.1v-.1h-.1l-.1-.1h-.1l-.1-.1h-.1v-.1h-.2v-.1h-.1l-.1-.1h-.2v-.1l-.1-.1h-.1l-.1-.2h-.2v-.1h-.1v-.1h-.2v-.1h-.1l-.1-.1h-.1v-.1l-.1-.1-.1-.2h-.1v-.1h-.1v-.1h-.1v-.1h-.1v-.1h-.1v-.1l-.1-.1v-.1h-.1v-.1h-.1v-.1h-.2v-.1h.2v-.1h.4l-.1-.1h-.3v.1h-.1v-.1h.1v-.1h.4l.1-.1v-.2h-.1v-.1h-.1v.1h-.1v-.1h-.1v-.2.1h-.2.1v.1h.1v.1h-.1l-.1.1h-.1l-.1.2-.2-.1h.2l.1-.1v-.1l.2-.1-.1-.1h-.1v.1h-.1v.2-.1h-.2v.1l.1-.2v-.1h-.1v-.1h-.1v-.1h-1.7l-.1-.1h-.2v-.1h-.2v-.1h-.3v-.1l-.1-.1h-.1v-.1h-.1l-.1-.1-.1-.1-.1-.1-.2-.1v-.1h-.1l-.2-.1-.1-.1-.1-.1h-.1l-.1-.1h-.1v-.1l-.2-.1h-.1v-.1h-.1v-.1h-.1v-.1h-.1v-.1h-.1v-.1h-.1l-.1-.1h-.1v-.1h-.1v-.1h-.5v-.1h-.3l-.6-.6-.5-.5.2-.2-.3-.3-.2.1-.4.3v-.5l.3-.2-.4.2v.6l-.3.2-.6.4-1.1-1.5-.1-.1-.2-.3.3-.2.5.7.3-.2.6.9.4-.3-.5-.7.2-.2-.5-.6h.2v-.1h.1l.1-.1v-.2h.2l.2.1.7.8h.3v.1l.2.2-.2-.2.2-.2h.2l.2.2.2.2h.2v-.1l-.2-.2h-.1l-.1-.2v-.1l.2-.1v-.2l-.2.1-.2.2-.2-.2v-.2h-.1l.2-.2v-.1l.1-.1h-.2l-.2.2-.2.2-.5-.6.4-.3-.2-.2-.3.3-.2.1-.5-.6-.3-.3h.2v.2l.4-.3h-.2v-.2h-.1l-.2.1-.1.1-.2-.2-.2-.2v-.1l-.4-.5v-.1h.1l.2-.1.2-.1h-.5l-.2.2v-.2l-.3-.4-.3-.6-.4-.7-.1-.2h.2l.5.2v.2l.2.4v.1l.3.2v.3l.1.1h.1v-.3h-.1v-.2l.3-.1.2-.1h.2v-.1h-.3l-.1.1-.4.1v-.3h-.1v-.5l-.6-.3h.1l.1-.4v-.1h-.1l-.1.2-.4-.2h-.3v-.1l.2.1.3.2h.1v.2l-.3-.1-.4-.2-.1-.1h-.4.1-.2v-.4.4h-.1l-.2.1v-.3l-.4-.1-.3.1.4-.2v-.5h-.1v-.2h-.1v-.1h-.1v-.1h-.1v-.2h-.1v-.2h-.1v-.2h-.1v-.2l-.1-.1v-.3h-.1v-.8h.1v-.4h.2v-.1h.1v-.2h.3v-.1h.1v-.1l.1-.1.1-.2v-1.1h-.1v-.1l-.1-.4-.1-.1h.1v-.1h.1v-.4l-.1-.2-.2-.3v-.3h-.1v-.4l-.1-.1v-.2h-.1v-.2h-.4v-.2h.1v-.1l-.1-.2v-.2l-.1-.2-.1-.1v-.3l-.1-.1v-.1l-.1-.2h-.1v-.3l-.1-.1-.2-.2v-.2l-.1-.1v-.1l-.1-.2h-.4v-.1l.2-.1v-.5h-.1v-.1l-.1-.3-.2-.3v-.1l-.1-.2-.1-.1v-.1l-.1-.2v-.2l-.1-.1-.1-.2v-.1l-.2-.1v-.3h-.1v-.2h-.1v-.2h-.1.1v-.1h-.1v-.1l-.1-.1h-.6l-.1-.5h.4v-.6h-.1v-.5h-.1l-.1-.4-.2-.6h-.1v-.3h-.1v-.4l-.1-.1h-.3l-.2-.6-.1-.1.3-.1v-.4l-.1-.3-.1-.4v-.2l-.2-.3v-.2l-.1-.1v-.1l-.1-.2v-.1h-.1v-.1h-.1v-.3h-.1v-.3h-.1v-.1h-.1v-.5l-.2-.1v-.5l-.1-.2v-2.2l-.2-.4v-.2l-.1-.2v-.1l-.2-.4h-.1l-.1-.4v-.1l-.2-.1v-.3h.1l.2-.2.2.3.1.1v.1h.2v-.2h-.2v-.2l.3-.1v-.6h.2-.8l-.1-.1-.1-.1v-.2h-.3v-.1l-.1-.2-.2-.1v-.4l.4-.1h.2v-.2h-.2v.1h-.5.3v-.2h-.1l.1-.1v-.1h-.2v.2l-.1.1v.3l-.2.2-.2-.2-.1.1.2.3-.1.1v-.1h-.1l-.2.2.2-.2-.1-.1-.1-.1-.1-.1-.1-.1h-.1v-.3h-.2l-.1-.1h-.2.1l-.1-.1-.2-.2-.1-.1-.2-.1-.1-.1-.1-.1-.3-.3-.2-.1v-.1h-.2v-.1l-.4-.3h-.1l-.1-.1-1.7-1.2h-.2v-.1h-.1l-.2-.2h-.3l-.1-.1h-.2v-.1h-.1v-.5l-.2-.1h-.5l-.3-.1-.2-.3-.3-.3h-.3l-.2.3.2.2v.3l-.1.1h-.1l-.2-.2v-.5l-.3-.7v-1.2l.1-.3v-1.8l.1-.2.1-.2.2-.3v-.2l.1-.1.3-.2v-.3l.2-.2.2-.2.3-.5.1-.3h.1l.2-.3v-.3l.2-.3v-.3h.1v-.3l.1-.1.1-.3v-.7l.1-.1v-.2h-.1v-.5l-.1-.1-.1-.1v-.1h.3v-.1h.1l.1-.2.1-.2.3-.5.1-.4v-.1l.1-.4-.3-.1-.1-.2v-.1l.1-.2h.3l.1-.2.1-.2v-1.2h.3v.5h-.1v.3h.3l.1.1v.4h.3v-.5.2h.2v-.2.3h.1v-.1h.3v-.1h.2v-.3l-.1-.1h-.6v-.3h-.1v-.1h.1v-.1h-.1l.2-.3v-.2h.1l.1-.1v-.3h.1v-.1h.1v-.1h.1v-.1l.1-.2h.2v-.4h-.2v-.4l.1-.2v-.1h.1l.1-.2h.4v-.1l.1-.1h.6-.5v-.1h-.1v-.2l.3-.1h-.1l-.3.1-.2.2-.3.1v.1h-.6l-.1-.1h-.1v1h-.1v-2.6l.1-.1v-.1l.1-.1h.5l.1-.2h.2v-.1h-.2v-.4l.1-.1v-.2h.1v-.2h.1v-.1l.1-.1v-.1l.1-.1v-.2l.1-.2v-.1l.1-.1v-.3h.2v.1h.1l.1.1h.1l.1.1h.5v-.2h-.3v-.1l-.1-.1-.2-.1v-.2h.1v-.3l.1-.2h.1v-.2l-.1-.1h-.1v-.1l-.2-.1v.1-.1h-.3v-.1l.1-.1v-.1l.1-.1v-.1l.1-.1.1-.1v-.1l.2-.2v-.2h.2v-.3l.1-.1v-.4l.1-.1v-.2h.5v-.1h.1v.1l-.1.1v.2l-.1.1v.1h-.1v.1h-.1l-.1.1h-.1v.2h.2v.1h.2v-.2l.1-.1v-.1l.1-.1h.3v.2h-.1v.1h.1v.7l-.1.3v.2-.7h.1v-.4h.2v.1h.1v.1h.1v.1l.2-.1v-.1l.2-.3v-.9h-.1.1l.1-.1v-.3h.1v-.5l-.2-.3.3.2v-.2h-.1v-.1h-.2v.1-.1h.4l.2-.1.1-.2h-.1v-.4h-.1v-.5h.3-.3v-.1h-.3v.1h-.1l-.1.1v.2h-.1v.1h-.1v-.2h-.1v-.8l-.1-.1v-.2l.1-.3v-.3h.1v-.1h.2v-.1h-.1l.2-.1h.3l.5-.1v-.1h-.8l-.1.1h-.6v-.8h.1l.1-.2.1-.1v-.1l.2-.1v-.1l.1-.1.2-.1h.1l.1.3h.1l.3.1v-.5l-.1-.1-.1-.2-.1-.1h-.1v-.1h-.1l-.1-.1h-.4v.1l-.1.1h-.1l-.2.1-.2.2h-.3v.1l-.3.1-.1-.3v-.2l.4-.3.4-.1v-.3h.1v-.3h-.2v-.3h.1v-.2l.1-.1.1-.1h.1v-.2l.1-.1v-.1h.1l.1-.1h.1v-.2h.1v-.8l-.6.1-.4.2-.6.2h-.6l-.2-.1v-.1l-.1-.2h-.1v-.2l-.1-1.6v-.2l.2-.1.1-.1h.3l1 .2h.1l.1-.1h.8-.6v-.6l.2-.2v-.1l.1-.2v-.3l-.2-.1-.1-.1-.1-.1v-.1l-.2-.2v-.1l-.1-.2v-.8h-.2v-.4h.2v-.1l.2-.3v-.4h-.1v-.1h-.1V543l.2-.1.1-.2v-.2h-.2v-1.1h-.1v-.2h-.3v-.1h-.2v-.4h.4v-.3l.1-.2v-.7h.1v-.8l.1-.1v-.3h.1v-.1l.1-.1h.1v-.3l-.1-.1v-.1h.2v-.2h.2v-.3h.2v-.2h.1v-.1l.2-.3v-.1l.1-.1v-.2l.2-.2v-.3h.1v-.1h.1v-.1h.1v-.1h.1v-.1h.1v-.2h.1v-.1l.1-.1v-.1l.3-.3.1-.1h.1v-.1h.3v.1l.1.1h.2l.1-.1v-.2h-.2l-.7-.2h-.3l-.1-.1v-1.3h.1l.1-.9v-.3l.1-.1v-.2l.2-.6v-.2l.2-.4h.7l.2-.1h.5l.1-.3h-.6l-.2-.1h-.1l-.2.1h-.2l-.2.1H701l.3-.5-.2-.6.4.2.1-.2.3-.5.2-.5.5-1 .1-.3h-.2v.2l-.7-.2.1-.2v-.1h-.3v-.2l.5.1h.1l.3-.2.1-.1h.1l.1-.1h.1l.2-.2.8-.5.1-.2h.2l.6.1h.1l.6.2v-.6l-.2-.1v-.3l.2-.2h.1l.1.1h.1l.2.1.2.1.2.2v-.1h.2v.1h.1v.2h.1v.2h.2v-.1.1h.1v-.1h.2v.2h.1v-.6.1h-.1v.1-.4h.8v.1h.2l.1.1h.7v-.1h.1v-.8l-.4-.2-.2-.1h-.2v-.1l-.1-.1h-.1v-.1h-.2v-.4h-.1l-.1-.1h-.1v-.2h-.1v-.5l.6.3h.2l-.2-.2v-.1h.2v-.2h.1v-.1h.1l.1-.1h.2v.4l.1-.2.1-.1h.2l.4-.4h.1l.3-.3h.2v-.7h.2v-.2h.1v-.1h.1v-.2h.1v-.2h.1v-.3l.1-.1.2-.3.1-.2v-.1l.2-.2v-.2l.1-.1v-.1l.1-.1v-.1l.1-.1v-.1l.3-.4v-.2l.1-.3v-.7l-.2-.1h-.3l-.1-.1v-.2l.4-.8.5-.8.1-.2.1-.1v-.1h.2v-.5l.1-.3.2-.5.1-.3.1-.3h.1l.2-.1h.9l.4-.2h-.3l.1-.5v-.4h.2v-.2l.1-.2v-.1l.1-.2.2-.3.1-.4.4-.3.3-.5v-.2h.1v-.2l.2-.3h.2v-.1l.1-.1.3-.1v-.1l-.3-.2h.2v.1h.2l.4-.1h.1l.3-.2.2-.2h.1l.2-.1.1-.1h.1v.2h.2v-.3h.1l.1-.1v-.5l.1-.2.1-.2v-.2h.1v-.1h.1v-.1h.1l.1-.1.2-.5.2-.2.1-.1.1-.1h.3l.1-.1v-.1h.2v-.1h.2v-.5h-.2v-.5l.1-.1v-.3l.2-.4v-.1l.2-.7v-1h.1v-.1l.2-.1v-.2l.2-.1v-.1l.1-.2.1-.1.2-.2.1-.2.1-.1.1-.2.4-.4h-.2l-.7 1h-.1v.1l-.1.1-.2.2-.3.5-.1.7H720l-.4 1.6v.1l-.3.3v.1h-.6v.1h-.1l-.1.1v.3h-.1v.1H717v-.1h-.2v-.1h.2l.6-.9.1-.1.1-.1.1-.2.1-.1.1-.2.1-.1.5-.6v-.2h.6v-.1h.1v-.1l.1-.1v-.2l-.2-.2.3.2v-.1h.1v-.1l.1-.1v-.1h.1v-.1l.1-.1v-.1h.1l.1-.2-.3-.2.7-1 .1-.1h2.3v-.1h.2v-.1l.1-.1v-.1l-.1.1.2-.2v.1-.2l-.2-.1h-.1v-.1l.1-.1.1-.2.1-.1v-.1l.2-.1v-.1h-.1.1l-.1-.1v-.3l.2-.1v-.1h.1-.1v.2h-.1v.2h-.1l.1.1h.2l.1-.2.1-.1-.1-.1h.2v-.2h-.2v.1-.1h.1l.2.1v-.1h.1v-.2h.1v-.2h.1v-.2l.1-.1.1-.1.3-.6v-.1h.1-.1l-.1-.1h-.1l-.2-.1-.2-.1h-.1l-.1-.1h-.2l-.1-.1h-.2l-.2-.1v-.1h-.2l-.2-.2h-.1l.2-.4.3-.7.2-.5.1-.4h.3l.2.1h.1l.1.1h.1l.3-.6.2-.5v-.2l.1-.1h-.1v-.1l.1-.4.2-.4.1-.3.4.2.6-1.3-.3-.2h-.1l-.2-.3.2.2.6.3v-.1.1l-.3 1-.2.7h-.1v.2h-.1v.2l-.2.2v.2l-.1.2-.5-.2-.5 1.4-.3.9v.1l.3.2v-.3l.4-.9.2-.3h.2l.2.1.2.5h.2v-.3l-.1-.4v-.2h.1v-.1l.5-1.4h.1l.5-1.3h.2l.2.3-.3.8h-.1v.3h.2l.1-.2.1-.2.1-.2.2-.5-.3-.6v-.2l.8-.1h.1v-.2h.1v-.1h-.2l-.9.1h-.5v-.1h-.1v-.2h-.2v-.1l-.4-.2h-.5l-1-.4 1 .4h.7l.2.2.1-.1.1-.1h.1v-.1l.1-.1v-.1h.1l.2-.1v-.1l.1-.1v-.1l.1-.2v-.1h.1v-.3l-.3-.2h.8l.1.1.1.1.4.3h.5v-.4h.1v-.2h.1v-.1h.1-.1v-.2h-.1l-.1-.1-.2-.1h-.3v-.2h.9v-.1h.1v-.2h-.1v-.3h.2-.2.1v-.1h-.1.1v-.2h.2l-.1-.1h.1-.2.1v-.2h.1l.1-.1v-.1h.1v-.1l.1-.1v-.1l.1-.1v-.1h.1l.1-.3.1-.2h.2l.2-.2.1-.1.3-.2v-.3l.5-.5v-.2h-.2v-.1l.1-.3.2-.2v-.5l.1-.1v-.1l.2-.2v-.3h.1v-.7h.1v-.1h.1v-.2h.1v-.1h.1v-.3h.1l.1-.1v-.1h.1l.1-.1.1-.1.1-.1.1-.1v-.1h.1v-.1l.2-.1v-.1h.1v-.2h.1v-.1h.1v-.1l.1-.1v-.1h.1v-.1h.1l.2-.1v-.3h.1v-.2l.1-.1.2-.1v-.1h.2v-.1h.2l.2-.1v-.2.1-.1.1h.1v-.1h-.1l-.2-.2.2.1h.2l.2-.2.1-.1.2-.1v-.2h.2v-.1l.1-.1v-.2h.2v-.2h.1v-.1l.1-.2h.1l.1-.2.2-.2v-.1h.1v-.1l.2-.2.1-.1v-.2h.1l.1-.1v-.5l.1-.1v-.2l.1-.2h.1v-.1h.1v-.3l.2-.2v-.1h.1v-.2l.2-.1v-.1l.2-.4.2-.4.2-.2.4-1v-.1l.1-.3v-.1l.2-.5v-.3h.1v-.3h.1v-.1h.1v-.2l.1-.1v-.1l.1-.2.1-.1v-.2h.1v-.2h.1v-.4h.1v-.1h.1v-.3l.1-.2v-.4l.1-.2v-.1h.1v-.1h.1v-.3h.1v-.1l.1-.1v-.2h.1v-.1l.1-.1v-.1h.1l.1-.1v-.1h.1v-.2l.1-.1h.1v-.1h.3l.1-.1h.1v-.1h.1l.1-.1h.2l.1.1.2.1h.1l.1.1h.1l.1-.1v-.1h.2v-.1h.2v-.6l.2-.4v-.1l.1-.1v-.1h.1v-.2h.1v-.2l.1-.2v-.4h.1v-.1h.1v-.1l.1-.1.1-.1.3-.2v-.4h.2v-.1h.2v-.2h.1l.1-.2h.1v-.2h.2v-.1h.4l.4-.1h.3l.3-.1h.2l.3-.2h.2l.4-.2h1.1v-.6l.1-.1.1-.1.1-.1h.1v-.1h.1v-.1h.1v-.1h.1v-.1h.1v-.1h.1l.1-.1.1-.1.1-.1.1-.1.2-.2h.1v-.1h.1v-.1l.1-.1v-.3h.2v-.1h.1v-.2h.1v-.4h.1v-.6h.1v-.4h.1v-.1l.1-.1.2-.2h.1l.1-.1.2-.2h.1v-.1h.1v-.1h.1l.1-.1v-.1h.1l.2-.2h.1l.1-.1.1-.1h.3v-.1l.2-.1.3-.2h.2v-.1h.1v-.3h.1v-.2l.1-.1v-.5h-.3l.1-.2-.1-.1v-.1h.3l.2-.1h-.1v.1h.3l.1-.1v-.6h.1v-1.7h.1v-.1h-.1v-.3l.1-.1h-.3v-.5h.4v-.1h.1v-.1h-.1v-.1h-.6v-.1l-.1-.1v-.5l.2-.3v-.1l.2-.3v-.3h.1l.1-.2v-.1h.1v-.1l.1-.1v-.3l.1-.1v-.5l.3-.2h.4l.2-.2v-.2l.2-.1v-.1h.1v-.1l.1-.1h.1v-.1l.1-.1v-.1h.1v-.1h.1v-.1h.1v-.1h.1v-.2l.1-.1.1-.2v-.1h.1v-.1l.1-.1v-.1l.1-.1v-.3h.1v-.3h.1v-.2h.1v-.1h.1v-.1h.1v-.1l.1-.1v-.1h.1v-.1l.4-.5v-.2h.1v-.2h.1v-.1h-.2v-.3l.1-.2v-.1l.1-.1v-.2h.1v-.1h.1v-.5h.3l.1-.1.1-.1.1-.1v-.1h.1v-.1h.1v-.1l.2-.1v-.2l.1-.1v-.1h.1v-.2l.1-.1v-.1h.1v-.2h.1l.1-.1h.1v-.1h.1l.1-.1h.1v-.1h.1v-.1l.1-.1v-.1l.1-.1v-.2l.1-.1h.1v-.1l.2-.2.1-.1.1-.1v-.1h.1l.1-.2v-.3l.1-.2v-.6l.1-.1-.4-.1-.1-.1h.4v-.2l.2-.1v-.1l.1-.1.2-.4.1-.3.1-.1.1-.1.1-.2v-.1h.1v-.1l.1-.2v-.1h.1v-.1l.1-.1.1-.2h.1v-.1h.1v-.1l.1-.1.1-.1v-.3h.2l.1-.1.1-.1h.1v-.3h.2l.1-.1h.1v-.1h.1v-.1l.1-.1h.1v-.1h.1l.1-.1h.2l.1-.1h.1l.2-.1h.4v-.1h.1l.1-.1h.1v-.1h.1v-.1h.2v-.1h.2v-.1h.1l.1-.1h.1v-.2h.1l.1-.1h.1v-.1h.1l.1-.1h.2v-.2l.2-.1.1-.1.2-.1h.2v-.1h.3v-.1h.2l.1-.1h.1v-.1h.2l.1-.1h.2v-.1h.2l.1-.1h.4l.1-.1h.2l.2-.1h.4v-.1h.4l.2-.1h.2l.2-.1h.2v-.1h.2l.1-.1h.1l.1-.1h.2l.1-.1h.3v-.2l.1-.1.2-.1.1-.1h.2l.1-.1.2-.1h.1l.2-.2h.1l.1-.2h.2v-.1l.1-.1.1-.1h.1l.2-.1h.2v-.1h.1v-.1h.2l.1-.1v-.1h.4v-.1h.3l.2-.1h.4v-.1h.2v-.1h.1v-.1h.5v-.4h.8l-.1-.2h1.3l.3.2h.3l.3.1h1l.1-.1v-.1h.1v-.1h.2v-.1h.5v-.2h.9l.1.1h1.2l.1-.1h.2v-.1h.1l.2-.1h.3l.1-.1h.2l.1-.1h.1l.2-.1v-.1h.3l.1-.1h.1v-.1h.2v-.1h.1v-.1h.2l.1-.1h.1v-.1h.1l.2-.1h.1l.1-.1h.2v-.1h.2l.1-.1h.1l.1-.1v-.1h.1v-.2l-.4-.4.2-.2h.1v.1l-.1.1v.1l.3-.2h.1v.2l.2-.2v-.3l.2-.2h-.1l-.2-.3-1 .5h-.1l-.3.2h-.2l-.1-.2-1 .4v-.3l-.7.3.6-.3.2.3.9-.4-.4-.7.6-.3h1l.2.2.5-.6.7-.6h.1v-.2l.1-.1h.4l.2-.1v-.1h.1v-.1h.1v-.1h-.1v-.1h-.1l.2-.4v-.3h.3v-.1l.2-.1v-.1h.1v-.1h.1v-.1l.1-.1v-.1l.1-.1.1-.1.1-.1h.1v-.1h.2v-.1h.1v-.1l.1-.1v-.6h.1l.1-.1.1-.1v-.1h.1v-.6l.1-.1v-.1l.1-.1v-.3h.1v-.2h.1v-.1h.1v-.1h1.1l.2-.2h.1v-.1h.1v-.3h.2l-.1-.1v-.1h.1l.1-.1h.1v-.5h.1l.1-.1v-.1h.3v-.1h.1l.1-.1h.2v-.1h.2v-.1h.1v-.1h.1v-.1h.5v-.1h.1v-.1h.1l.2-.1.1-.1v-.7h.1v.1h.1v.3h.2l.1.1h.4v-.1h.6v-.1l.1-.1h.1v-.1h.1v-.6l.1-.1v-.1h.2l.1.1v.2h.1v.1h.2l.1.1h.2v.1h1.3l.1-.1v-.2h.1v-.1h.2l.2-.1h.6v.1l.1.1h.1v.1h.1v.1h.1l.2.1h.4v.1h.2l.1.1.1.1h.1l.1.1.1.1.1.2h.1v.1l.1.1h.2l.1.1h.2l.1.1h.1v.1h.1v.1h.1v.1h.1v.1h.1v.1h.1v.1h.1v.1h.1l.1.2v.1h.1v.1h.1v.2l.1.1v.1h.1v1.7l.1.1v.1h.2v.1l.1.1v.1h.2v.1h.1v.1h.2v-.2h.1l.1.1h.2v-.1.3h.1v.3h-.1l-.1.1v.3l.1.1v.1l.1.1.2.2v.1l.2.1v.1h.1v.1h.1v.1h.2-.1v.1h.1v-.2.2h.2v.2l.2.1.2.1h.2v-.1h.1v-.1h.1v.1l.1.1h.2v-.2h.1v-.1h.1l.1-.1.1-.2v.1h.2v.1h.2v-.1h.1v-.1h.1v-.1h.1v-.2h.1v-.1h.1v-.1h.1v-.1h.1v.3h-.1l-.1.1h-.1v.1h-.1v.1h-.1v.1h-.1v.3h-.1v.1h.2v.2h-.1v.1h-.1v.1l-.1.1v.2h-.2v.1h-.1v.6l.1.1v.1h.1v.2h.2v.1h.4v-.1h.1v.1h.2v.1h.1v.2h.2v.1h.3v.5h-.1v.1h.1v.1h-.1v.2h.5v-.1h.2v.1h.6l.1.1h.3v.1h.1l.1.1h.3l.1.1.3.2h.4l.1.1h.2v.1h-.2l-.4.3h.2l.3-.1.1.1-.3.2.1.1h.2v.2l-.4.3-.2.1h-.1l-.1-.3h-.1v.4h.2l-.2.4v.2h.1v.1h.1l.2-.5.4-.2.5-.4v.1h.2v-.2h-.2.2v-.1h-.2.2v-.2h.2v-.1l.1-.1h.1l.1-.1h.2v-.2h.2l.1.1v.1h.1v-.2l-.1-.1v.1l.2.2.1.1h.3v.1h.2l.3.1h.1l.1.1h1v-.1h.1v.1h.1-.1v.2h-.2v.2h-.1v.3h.1v.2h-.1.2v.1h.1v.1h1.1v-.1h.3l-.1.1v.2h-.2v.1h-.1v.1h-.1v.5h.1v.1h.6v-.4h.4v-.1h.5v-.1h.1v.1h.5l.1.1h.2l.1.1h.2l.1.1h.2v-.1h.1v.2h.5v-.1h.5v.1h.9l.1.1v.1h.6v.1h.2v-.1h.1v-.1h.1l.1-.1.1.1h.3l.1-.1h.1v-.1h.2v-.1h.1v-.1h.3v-.1h.2v-.1h.1v.3h-.1v.2h-.1v.2h-.1v.1h-.1v.1h-.2v.1l-.1.1-.1.1v.1h.1v.1h.3l.1-.1h.1l.1.1v.6h.1v.1h-.3v.1h-.1v.6h-.1v.1h-.1v.2h-.1v.7h.1v.6h.2v.2h.2v.1h.2v.4h.2v.1h.1v.1h.2v.4h-.1v.2h.1v.4h-.1v.2h-.1v.1h.3v.2l-.2.1v.1h-.1v.2l.1.1v.2h.1v.2l.1.2h.1v.1h.1v.2h.1l.1.1v.1h.1l.2.2h.1v.1h.1v.2h.3v-.1h1.1v-.1h.2l.1-.1h.2l.1-.1h.7l.1.1.2.1h.1v.1h.2v.7h.2v-.1h.1l.2-.2v-.1l.1-.1v-.1h.1v.1l.1.1v.1h.1v.2h.3v.9h-.7v.2h-.1l-.1.1h-.1v.1h-.2v.1h-.2v.2h-.1v.1h-.1v.1h-.5v.2h-.1v.1h-.1v.1h-.1v.1h-.1v.1h-.1v-.1h-.2v.2h-.8l-.1.1v.1h-.2v.1h-.3v.1h-.2v.1h-.1v.1h-.1l-.1.1v.1h-.6l-.1.1h-.1l-.1.1-.2.1-.1.1v.1h-.1v.1l-.1.1v.3l-.1.1h-.1v.1h-.1v.4h-.1v.1h-.1v.1h-.4v.2h-.2v.1h-.1v.1h-.1v.1h-.1v.5-.1h-.7l-.1.1h-.1v.1h-.1l-.2.2v.1l-.1.1v.7h-.1l-.1.2h.1v.3l-.1.1v.1h-.1v.1l-.2.1-.1.1v.1h-.1v.1h-.1v.1h-.1v.1h-.1v.3h-.3v.1h-.3v.3h-.1v.1h-.1v.1h-.1v.1h-.1v.1h-.1l-.1.1h-.2l-.1.1h-.1v.2l-.1.1v.1l-.1.1v.1h-.1v.1h-.1v.1l-.1.2v.2h-.1v.1l-.1.2v.6h-.1v.1h-.1l-.1.1v.3h-.1v.1h-.1v.2h-.2v.2l-.1.1v.1l-.1.2-.1.4-.1.3v.3l-.1.1v.4l-.1.1v.3l-.1.3v.5l-.1.1v.5l-.1.3v.5l-.1.2v3.5l.1.1v.4l.1.2v.2l.1.2.1.3.2.3v.2h.1v.2l.1.1v.2h.1l.1.3.2.3v.2l.1.2v2.9l.1.1v.5h.1v.6l.1.2.1.4v.2l.1.1v.2l.1.2v.1l.1.1v.3h.1v.2l.1.1v.2h.1v.2h.1v.2h.1v.2l.1.2.1.1v.1l.1.1.1.1v.1l.1.1.1.2h.1v.1l.2.2h.6v.1h.1v.2h.5v.1h.3v.1h-.1v.2h.1v.1h-.2v.3l-.1.2-.4.5.1.1h-.3v.2h.1v.1h.1v.2h.2v.1h-.3v.1h-.2l-.1.2v1.9h.1v.3l.2.2v.1h-.1v.7h.2v.1h-.2v.3h-.2v.2h-.7v.1h-.1l-.1.1h-.1v.1h-.2l-.1.1h-.2v.1h-.5v.1h-.1v.2h-.1v.4l-.1.2v1h.1v.1h.2v-.1h.1v.1h.2v.1h.2v.9l.1.1h.6v.1h.1v.2h-.9v.1h-.1v.1h-.3v.1h-.1l-.1.1v.2l-.2.1h-.2v.1h-.1v.1l-.2.1h-.1l-.1.1h-.1v.1h-.2v.1h-.1v.1h-.1v.3h-.1v.2h.1v.2l-.1.1h-.1l-.1.4h-.1l-.1.2-.2.2-.1.1-.2.1v.1h-.2v.2h-.1l-.1.1-.1.2-.1.1v.2h-.1v.2l-.1.1v.1l-.1.1v.2l-.1.1v.1l-.1.2v.3l-.1.1v.3h-.1v.4l-.1.2v.9l-.1.2v1l-.1.2v.1l-.1.1v.1l-.1.1v.3h-.1v.1l-.1.2-.2.2v.3l-.1.1v.2l-.1.1v.1l-.1.1v.2h-.1v.3h-.1v1.4l.1.2v1.1h-.1v.2h-.1l-.1.2h-.1l-.2.3-.1.1v.1h-.1v-.3l.1-.1.3-.2-.2-.1-.1-.1h-.2l-.1-.1v.2h-.1v.3l-.1.1-.1.3h.1v-.1h.1v-.2h.1v.3l-.1.2v.1h-.2l-.1.2-.1.1-.1.2v.1l-.2.3v.2l-.1.1v.3l-.1.2v.4l-.1.1v.3h-.1v.2h-.2l-.1.1-.1.2h-.1v.1l-.2.1v.1l-.1.1v.1h-.2v.1l-.1.1h-.2v.1h-.4l-.2.2h-.1l-.1.1v.1l-.2.1v.2l-.2.3v.1l-.2.3v.1l-.1.1h-.1v.1h-.1l-.1.1h-.2v.1h-.1l-.1.1h-.1v.1h-.1v.1h-.2v.1h-.1v.1h-.1v.1h-.1v.1h-.1v.1h-.2l-.1.1h-.1l-.1.1h-.2v.1h-.2v.1l-.1.1v.1l-.1.2v.2h-.1l-.1.1h-.1v.2l-.1.1-.1.1v.2l-.1.2-.1.3-.1.2v1.7h.1v.2l.1.1v.2l.1.1v.3l.1.2v1h-.1v.2h-.1l-.1.2h-.1v.2h-.1v.2l-.2.2-.1.1v.1h-.1v.1h-.2v.2h-.1l-.1.1-.2.1-.1.1h-.1v.1h-.2l-.2.2h-.1l-.1.2h-.1l-.1.1-.2.2-.2.3v.1l-.1.1v.1l-.1.1v.1l-.1.2h-.1v.2l-.1.1v.3l-.1.2v.2l-.1.2v1.5l.1.1v.2l.1.2v.1h.1v.2l.1.2v.1l.1.1v.1l.1.1v.1l.2.2v.1l.1.2.1.2.2.3h.1l.1.2h.1v.1l.3.2.1.1h.1l.1.4.1.2v.1l.1.1v.2l-.1.2h-.1v.3h-.1v.2l-.2.2v.1h-.1v.1l-.1.2-.1.1v.2l-.1.1v.5l-.5.9-.1-.4h-.1l-.1-.2-.2-.1h-.1v-.1h-.1v-.1.4h-.2l-.1.3-.2.3-.1.2-.1.1v.1l-.1.1v.1l-.1.2v.9h.1v.3l.1.1v.4h.1v.5l-.1.1v.6h-.1v.1l-.1.2v.2l-.1.1v.4h-.1v1.9l-.1.2v.5h-.1v.5l-.1.2v.3h-.1v.6h-.1v.2l-.1.2v.1l-.1.1v.3h-.1v.2l-.1.1v.2h-.1v.2h-.1v.4l-.1.1v.2h-.2v.4h-.1v.4h-.1v.1l-.1.1v.1h-.1v.1h-.1v.1h-.1v.2h-.1v.2l-.1.1v.2h-.1v.4l-.1.2v1.1l-.1.2v1.5h.1v.1h.1v.3h-.1v.3l-.1.1v.1l-.1.1v.2h-.1v.3h-.1v.2l-.1.1-.1.2v.1l-.1.1-.1.1v.3h-.1v.1h-.1v.2h-.1v.1h-.2l-.1.1v.1l-.1.2v.1h-.1v1.5l.1.1h.1v.4h-.1l-.1.2v.2h-.1v.6h-.1v.4l-.1.1v.4l-.2.1v.2h.1v.2h-.1v.2h-.1v.5h.1v.2h-.2l-.2.2h-.1v.2l-.2.4v.7h-.1v.1l-.1.1v.7h-.1v2.4h-.1v.4l-.1.1v.4h-.1v.6l-.1.1-.1.1v.4h-.2v.2h-.1v.2h-.1v.1l-.1.1v.1h-.1v.1l-.1.1v.2h-.1v.1l-.1.1v.5l-.1.1v.4h-.1v.2l-.1.2v.3h-.1v.6h-.1v.3h-.1v.4h.1v1.3h.1v.2h.1v.4h.3v-.1.1h.1v.2h.2-.1v.5h-.1l-.1.1v.1h-.1v.5h-.1v.2h-.2v.1l-.1.1v.2h-.1v.3h-.1v.4h-.1v.4h-.1v.6l-.1.1v.5l-.1.3v.1l-.1.1v.1l-.1.1-.1.1v.2h-.2v.5h-.1v.2l-.1.1v.2h-.1v.1h-.1v.6l-.1.1v.4l-.2.1h-.1v.1l-.1.1v.5h-.1v.4h-.1v.5l-.1.1v.2h-.1v1.7h-.1v.2l-.1.1v.4l-.1.1v1.1h-.1v.6h-.1v.1l-.1.1v.4h-.1v.1h-.8l-.1.1h-.1v.1h-.1v.1l-.1.1-.1.1-.1.1v.1h-.1v.1l-.1.1v.1h-.1v.1l-.1.2-.1.1v.1l-.2.2v.2l-.1.1-.1.1v.1l-.1.2v.1h-.1v.3l-.1.1v.8h-.1v.1h-.1v.1h-.1v.3l-.1.2v.2l-.1.2v.3l-.1.1v.4h-.1v.5h-.1l-.1.1v.7h.4v.2h-.1v.1h-.1v.1h-.1v.1l-.1.1-.1.1v.1h-.1v.1h-.1v.1h-.1v.1h-.4l-.1.1v.1l-.2.2h-.1l-.1.1v.3l-.1.1v.9h.1v.5l.1.1v.2l.1.1h.1v.1h.3l-.2.2v.4h.1v.1h.1v.1l.1.1v.5h-.1v.5h-.1v.1l-.2.1v.1h-.1v.8l-.1.1v.4h.1v.4l.1.1.1.1h.1v.1h.2v.1h.2v.1h.1v.2l-.1.1-.1.2h-.1v.1h-.1l-.1.1h-.2v.1h-.1v-.1h-.1v-.1h-.2v.1h-.1v.2h-.1v.1l-.1.2h-.1v.1h-.1v.1h-.1v.2h-.1v.2h-.1v.3l-.1.2h-.3v-.1h-1l-.1.1-.1.2h-.1v.1l-.1.1-.1.2v.1h-.1v.4h-.1v.1h-.1v.6h-.1l-.1.2h-.2v.1h-.1v.4h-.1v.3l-.1.1v.7h-.1v.4l-.1.1v.1h-.1v.1l-.1.1v.2h-.1v.4h-.1v.5h-.1v.1h-.1v.5l-.1.1h-.2v.1h-.2v.5h-.1v.2l-.1.1v.1h-.2v.2h-.1v1h-.1v.2l-.1.1v.1h-.1v.2l-.1.1v.1h-.1v.3h-.1v.1l-.1.1v.1h-.1v.1h-.1v.1h-.2v.2h-.1v.1l-.1.1-.1.1h-.1v.2l-.1.1v.1h-.2v.1l-.1.1v.2h-.1v.1h-.1v.1h-.1l.1-.1.1-.1h-.2v.1h-.3v.1h-.1v.2h.1v.1h-.1v-.1h-.2v.1l-.1.2-.1.2v.3l-.1.1v.6h-.1v.1h-.1v.1h-.1v.2h-.1v.3h-.1v.3h-.1v.1h-.1v.2l-.1.2v.1h-.2v.1h-.2v.2h-.1v.2h-.1v.1h-.1v.4h-.2v.1l-.1.1v.2l-.1.1v.2h-.1v.2h-.1v.2h-.1v.1h-.1v.1l-.1.1h-.4l-.1.2h-.1v.1l-.1.1v.2h-.1v.2l-.1.1v.3h-.1v.1h-.4v-.2h-.5v.1l-.1.1h-.5v.1h-.5v.2h-.2v.1h-.1l-.1.1h-.1v.2h-.1v.1h-.1l-.1.1h-.1v.1h-.1v.1l-.1.2h-.1v.1l-.1.2v.6h-.1v.2h-.1v.5l.1.1h.2v.1h.1v.4l.1.1v.3h.1l.1.1v.5h.1v.2l.1.1v.4h.1v.4h-.1v.1h-.1v.1h-.1v.1l-.1.1h-.2v.1h-.1v-.2h-.2v.1h-.1l-.1.1h-.1v.1l-.1.2-.1.1-.1.2v1.3l-.1.1v.2l-.2.1v.1l-.1.1v.1h-.1l-.1.1-.2.1h-.1v.1h-.1v.1h-.2v.1h-.1l-.1.1h-.2v.1h-.1v.1l-.1.1h-.1v.1h-.1v.1l-.2.2h-.1v.1l-.1.1h-.1v.1h-.1v.1l-.2.1v.1h-.1l-.2.2-.1.1-.1.1v.1h-.1v.1l-.1.1-.1.1-.1.1-.1.1h-.1v.1l-.1.1h-.1l-.1.1-.1.1h-.2v.1h-.2v.1h-.2l-.2.2h-.1l-.1.1h-.1l-.1.1-.1.1h-.2l-.2.1h-.2l-.2.1-.2.1-.2.1h-.1l-.1.1h-.1l-.1.1-.1.1h-.2v.2h-.2v.1h-.1v.1l-.2.1v.1h-.1v.2h-.2v.3h-.2l-.1.2h-.1v.1l-.3.1v.1l-.2.1h-.1l-.3.2h-.1l-.2.1h-.1l-.1.1h-.1l-.1.1-.2.1h-.1l-.1.2h-.1v.2l-.2.1-.1.1v.1l-.2.3-.1.2-.1.2-.1.2v.1l-.1.1v.1l-.1.2v.1l-.1.1v.2l-.1.1v.2l-.1.1v.2l-.1.2v.1l-.1.3v.2l-.1.2v.8l-.1.2v.4l-.1.4v.5l-.1.1v.1h-.1v.1l-.2.1v.1h-.1v.1l-.2.1-.1.1v.1h-.2v.1h-.1v.1h-.1l-.1.1h-.1v.1h-.1v.1l-.3.2v.1h-.1v.2h-.1v.1l-.1.2v.1l-.1.1v.1l-.1.1v.1l-.1.2v.1l-.1.2-.1.2v.2l-.1.2v.3h-.1v.3h-.1v.3l-.1.1v.4h-.1v.1h-.1v.3l-.1.2v.1l-.1.1v.1h-.1v.2l-.2.3v.5h-.1v.2l-.1.2v.2h-.1v.3l-.1.1v.3l-.1.2v.2l-.1.1v.2l-.1.4-.1.3v.2l-.1.2v.6h-.1v.2h-.1l-.1.1v.2l-.1.2-.1.2v.1l-.1.1v.2l-.1.2v.1h-.1v.2l-.1.3-.1.2v.2h-.1v.3l-.2.2h-.1v.2h-.1v.2l-.1.1v.2h-.1v.4h-.1v.4h-.1v.3h-.1v.1h-.1l-.1.2v.2h-.1v.1l-.1.1v.3h-.1v.4h-.1v.5h-.1v.3l-.1.3v.4h-.1v.1h-.1v.1h-.1v.1l-.2.2v.2l-.1.2v.2l-.1.2v.4h-.1v.2h-.2v.1h-.1v.6h-.1v.4h-.1v5h.1v.5h.1v.6l.1.1v.4h.1v.3l.1.1v.3h-.1v.1h-.1v.3h-.1v.4l-.1.2v.3l.1.1v.6l.1.1v.2l-.1.1v.1h-.1v.1h-.2v1.4l.1.1v.3h.1v.6l-.1.1v.5l.1.1v.6l-.1.1v.2l.1.1v.1h.2v.4l-.1.1h-.1v.1h-.1v.1h-.2v.1h-.1v.1h-.1v1.2l.1.1v.2h.1v.3l.1.1.1.1h.2v.1h.2v.1h.2v.3l-.1.1v.6h-.1v.1l-.1.1v.1h-.1v.1h-.1v.1h-.2v1l.1.2v1.2l.1.2v.7h.1v.2h.1v.2l.1.1v.2h.1v.3h-.1v.1h-.2v.1h-.1v.1h-.1l-.1.1-.1.1h-.1v.7l-.1.1-.1.1-.1.1h-.1v.1h-.3v.1h-.1v.7Z" class="land"/><path d="M807.5 674.7Z" class="land"/><path d="M802.9 669Z" class="land"/><path d="M802.5 669.3Z" class="land"/><path d="M802.8 669Z" class="land"/><path d="M806 670.6v-.1h-.3v.1h-.5v-.4h-.1v-.2h-.1l-.1-.1v-.1h-.1v-.1h-.1v-.2h-.1v-.1h-.1v-.1h-.1v-.1h-.1v-.1h-.2v-.1h-.1v-.1h-.3l-.1-.1h-.4l-.1.1h-.5v-.1h-.1v-.1h-.1v-.1l-.1-.1-.1-.1-.1-.1h-.1v-.2l-.1-.1v-.1l-.1-.1h-.3v-.2h-.1v-.1h-.1v-.1l-.1-.1v-.1h-.3v-.1h-.1v.1h-.1v-.3h.1v-.2l-.1-.1v-.1h-.1v-.3.1-.1l.1-.2v-.2h.1v-.4l-.1-.1v-.2h-.1l-.1-.1v-.1h-.2v-.2h-.2v-.1h-.1v-.4h.2v-.1h.3l.1.1.1.1h.1v.1h1l.1-.1h.2v.1l.1.1v.1h.1v-.1h.1l.1-.1h.5l.1-.1h1.2v.1h.1v.1h.1v-.1h.1l.2-.1.1-.2v-.1h.1v.1l.1.1v.1h.1v.4l-.1.1v.8h.1v.1h.1v.1h.1v.1h.1v.1h.1-.4v.2h-.3v.2h-.1v.1l-.1.2v.2l.1.2v.1l.1.1v.1h.1v.3h.1l.1.1h.1v.1h.1v.1h.1v.1h.1l.1.1h.1l.1.1.1.1h.2v.1h.3l.1.1h.1v.1h.2v.1h.1v.1h.2v.1h.1v.2h.1v.5h-.2v.2h-.1v.4h-.1v.3h-.1v.1h-.3l-.1.1h-.3v-.1h-.1v-.1z" class="land"/><path d="M805 666.4Z" class="land"/><path d="M800.5 666.3Z" class="land"/><path d="M805 666.4Z" class="land"/><path d="M804.9 666.3Z" class="land"/><path d="M805.5 664.6Z" class="land"/><path d="M805.7 664.6Z" class="land"/><path d="M805.6 664.6Z" class="land"/><path d="M805.6 664.7Z" class="land"/><path d="M805.8 664.4Z" class="land"/><path d="M805.2 664Z" class="land"/><path d="M805.2 664Z" class="land"/><path d="M755.7 662.6v-.1Z" class="land"/><path d="M806 664.7h-.2v-.2h.3v.1z" class="land"/><path d="M805.5 664.6Z" class="land"/><path d="M805.6 664.5Z" class="land"/><path d="M717 642.5h.2l.1.1v.1h.1l.1.1v-.2h-.1l.2.1v.1h.1v.2h.1v.4h-.1v.1h-.1v.1h-.1l-.1.1h-.1l-.1.1-.2.1v.1h-.1v.1h-.1v-.1l-.1.1-.1.1v.1l.2-.1h.1-.1l-.2.2h-.2v.3h-.1v.1h-.2v.1l-.1.1h-.1v.1h-.6l-.1-.1v-.5h.1v-.1h.1v-.1h.1l.1-.1v-.2l.1-.1.1-.1v-.5h-.1v-.1h.1l.1-.2h.1v-.1h.1v-.1h.1l.2-.1h.2v-.1h.1l.1-.1z" class="land"/><path d="M708.7 622.1v-.1h-.2v-.1l-.1-.1v-.1h.2v-.1h.1v.1h.2v.1h.1v.1h.3v.1h-.2v-.1.2l.1.1.1-.1h.2l-.1.2h.2v.5h.2v-.1h-.1v-.1l.2.3h-.1v.4h.2v-.1l-.1-.2v-.1h.1-.1v.1h.1v.1l.1.1h-.1l.1.2h.1v-.1.2h.1-.1v.1h.1v.1l.1.1.1.1v.1h.1v.2h.1v.1l.1.1h.1v.1h.1v.2h.1v.1h.1v.2h.1v.1l.9 1 .2.3v.2h-.7l-.1-.1.3-.2h-.2l-.2-.2v-.4h-.1v-.1l-.1-.1-.1-.1-.1-.2-.2-.2-.1-.2-.2-.2-.1-.2h-.1v-.1l-.1-.1h-.1v-.1l-.1-.1v-.1l-.1-.1-.1-.1v-.1h-.2v-.3h-.1l-.1-.2-.1-.1h-.1v-.2h-.1v-.1l-.2-.2-.1-.2h-.2z" class="land"/><path d="M797.6 617.5v-.1h-.1v-.1l-.2-.1v-.5l.1-.1h.5v.1h.1v.1h.6l.1-.1h.1v-.1h.5v-.1h.1v.2h.1v.1h.1v-.1h.2v.1h.4v-.1h.2l.1-.1h.2v.7h.1v.2h.1v.1h-.1v.2h-.1v.2h-.1v.5h-.1v.2h-.2l-.1.1v.1h-.1v.2h-.1v.2h.1v.1h.1v.1h.1v.3h.1v.1l.1.1h.1v.2h-1v-.4h-.1l-.1-.1h-.2v-.2h-.1l-.2-.1h-.2l-.1-.1h-.3v-.1h-.3v-.8h.1v-.2h-.2v-.4l-.1-.1v-.1h-.1v-.1z" class="land"/><path d="M800.8 618h-.1v-.1Z" class="land"/><path d="M801 617.8h-.1Z" class="land"/><path d="M800.9 616.4Z" class="land"/><path d="M800.8 616.4Z" class="land"/><path d="M800.8 616.3h.1v.1h-.1z" class="land"/><path d="M700 592.2v-.1h.1v-.3h.4l.2.2v.1l.1.2h.1v.2h.1v.1h.1v.2h.1v.2l-.2.1h-.1l-.2.1-.1.1v-.1l-.1-.1v-.1l-.1-.1.1-.2v-.3h-.1v-.1h-.1v-.1z" class="land"/><path d="M794 580.8h-.3v-.1h.4v-.1h.2v.1h-.2Z" class="land"/><path d="M646.3 575.4Z" class="land"/><path d="M646.7 575.7Z" class="land"/><path d="M646.8 575.7Z" class="land"/><path d="M646.8 575v.4h.1v.3h-.1v-.1h-.1v-.1h-.3v-.1h-.2v-.1h-.2v-.1h.1v-.2.2h.1v-.1h-.4v.1l.1-.1v-.1h.1v-.1h.1v-.6h-.1l-.1-.1h-.1v-.2h-.1v-.1h-.1v-.1h-.1v-.1h-.1v-.2h.2v-.1h.1v-.1h.6v-.1h.4v-.1h.7v-.1h.6v.1h.1v.2h-.1v.1h-.1v.2h-.1v.5h-.1v.5h-.5v.1h-.2v.2h-.2z" class="land"/><path d="M647.8 574.3Z" class="land"/><path d="M647.8 574.6Z" class="land"/><path d="M652 567.6v.1Z" class="land"/><path d="M652 567.6h.1Z" class="land"/><path d="M652 567.6Z" class="land"/><path d="M652 567.5h.1v-.1h.1l-.1.1Z" class="land"/><path d="M652 567.4Z" class="land"/><path d="M652 567.4Z" class="land"/><path d="M639.9 565.3h-.1v-.5h.2v.4z" class="land"/><path d="M638.9 564.8Z" class="land"/><path d="M639 564.7Z" class="land"/><path d="M639 564.8Z" class="land"/><path d="M639.1 564.7Z" class="land"/><path d="M638.9 564.7Z" class="land"/><path d="M638.7 564.4v.2h.1v.1h-.2v-.2Z" class="land"/><path d="M698 564v-.1l.1-.1v-.1h.1v.1l-.1.1v.1z" class="land"/><path d="M653.5 572v-.1Z" class="land"/><path d="M646 573.3h-.1Z" class="land"/><path d="M664.7 571v.1h-.1v-.2h-.1v-.1h-.2v-.5.1h.1v-.2l-.1-.1v-.3h.1v-.1h.8v.5h-.1l-.1.1h-.1v.2h-.1z" class="land"/><path d="M652.7 569.4v-.1h-.3v-.1l-.1-.1v-.2h.4v.1h.1v.3Z" class="land"/><path d="M652.1 568.5h.2v.1h-.2Z" class="land"/><path d="M652.7 570.3Z" class="land"/><path d="M652.2 570Z" class="land"/><path d="M663.7 569.8h-.1v-.2h.1v-.1h.2v.3h-.1Z" class="land"/><path d="M653.4 570.4Z" class="land"/><path d="M660.7 571v.1Z" class="land"/><path d="M661 571h-.1Z" class="land"/><path d="M660.7 571v.1h-.2l-.1-.1h-.1l-.1-.1v-.1h-.1v-.2l.1-.1h.2v-.1h.5v.6z" class="land"/><path d="M660.4 570.4Z" class="land"/><path d="M652.8 570.4v-.2h-.1.1v-.1h.1v-.1h.1v-.3h.1v-.1h.2v-.1h.3v.2h-.1v.1h-.1v.1h-.1v.1h-.1v.2h-.3v.1z" class="land"/><path d="M652.1 568.5Z" class="land"/><path d="M654.8 562.7Z" class="land"/><path d="M655 562.6h-.1Z" class="land"/><path d="M653.5 562.5Z" class="land"/><path d="M653.5 562.5Z" class="land"/><path d="M649.2 562.2Z" class="land"/><path d="M650.6 562h-.1v-.1.1h.1v.1Z" class="land"/><path d="m700.3 559.6.2.1v.7h-.3v.1h-.3v-.2h-.5v.1l-.2.2h-.5v-.1h.6v-.5h-.5v-.2h-.1 1.4v-.2h.1v.1h.1z" class="land"/><path d="M654.1 560.5v-.1Z" class="land"/><path d="M653.8 560.6Z" class="land"/><path d="M653.7 560.6Z" class="land"/><path d="M653 560.1h-.1v-.1h.1v-.1h.1v.2Z" class="land"/><path d="M654 560.3Z" class="land"/><path d="M654 562.2Z" class="land"/><path d="M653.3 562v.1Z" class="land"/><path d="M699.3 561.1Z" class="land"/><path d="M653.5 561.8Z" class="land"/><path d="M654.8 561.8h-.1v-.2l.1.1z" class="land"/><path d="M653.8 562v-.2h-.2l-.1-.1v-.1h-.1v-.3h.5v-.3.2h.1v-.2.1-.1h-.1v-.1h.1v-.1h.6v-.1h.4v.3h.1v.3h.1v.1h-.2v-.1h-.7l-.1.1h-.1l-.1.1-.1.1v.3Z" class="land"/><path d="M653.9 560.7h-.1z" class="land"/><path d="M649.6 562.5v-.1Z" class="land"/><path d="M651.6 561.3v-.2h-.1v-.2h.1v-.2h-.1v.1-.5h-.1v-.3h.1v-.1h.1v-.4h-.1v-.2h-.1v-.1l-.1-.1v-.2h.2v.1l.1.1h.1v.1l.1.2h.3v-.1h.1v-.2h.1l.1.1h.1v.8h.1v.5h.1v.2l-.1.1v.1h.4v-.2h.1v.5h-.1l-.1.1h-.3v.8h.1l.1.1h.1v.1h-.4l-.1-.1h-.9l-.1.1-.1.1v-.1h-.2v-.4h.1v-.2h.1v-.1h.1v-.1h.1z" class="land"/><path d="M652 559.4Z" class="land"/><path d="M638.3 558.8Z" class="land"/><path d="M638.4 558.8Z" class="land"/><path d="M638.4 558.8v-.1h-.1v-.4h.1v-.2h.1v-.4h.3l.1.1h.1v.2h.4v.3h-.1l-.1.1v.1l-.1.1h-.3l-.1.1z" class="land"/><path d="M699.4 557.7v-.2.1Z" class="land"/><path d="M652.9 551.9h-.1l-.1-.1v-.5l.1-.1h.1v.2h.1v.2h.1l.1-.1h.2v-.1h.1v-.2h.2v-.1h.3v-.1l.1-.1h.5v-.1l.1-.1h.2l.1.1.1.1h.1v.1h-.3v.1h-.2l-.1.1v.1h-.1l-.1.1-.1.1h-.1l-.1.1h-.6v.1h-.3l-.1.1z" class="land"/><path d="M653.4 549.8h-.3v-.4h.5v.3l-.1.1z" class="land"/><path d="M668.6 547.7h.1z" class="land"/><path d="M802.3 543.3Z" class="land"/><path d="M664.8 542.2h.1Z" class="land"/><path d="M660.4 541.9Z" class="land"/><path d="M659.3 541.8Z" class="land"/><path d="M660.7 547.4h-.3v.1h-.1v.4h-.2v.2h-.2v.1h-.1v.2h.1v.1l.2.2h.1v.3h-.1l-.1.1h-.2v.2l.1.1v.4h-.4v-.1h-.1v-.1h-.3v-.1h-.5v.1h-.2v.1h-.6v.1h-.1v.1h-.3l-.1-.1v-.5h.1v-.6h-.1l-.1-.1h-.1l-.1-.1h-.2l-.1-.1-.1.1h-.3v.1h-.1l-.1-.1v-.2h-.1v-.3l-.1-.1h-.1l-.1-.1h-.1v-.1l.1-.1v-.2h-.4v.1h-.2v-.3h-.1v-.2h.1v-.3h.3v-.4h.1v-.1h.1v.3h.2v.8h.2v.1h.2v.5h-.2v.3h.1v.1h.4v-.3h.1v.1h.2v-.3l.1.1h.4v.2h.1v.2h.1l-.1.1h-.1v.2h.1v.3h.2v-.1h.1v-.1l.2-.2v-.5h.1l.1-.1h.2v.2h.2v-.1h.2v.1l.1.1.1.1h.2v-.1h.2v-.2h-.2v-.6h.3v-.2h.2-.1v-.2l-.1-.1v-.1h.1v-.2l-.1-.2v.1h-.3v.1h-.1v-.1h-.1v-.2h-.1v.2h-.5v.1h-.3v-.1h-.2v.1h-.2l-.1.1h-.1v-.2h-.1l-.2.1v-.2h-.2v.2h-.1l-.1-.1v.1h-.1v-.2h.2v-.1h-.2v-.4h.2l.2.1.2.1h.4l-.1-.2h-.1v-.1l.2.1.1-.1-.2-.1v-.2h-.2v-.2h-.1l-.1.2h-.7v.1h-.1v-.1h-.1v-.1h.2v-.5.1h.2v-.2h-.1.1l.2-.2.2-.1v-.1l-.1-.2-.2-.2-.1-.2v-.2h1v-.1h.2v-.1h.1v-.1h.1v-.1h.1v-.2l.1-.1v.4h.1v.3h-.1v.3h.1v.1h-.2v.1h.2v.1h.2v-.2.3h-.1v.4h.2v-.1h.1v-.1h.2v.3h.1v.1h.2v-.4l.1-.1v-.6h.1v-.1h.5v-.9h-.1v-.1h-.1v-.3h.1v-.4h.5v.3h.1v-.2h.2v.2h.3l.1-.1v-.2h-.1v-.1h.2v-.1h.3l.1.1h.1v.1h.2v.1l-.1.1h-.3v.1h-.1v.2h.1v.3l-.1.1v.2h-.1v.4l.1.2v.1l-.1.2v.1h.3v-.2h.2v-.3l.1-.1v-.1h.1v-.4h-.1v-.2l.2-.1h.1v-.1h.1v-.1h.2v.4l-.1.1h-.1v.2h.1v.1h.1v.2h.1v-.1h.1v-.1h-.1v-.3l.1-.1v-.1h.2v-.4l.1-.1v-.1h.2v-.3h-.2.1v-.1h.1v-.1h.3v.1h.1v.2h.1v.6h.1l.1.1h.2v.2h.2v-.1l-.4.1v.3h.2l.1.1v-.1h.3v-.1h.1v-.2h-.2v-.2h.1v-.1h.1v-.3h.2v.4h.1v.1h.1v.1h.1v.1l.1.3.1.1.1.1v.1h.1v.7-.1.6l.1.1v.3h.1v.1l.1.1.1.1h.3v.1h.1v.3h.1v.1h-.1l-.1.1h-.3v.1h-.4v.1h-.4v-.1h-.1v-.4h-.2v.1h-.1v.2-.1l-.3-.2v-.2h-1.5l-.1.1h-.2v.1l-.1.1v.1l-.1.1v.1l.1.1h-.4v.4h-.5v.1h-.2v.3l-.1-.1-.2.1v.3z" class="land"/><path d="M658.2 547.6h-.1v-.1h.1Z" class="land"/><path d="M663.9 547.3Z" class="land"/><path d="M654.4 547.3h-.1v-.1h-.1.2Z" class="land"/><path d="M654.1 547.2Z" class="land"/><path d="M655 546.3v-.2h.2v.1h-.1Z" class="land"/><path d="M663.8 547.2Z" class="land"/><path d="M663.8 547Z" class="land"/><path d="M659.2 543.6h-.1v-.1h.1Z" class="land"/><path d="M658.5 542.9v-.1h.1-.1Z" class="land"/><path d="M664.4 535.8Z" class="land"/><path d="M664.6 535.6v.1h.1-.1z" class="land"/><path d="M664.6 535.4h.1v.2h-.1v-.1Z" class="land"/><path d="M656.2 535.3Z" class="land"/><path d="M663.3 535v.1-.1h-.2v-.1h.2z" class="land"/><path d="M663.2 535.3v-.1Z" class="land"/><path d="M659 535.2v-.1z" class="land"/><path d="M664.3 535.8Z" class="land"/><path d="M655.6 538v.1h.1l-.1.1h-.1v-.1h.1Z" class="land"/><path d="M663.7 537.7v-.1h-.2v-.1l.1-.1h.3l.1-.1h.2v.2h-.1v.1h-.1v.1h-.5v.1l.1-.1z" class="land"/><path d="M660.3 537.5v-.2l.1-.1v-.2h.1v-.2h.1v-.2h.1v.1l-.1.2v.1h-.1v.1l-.1.1v.1h-.1v.1Z" class="land"/><path d="M664.2 537h-.1v-.1h.1z" class="land"/><path d="M662.4 537.6h.2-.2v.1h-.1v.1-.2z" class="land"/><path d="M664.2 536.2v-.3h.1v.2h.1v.1z" class="land"/><path d="M666.7 541.1Z" class="land"/><path d="M666.7 541Z" class="land"/><path d="M659.8 541.7h-.1v-.2h-.2v-.1h-.1l-.1-.1v-.1h-.1v-.1h.4v-.2h.1v-.2h.5v.1h.2v.6l-.1.1h-.1v.1h-.4Z" class="land"/><path d="m653.5 538.9.1.1h.1l.1-.1v.1h.1l.1.1.1.1h.2l.2.1h.4v-.1h.3v.2h-.1v.2h-.1v.1h-.1v.1h-.6v.1l-.1.1h-.3l-.2.1v-.2h-.1l-.2.1v.1l-.1.2v.1h.1v.2l.1.1v1.1h.1v.9h-.1v.2h-.5v.1h-.1v.2h.1v.3h.1v.4l-.1.1v-.1h-.1v.5l.2.1v.1h-.1v.3h.1-.1v.1h.3v.2h-.1v.1h-.6l-.1-.1h-.6v-.1h-.5v.3h-.8.1-.2v.1h.1-.1l-.1.1h-.3l-.1.1h-.4v-.4h.2v-.1h.2v-.1h.2v-.1h.1l.1-.2.1-.1v-.1l.1-.1h.2v.1h.2v.1h.1v.1h.6v-.2h.1l.1-.1v-.2h.2v-.1h.1v-.6h.1v-.3h-.1l-.1-.1-.1-.1h-.1v-.1h-.4v-.5h.3v.2l.1.1h.2l.2-.1v-.1l-.1-.1v-.6h.1v-.2h.1l.1-.1h.1v-.3l-.1-.1h-.3v-.1h-.1v-.1h-.1v-.2l.1-.1v-.1h.1v-.1l.1-.1v-.1h-.1v-.7h.3v-.2l.1-.1v-.2h.1v-.3l.1-.1v-.1h.1v-.1h.5v.3Z" class="land"/><path d="M667 541Z" class="land"/><path d="M666.7 540.9h.1v.1-.1Z" class="land"/><path d="M666.6 541Z" class="land"/><path d="M665.6 540.4v-.1h.2-.1v.1Z" class="land"/><path d="M665.6 540.4v-.1Z" class="land"/><path d="M661.6 539.2Z" class="land"/><path d="M660.7 540Z" class="land"/><path d="M659.8 539.4v-.1Z" class="land"/><path d="M657.2 541h-.1v.1h-.1v-.1h-.1v-.1l.1-.1v-.1h.1v.1h.1v.3h-.2z" class="land"/><path d="M662.3 540.8v-.2h.2v.1h-.2z" class="land"/><path d="M655.2 538.5v-.1h.1v.1Z" class="land"/><path d="M653.6 538.5h-.3v-.3h-.3v-.1h.1v-.1h.7v.3h-.1v.1h-.1z" class="land"/><path d="M658 538.6h-.1v-.1h.1z" class="land"/><path d="M661.7 538.8h-.1v-.1h.1v-.1h-.1.1v-.3h.4v.3h-.2v.1h-.1z" class="land"/><path d="M659.8 540.4h-.2v.1h-.1v.2l-.1.1v-.2h-.2v-.1h-.4l-.1.1h-.1v-.3h.1v-.2l.1-.1.1-.1h.1v-.8h-.1l-.1-.1h-.1l-.1-.1h-.1v-.3l-.1-.1v-.1h-.1l-.1-.1-.1-.1v-.3h-.2v-.1h.2v-.1h-.1v-.2h-.2v-.1h-.6v.1h-.2v.4h-.1l-.1.1v.2h-.1l-.4-.2h-.1l-.1-.1h-.1l-.2-.1h-.1v-.5h.1v-.2h.1v-.2h.3v-.1h.1v-.3l.2-.1v.3h.7v-.1h-.1.2v-.1h.2v-.1h.3v-.2h.5v.1h.1v.2h.1l.2.1h.2v-.1h.1l.1-.1h.3v.3h.1v.1h.2l.1.1v.1l-.1.3h.4l-.1.1v.1h-.1v.3l.2.2.1.1h.1v.3l-.1.1h-.7v.2h-.1v.1l.1.1v.1h-.1l-.2.1v.2l.1.2h.2v.2h.2l.1-.1v-.1h.1v-.1h.1v.1h.1v.3h-.2l-.1.1h-.1v.2h-.1v.1z" class="land"/><path d="M656.4 535v-.3z" class="land"/><path d="M656.8 534.8Z" class="land"/><path d="M656.8 535v-.1Z" class="land"/><path d="M656.1 533.6v-.7h-.1v-.2h.2v.1h.1v.2l-.1.1v.3h.1v.1h-.1Z" class="land"/><path d="M657 533.4h-.1Z" class="land"/><path d="M658.3 529v-.1Z" class="land"/><path d="M659.5 527.4h-.1Z" class="land"/><path d="M659 535v-.1z" class="land"/><path d="M700.6 531.3h.9l-.2 1.5v.1h-1z" class="land"/><path d="M660 533.6h-.1v-.3h.1l.1.1v.1z" class="land"/><path d="m659.5 530.2-.1-.1v-.1h-.2v-.1h.1v.2h.1v.1Z" class="land"/><path d="M660.2 529.8Z" class="land"/><path d="m659.5 530.1.1-.1v-.2h.1v.2z" class="land"/><path d="M659.7 529.6v-.1z" class="land"/><path d="M659.6 529.4Z" class="land"/><path d="M659.5 529v-.1Z" class="land"/><path d="M660.5 531.3v-.2h-.2v-.1h-.1v.1h.1-.1l.2.1v.1h-.5v.1l-.1.1v.1l-.1.1v.4h-.1v-.3h-.1v-.2l-.1-.1h-.3v-.5h.1l.1-.1h.2v-.1h.1v-.1h.1v-.3h.2v-.2h.1v-.3h.2v.1h.1v.1h.1l.2.1h.1v.1h.1l.1.1v.2l.1.2v.1h-.1v.1h-.3v.3Z" class="land"/><path d="M658.5 528.8Z" class="land"/><path d="M659.4 529v-.1Z" class="land"/><path d="M659.5 529h-.1v-.1Z" class="land"/><path d="m720 503.1-.2.7-.1.2h-.1v.1h-.2v.1h-.1v.1l-.1.3-.2.3v.1l-.1.1v.1h-.2v.1h-.2l-1.4.1h-1v-.2l.4-1.2.4-.8h3.1Z" class="land"/><path d="M821 480.5Z" class="land"/><path d="M821 480.3Z" class="land"/><path d="M821 480.3Z" class="land"/><path d="M821 480.2Z" class="land"/><path d="M821 480.2Z" class="land"/><path d="M834.2 442.2h-.2v-.1h-1.1v-.1h-.2v-.1h-.1v-.2h-.1v-.2h-.1v-.1h-.2v-.1h.1v.1h.1l.1.1h.4v-.3h.1v-.1h.1v-.1h.7v.1l.1.1v.1h.1v.3l.1.1.1.1h.1v.3z" class="land"/><path d="M829.5 461.6h-.1Z" class="land"/><path d="M650.1 430.5Z" class="land"/><path d="M649.6 430.3h-.2v-.1h.2z" class="land"/><path d="M650 430.5h-.1Z" class="land"/><path d="M650 430.5Z" class="land"/><path d="M650 430.5Z" class="land"/><path d="M650.2 430Z" class="land"/><path d="M648.9 429.9h-.1l-.1-.1h-.2v-.1h-.1v-.1h-.1v-.1h-.1v-.1h-.1v-.3h-.1v-.1h.2l.1.1h.1l.1.1h.2v.5l.1.1Z" class="land"/><path d="M650 430.4v-.2h-.3v-.2h.2v-.1h.1v.1h.2v.2h.1v.1h-.2Z" class="land"/><path d="M827.7 418.5Z" class="land"/><path d="M830.6 418.4h.1v-.1h.1l-.1.1Z" class="land"/><path d="m790.2 417 .4-.2v-.2l.5-.3.2.4-.5.3-.5.3h-.1v.1h-.1l-.2-.5-.2-.4.2.3.2-.1z" class="land"/><path d="M819.5 416.1v.2h-.2v-.1h-.1v-.2l.1-.3-.2.2v-.1h-.1v-.2h.4v-.2h.3v.1h.2v.1h.3v.1h.5l-.1.1h-.3v.1h-.2l-.1.1-.1.1z" class="land"/><path d="M821 413Z" class="land"/><path d="M833 394Z" class="land"/><path d="M833 394.1Z" class="land"/><path d="M845 389.2Z" class="land"/><path d="M844.8 389.3h-.1v-.4h.2v.4z" class="land"/><path d="M820.9 413.3v-.3h.2v-.1h.2v-.1h.1v.2h-.1v.1h-.1v.1h-.3Z" class="land"/><path d="M821.2 412.8Z" class="land"/><path d="M821 412.8Z" class="land"/><path d="M821.4 412.8Z" class="land"/><path d="M815 411Z" class="land"/><path d="M811.4 409.7Z" class="land"/><path d="M823.8 473.3Z" class="land"/><path d="M824 473.2h-.1Z" class="land"/><path d="M823.9 473.3Z" class="land"/><path d="M823.9 473.3Z" class="land"/><path d="M823.8 473.3Z" class="land"/><path d="M823.8 473.2Z" class="land"/><path d="M823.8 473.2Z" class="land"/><path d="M823.8 473.2Z" class="land"/><path d="M823.8 473.2Z" class="land"/><path d="M823.9 473.2Z" class="land"/><path d="M823.8 473.2Z" class="land"/><path d="M823.8 473.2Z" class="land"/><path d="M823.9 473.2Z" class="land"/><path d="M823.8 473.2Z" class="land"/><path d="M823.8 473.2Z" class="land"/><path d="M823.8 473.2Z" class="land"/><path d="M823.9 473.2Z" class="land"/><path d="M842.9 377.8h-.1v-.1h-.1v-.1h-.2v-.1h-.1v-.5h.3v-.1h.5v.2h.1v.3h-.1l-.1.1h-.1v.2h-.1Z" class="land"/><path d="M686.2 351.6h-.1v-.2h.1v-.2h.1v.3z" class="land"/><path d="M688.2 349.3v-.1Z" class="land"/><path d="M683 348.8h.1Z" class="land"/><path d="M687.3 348.7h-.1Z" class="land"/><path d="M683.2 348.7Z" class="land"/><path d="M687.2 349.4h.2l.2.1h.1v-.2l.1-.1h.2v.1h.2v.1h-.1v.1h-.1v.1h-.1v.1h-.1v.2h-.2v.1h-.2v.4h-.3v.2h-.1v-.2h-.1v.1h-.1l-.1.2h-.1l-.1.1v.1h-.4v-.1h.1v-.2h.1v-.1l.1-.2h-.1v-.1h.2l.1-.1.1-.1v-.1h.1v-.4h.1l.1-.1z" class="land"/><path d="M686.4 349Z" class="land"/><path d="m687 349.2.1-.1v-.2h.1v.2z" class="land"/><path d="M686.4 349Z" class="land"/><path d="M686.4 349Z" class="land"/><path d="M686.4 349Z" class="land"/><path d="M686.4 348.8v.1Z" class="land"/><path d="M686.5 348.8v.1z" class="land"/><path d="M686.4 349Z" class="land"/><path d="M683.7 349v-.1h-.1v-.1l-.1-.1v-.1l-.1-.1v-.1h.1v-.1h1.3v-.1h.1v.1h.2v.4h-.1l-.1.1v.1h-.1v.1h-.4v.2h-.1v.2h-.4.1v-.3z" class="land"/><path d="M683.2 348.6Z" class="land"/><path d="M689.5 348.6Z" class="land"/><path d="M688.4 348.2Z" class="land"/><path d="M683.2 348.6Z" class="land"/></g></svg>
