<svg width="1440" height="480" viewBox="0 0 1440 480" fill="none" xmlns="http://www.w3.org/2000/svg">
	<defs>
		<pattern id="minor-grid" width="40" height="40" patternUnits="userSpaceOnUse">
			<path d="M40 0H0V40" stroke="#C4CCD9" stroke-opacity="0.09" />
		</pattern>
		<pattern id="square-grid" width="200" height="200" patternUnits="userSpaceOnUse">
			<rect width="200" height="200" fill="url(#minor-grid)" />
			<path d="M200 0H0V200" stroke="#C4CCD9" stroke-opacity="0.1" stroke-width="2" />
		</pattern>
	</defs>

	<rect width="1440" height="480" fill="#223045" />
	<rect x="480" width="480" height="480" fill="#1F2D40" />
	<rect x="960" width="480" height="480" fill="#243348" />
	<rect width="1440" height="480" fill="url(#square-grid)" />

	<g stroke="#C4CCD9" stroke-opacity="0.24" stroke-width="2">
		<path d="M40 240H1400" />
		<path d="M80 120H200V200H320V120H440" />
		<path d="M80 360H200V280H320V360H440" />
		<path d="M120 120V360M240 200V280M400 120V360" />
		<path d="M520 80H640V160H760V80H920" />
		<path d="M520 400H640V320H760V400H920" />
		<path d="M560 80V400M680 160V320M880 80V400" />
		<path d="M1000 120H1120V200H1240V120H1400" />
		<path d="M1000 360H1120V280H1240V360H1400" />
		<path d="M1040 120V360M1160 200V280M1360 120V360" />
	</g>

	<g stroke="#38BDF8" stroke-opacity="0.58" stroke-width="2">
		<path d="M40 160H160V120H280V160H520V120H640V280H840V240H1080V320H1400" />
		<path d="M160 120V80H360V200H600M840 240V120H1000V160H1240V80H1400" stroke-dasharray="8 10" />
	</g>

	<path d="M40 280H200V200H480V240H720V160H960V200H1200V160H1400" stroke="#FB923C" stroke-width="4" />

	<g fill="#C4CCD9">
		<rect x="76" y="116" width="8" height="8" />
		<rect x="116" y="236" width="8" height="8" />
		<rect x="196" y="196" width="8" height="8" />
		<rect x="196" y="356" width="8" height="8" />
		<rect x="236" y="236" width="8" height="8" />
		<rect x="316" y="116" width="8" height="8" />
		<rect x="316" y="276" width="8" height="8" />
		<rect x="396" y="356" width="8" height="8" />
		<rect x="436" y="116" width="8" height="8" />
		<rect x="516" y="76" width="8" height="8" />
		<rect x="556" y="236" width="8" height="8" />
		<rect x="636" y="156" width="8" height="8" />
		<rect x="636" y="316" width="8" height="8" />
		<rect x="676" y="236" width="8" height="8" />
		<rect x="756" y="76" width="8" height="8" />
		<rect x="756" y="396" width="8" height="8" />
		<rect x="876" y="316" width="8" height="8" />
		<rect x="916" y="76" width="8" height="8" />
		<rect x="996" y="116" width="8" height="8" />
		<rect x="1036" y="236" width="8" height="8" />
		<rect x="1116" y="196" width="8" height="8" />
		<rect x="1116" y="356" width="8" height="8" />
		<rect x="1156" y="236" width="8" height="8" />
		<rect x="1236" y="116" width="8" height="8" />
		<rect x="1236" y="276" width="8" height="8" />
		<rect x="1356" y="356" width="8" height="8" />
		<rect x="1396" y="116" width="8" height="8" />
	</g>

	<g fill="#38BDF8">
		<rect x="34" y="154" width="12" height="12" />
		<rect x="154" y="114" width="12" height="12" />
		<rect x="274" y="154" width="12" height="12" />
		<rect x="354" y="194" width="12" height="12" />
		<rect x="514" y="114" width="12" height="12" />
		<rect x="634" y="274" width="12" height="12" />
		<rect x="834" y="234" width="12" height="12" />
		<rect x="994" y="154" width="12" height="12" />
		<rect x="1074" y="314" width="12" height="12" />
		<rect x="1234" y="74" width="12" height="12" />
		<rect x="1394" y="314" width="12" height="12" />
	</g>

	<g fill="#223045" stroke="#FB923C" stroke-width="4">
		<rect x="26" y="266" width="28" height="28" />
		<rect x="186" y="186" width="28" height="28" />
		<rect x="466" y="226" width="28" height="28" />
		<rect x="706" y="146" width="28" height="28" />
		<rect x="946" y="186" width="28" height="28" />
		<rect x="1186" y="146" width="28" height="28" />
		<rect x="1386" y="146" width="28" height="28" />
	</g>

	<g fill="#FB923C">
		<rect x="35" y="275" width="10" height="10" />
		<rect x="195" y="195" width="10" height="10" />
		<rect x="475" y="235" width="10" height="10" />
		<rect x="715" y="155" width="10" height="10" />
		<rect x="955" y="195" width="10" height="10" />
		<rect x="1195" y="155" width="10" height="10" />
		<rect x="1395" y="155" width="10" height="10" />
	</g>
</svg>
