<svg xmlns="http://www.w3.org/2000/svg" width="1440" height="960" viewBox="0 0 1440 960" role="img" aria-labelledby="title desc">
	<title id="title">Netstamp dashboard screenshot mock</title>
	<desc id="desc">A Netstamp product dashboard showing probe fleet status, checks, route intelligence, and alert incidents.</desc>
	<rect width="1440" height="960" fill="#f6f7f9"/>
	<rect x="32" y="32" width="1376" height="896" fill="#ffffff" stroke="#d8dee8"/>
	<rect x="32" y="32" width="244" height="896" fill="#f8fafc" stroke="#d8dee8"/>
	<rect x="64" y="72" width="144" height="20" fill="#111827"/>
	<rect x="64" y="136" width="164" height="38" fill="#2563eb"/>
	<rect x="64" y="198" width="148" height="16" fill="#5f6b7a"/>
	<rect x="64" y="242" width="148" height="16" fill="#5f6b7a"/>
	<rect x="64" y="286" width="148" height="16" fill="#5f6b7a"/>
	<rect x="64" y="330" width="148" height="16" fill="#5f6b7a"/>
	<rect x="64" y="780" width="148" height="48" fill="#ffffff" stroke="#d8dee8"/>
	<rect x="320" y="76" width="384" height="44" fill="#111827"/>
	<rect x="320" y="144" width="236" height="18" fill="#5f6b7a"/>
	<rect x="1112" y="82" width="124" height="36" fill="#2563eb"/>
	<rect x="1252" y="82" width="112" height="36" fill="#ffffff" stroke="#aeb8c6"/>
	<g>
		<rect x="320" y="208" width="240" height="132" fill="#ffffff" stroke="#d8dee8"/>
		<rect x="344" y="232" width="112" height="15" fill="#5f6b7a"/>
		<rect x="344" y="268" width="92" height="42" fill="#111827"/>
		<rect x="464" y="280" width="58" height="20" fill="#168a45"/>
		<rect x="588" y="208" width="240" height="132" fill="#ffffff" stroke="#d8dee8"/>
		<rect x="612" y="232" width="112" height="15" fill="#5f6b7a"/>
		<rect x="612" y="268" width="92" height="42" fill="#111827"/>
		<rect x="732" y="280" width="58" height="20" fill="#2563eb"/>
		<rect x="856" y="208" width="240" height="132" fill="#ffffff" stroke="#d8dee8"/>
		<rect x="880" y="232" width="112" height="15" fill="#5f6b7a"/>
		<rect x="880" y="268" width="92" height="42" fill="#111827"/>
		<rect x="1000" y="280" width="58" height="20" fill="#b42318"/>
		<rect x="1124" y="208" width="240" height="132" fill="#ffffff" stroke="#d8dee8"/>
		<rect x="1148" y="232" width="112" height="15" fill="#5f6b7a"/>
		<rect x="1148" y="268" width="92" height="42" fill="#111827"/>
		<rect x="1268" y="280" width="58" height="20" fill="#168a45"/>
	</g>
	<rect x="320" y="376" width="652" height="304" fill="#ffffff" stroke="#d8dee8"/>
	<rect x="344" y="404" width="156" height="18" fill="#111827"/>
	<rect x="344" y="444" width="584" height="1" fill="#e6eaf0"/>
	<polyline points="356,604 436,558 516,574 596,508 676,522 756,462 836,492 916,430" fill="none" stroke="#2563eb" stroke-width="5"/>
	<polyline points="356,638 436,626 516,604 596,618 676,582 756,610 836,570 916,594" fill="none" stroke="#64748b" stroke-width="3"/>
	<g fill="#2563eb">
		<circle cx="356" cy="604" r="6"/>
		<circle cx="596" cy="508" r="6"/>
		<circle cx="916" cy="430" r="6"/>
	</g>
	<rect x="1004" y="376" width="360" height="304" fill="#ffffff" stroke="#d8dee8"/>
	<rect x="1028" y="404" width="142" height="18" fill="#111827"/>
	<rect x="1030" y="468" width="296" height="1" fill="#d8dee8"/>
	<circle cx="1064" cy="520" r="16" fill="#2563eb"/>
	<circle cx="1168" cy="486" r="12" fill="#168a45"/>
	<circle cx="1258" cy="550" r="12" fill="#b42318"/>
	<circle cx="1312" cy="498" r="10" fill="#64748b"/>
	<path d="M1064 520 L1168 486 L1258 550 L1312 498" fill="none" stroke="#2563eb" stroke-width="3"/>
	<rect x="320" y="712" width="1044" height="156" fill="#ffffff" stroke="#d8dee8"/>
	<rect x="344" y="740" width="140" height="18" fill="#111827"/>
	<rect x="344" y="788" width="980" height="1" fill="#e6eaf0"/>
	<rect x="344" y="820" width="148" height="16" fill="#374151"/>
	<rect x="544" y="820" width="112" height="16" fill="#2563eb"/>
	<rect x="704" y="820" width="184" height="16" fill="#374151"/>
	<rect x="944" y="820" width="124" height="16" fill="#168a45"/>
	<rect x="1130" y="820" width="152" height="16" fill="#5f6b7a"/>
</svg>
